<mxfile host="app.diagrams.net" modified="2024-04-05T08:59:35.998Z" agent="Mozilla/5.0 (Macintosh; Intel Mac OS X 10.15; rv:124.0) Gecko/20100101 Firefox/124.0" etag="OqP94n47A6dXO-3ZRtOi" version="24.2.2" type="github">
  <diagram id="C5RBs43oDa-KdzZeNtuy" name="Page-1">
    <mxGraphModel dx="1243" dy="561" grid="1" gridSize="10" guides="1" tooltips="1" connect="1" arrows="1" fold="1" page="1" pageScale="1" pageWidth="827" pageHeight="1169" math="0" shadow="0">
      <root>
        <mxCell id="WIyWlLk6GJQsqaUBKTNV-0" />
        <mxCell id="WIyWlLk6GJQsqaUBKTNV-1" parent="WIyWlLk6GJQsqaUBKTNV-0" />
        <mxCell id="mh7DM1R_hKsIhI1hNfwh-0" value="" style="shape=image;verticalLabelPosition=bottom;labelBackgroundColor=default;verticalAlign=top;aspect=fixed;imageAspect=0;image=data:image/png,iVBORw0KGgoAAAANSUhEUgAAAlgAAAC9CAYAAABvcAPEAAABe2lDQ1BJQ0MgUHJvZmlsZQAAeJx1kd8rg1EYxz82ItsiXLhwsTSuNs3U4kaZNGpJM2W42d79Utu8ve8kuVVuV5S48euCv4Bb5VopIiV3yjVxg17Pu622ZM/pOc/nfM95ns55DlgiWSWnN3ohly9o4WDAOR9dcDa/YMeCDQcdMUVXx2ZmQtS1z3sazHjrMWvVP/ev2RJJXYGGFuFRRdUKwpPCobWCavKOcJeSiSWEz4TdmlxQ+M7U42V+NTld5m+TtUh4HCztws50DcdrWMloOWF5Oa5cdlWp3Md8iT2Zn5uV2Cveg06YIAGcTDHBOH4GGZHZjwcfA7KiTr63lD/NiuQqMquso7FMmgwF3KKuSvWkxJToSRlZ1s3+/+2rnhrylavbA9D0bBjvfdC8DT9Fw/g6MoyfY7A+wWW+mr9yCMMfohermusA2jbh/KqqxXfhYgu6H9WYFitJVnFLKgVvp+CIQucNtC6We1bZ5+QBIhvyVdewtw/9cr5t6RfwxmewtJ0NfgAAUOBJREFUeJzt3XmcHVWZN/Df71Sdqntvd2cPCYEkENl3WRRFBRQUZRMRBkSRHcF9YVxnEMeZcRt93WV1FwHZcVeQRVAHBmTfCUlICAmQre9WVed5/7i3IYTu21W379ad5/v59MikT9U5fZdTT5065zmAUkoppZRSSimllFJKKaWUUkoppZRSSimllFJKKaWUUkoppZRSSimllFJKKaWUUkoppZRSSimllFJKKaWUUkoppZRSSimllFJKKaWUUkoppZRSSimllFJKKaWUUkoppZRSSimllFJKKaWUUkoppdSEw243QCmlVHudDZibdt52awp3cMJ5JCeJSEWYLKXgidiE999yzz3Pd7udSk0kGmAppdQEdcCCBZOjgj3eCI8TYBdD5skXu30RgRMBgSUOcum6XP+n7rjjjqiLTVZqwjDdboBSSqnWe8NO2x0Y54O/+vS+5Xnm1Z4xeZJwziGp/zgRAIDxzOYQHG6t9bvcbKUmDP0yKaXUBLP/TtueJOD3fMMwdm6lCG4k5WEI8iCPIzBT6mU9Y5AkssyIOelvf/tbqasNV2oC0QBLKaUmkP133O4dFJxLAz927ke+mLP/dP/9i4Z+v+8O2y3yPfN1AeCcixPnrnCOn7vpgQce6WKzlZpwNMBSSqkJYv/tt58vkO8bY/wkcV/7y/0PnrVhmXX5vu/0lwYj43FzZ3DVjfc8+LdutFWpiU4DLKWUmiDEyOet521SjeMb1+X7PzNcmfok9u90uGlKbXR0FaFSSk0AB+y49fYxvDsI2NjxTTc/8MBN3W6TUhszXUWolFITQARzjPW8vBP84+YHHril2+1RamOnAZZSSo1zO+ywQwDh4QKAIr8G4LrdJqU2dhpgKaXUy42r6ROzvGRLEtslzokY3Nrt9iildJK7Umoj0xeGB4rhp0f6PQUlMeaUYrG4rJPtGguXcHffM2GcuNU2wcPdbo9SSgMspdTGhWJ4FoH9G5T5XbFYXN6xFrUAKduTAInnI89b0+32KKX0EaFSaiOSz+f3ILBfgyIiIt/AuJvDxFcAgAhWY+bMcrdbo5TSEayWmvfb0zZFOd7BwdvWQOYCmAYgFCKiYCWAJ8Qz90s5uX/J0Rc+1+XmKrXRMSKng7AjFhC5vVip3NDBJrWIbCIyeimlVOdogDVGW/30uEmVSbkjKPwXVNxe8PwZnv/SgcH1Z8sycXA+/ww5+83gOePsLlmp8SuXy80T4J2NZq+L4FwAUafa1CKEcEr9v3Ob3LhCn0wo1QM0wBqDeVedclwV5nPGN9sBAokdkDhIMnLcRGsAYCYuu39crVJSarwzwPEkpoxcQhbZXOVyVDrWpFYREbECAYFpTxw+fda0j/yr9K1eNdu5aKYPb4qjTDIwnhMnNFzjKM8a8RfBN8sWHfL957v9Byg1EWmA1YTpV5000Cfm2/S990IEUo3TH1wbxk/a1DSl1DCmAwNl4oRRiv149Wqs6kBzMpt33RlTpZpMQxJPlYAzIGYKHApG4vzkx56x+OUTM7k2FlKm+puU/7zJg49OKs6eNt0LAh8ADAkQMOIBEHhO4OKkyihZMffKU+4izR8ck98sOfzCR7v8pyo1YegoSkabXnNawU/kEpP3D5FyNBQwpUbfwEXuzsXx6r1w9GUaaCnVAX253LtB/LRBkTWxk90qlcoTHWtUA/OvO3O2JPHrCdnXiexOh/mATAGYp28IjwBqQRPjBPbpwbjwyKo4t2xVlZOrAwaOxVlTK8/vuIUvnvEw3AQtEjAEvdryQ4ni1QCviBP50tJ3XKCpHpQaIx3BysiPk3NMPjhESuNtmoZSGy1PKO9jw/tJuaoXgqv5V530SkdzpiTVw+h5m8AYGCcQJ4ATAFKbgrDerZkAKM/u88tz+n24zQK7uhT1LX3W9T210pvy0OLouR3mGw53My0CJAIZOpfhZFrvRJ/JYXOvPPmzi4+48NxO/M1KTVQ6gpXBvMtP2F08eyuBcNg7whR0BEupzurP5fYV4nqMnJYmTgRvKJfLt3WyXeubeelR/blg8tmkOZPWFCRK6gFVdmIIkOKvK0dTHlkSrd1ytled3JdLfT7PgIaQavzlRe+48FNNNUIppXmwMjH+h0zgNR1cKaU6z1HOQIO+ToCby+Xy3zvYpJfY7PJTNs8Hk68zof0EIAWpxE0HVwBAJ2DiGPeFwXM7bZlz1ss2lSFxkNiBof/JuVecPGLGe6VUYxpgpbTl1SfPAuRgiTIMOhmCgQ+G9Z/AA4wOGirVKQNBsA3BQxqVEfD76FJi0U2vOW2GZ3AlQ39fKUdjCqw2RCcQj16cz+Uy3xRKbVU0fe+c+Ved1ijrvVJqBBpgpRQ57zW0/oy0HSCtB4g8I9XoYleJznHl+D9clFyORAYBhO1trVIKAJzHkwD0jfR7AR4slUq/7mCT1qtcaOPk28zZPaWcYSVypjqApkfcnYCGVsR9df4N7821tF1KbQR0kntKniT7wIycAHp9tB4kSn5HRGc8ecSPF67/u3lXnrIHKads1T/bf1TTNSjVNgMDA9NdVH1Po5mmFFwAoNixRq1n3lWnvYPWP0bKvbtgRqIEDLw9kudxBICLu90epcYTHcFKScCdUt0JeoREyVLPyAkbBlcAsOiIC+5YFK35wKN/n9a7vapSE4DE1aNAzhnx9yIrxJifd7JNQ3a49OxAxH1mvCwzIuQUnH22Xi+UykBHsNK44Wwfq57aPM3jQfoeJIl/98ThFy4fsZCuHlSq3UIRnN44gOElxWLx6U41aH1rwmVv9OjtnmlOZ5dI7EBi7813X7JgCaCJSJVKSe9IUpi/amE/BNMk5VwGEdzX5iYppRooFII3gdytQZEyk+S8TrVnQ0zcu+CPk+7XCRj4BQL7dLspSo0n4+Qb3l3iwjyIXKqlzgJQZE3bG6WUGhGdObNhAZE/DEbRPR1qzktM+80HJxGyn8TjaK93EkzkNd1uhlLjSe8+IhThgstOn1Tx3ACNmeo515d4LjCJ8cUgEseyBGZVUqquenrmvOex/zltWoZTbw7gp50uYeCq7WzLOBEWCoWpZDQjSbwBTyQkKQlZNCYuJom3tlwur0TnJhibQqGwiYjMBZLZdJxNIwURkwcA0pXEsShGnga8p0kuLhaLz6BLy/c3kM/lcjNJbkLnpokxfR5gHJMiE5bF81YBWFYsFp8F0NK5fQMDA9OTJJkvIpsBbo6BKYhIjkCFlGICs5SMF1sbLVy9Gj2xaXChYHeF4IAGRUQMvtexBm0gXyrtAI+bwWX/aDkAkcgL00E9ApYdmMjlBIDZHrXk1JoIUKkUemKK5cxLz+zPhdX5SLAjiV0g2AbEliBmiZPJIPIELQxBElLb4kFAlAVYS2IZiAcgcpvz7PVLDv3Bvc22Ze7Vp+woifTBN7VOJALoyxw6uRjG5Eebh0XrAVH8RUfvajHy8tc3dmTCwcVHXXA/JlZH5RcKhZ3h3AGA7A1ye4jMItkPIFivnKB2jSiDWAFgMQUPi8ht9N3/Dg5GjwKotKJB06ZhUlQK9kvEHEDIawTYkuQ0jP65FxF5lsATAt4G4/6YL1ZvfBZY24p2jWY6MFDJ5XZ1wBsIebWQ20Ewm0Q/hh91TkRkFcCnCNwiRq4tFit/AtDUTUdfn91ZEu9gEG+myHYgZ41Q7wv1Q2QZwLtE5Box5telUmlpM3W3QiGX+y6JkUewRO4YLFdegxYHo2nNveKU95mc/32ppH97BEDFCTbxvfg1A/l4m1xg1iQOt60r4r5i1XqGzPo4QlAL2IY6IYOR32T6BhInj3BKvMuT+/+4nLEqpTZKXQmwZl56Zn8hF++cJMlrDcw+oOwqgs2N9QIY1r/5UgukROo9gLw0HGH9/xCgIWAMQMBV4wppbqXIeTOW8/I7Tj8vfSd69tlm7q5P3W58s9uLw/cyVE/610ogoAjk5beW9A1c7O5cHK9+1USY7D4JmOby4b+I4L0gdweQLpfF8CoieISUa4XepcVi8V40ESTk8/nNjHOni+G7CLxiDO15gQCP0MkvnDHntSN4mDx58tSkWn2TwB0GcB8AC8Z4yt/7QXjM6tWrV6U9oC8M3wjyQyDeAqDpvEcispzEhTD+twYHB0de7NEG+Xx+DkX+SWLGiO2jnFosVi7oZLvWN/eKk79lcvaDaQMsIRFag6MnD+CEmVOwqfXBemdYdBJf/uya6GvLng3KIp432rnwwgiY9HvGTfNNkiMlFsGqxPlrnHjwDDyRlyY99QiJ3dMMgh0WHfL9nhipVKrXdewR4YJLT5schW4/AofBVfYVxwVeaDm04SicINOKmvWCLnFD92IAyZAe9we4/4rZ7i/zLzvpY08eddGdqc9LMTDgi7dyXK++tOdAbahtuJDMAIBMhLlvplAIT4qF/0pg6xaF6iGJnQDuRHEf78vlThwsl3+RpU35fPg+I+6zMJzTyrsHAlvD8Gwj7pR8PvyvUqnyA7Tg8WE+n9+TIsfH1fJhAOe36p5HgP3K5fJUAKtGK1soFDalc/8F4j0ARrtGj4q1Ea/PiEuOLhQKHy0Wi9eN9Zyp6xY5rlFwBchiW6xc3qn2DIfk/JekfBna3WG40XHfgJFbe/LUSb/+6Ozpz5chW1ec2ycI/XylEsMj/ONnTvFmWa/ysSeXIwa8kTqXighCMnl9fz4+aEq/7NaXNzN9zwSGAtKuThzuWltafsmzq5/532Jpjgnt9Bf2RKzdZ+bjCP1AbzwKVqrXtT3A2vzqk7cyNKfEIkcZYxbAM0DsIM4hyxB5avJioMbA30+AP8391cknLH7nhdemOx5Sy3481nY0+neO60eDuVxuvgd8C4LD2lhNAMq0tIUnA1OifP5cQo5u67gsuZkBvlvI5fb3g+D0NWvWPNfMaXK53D4G8hFCDgURtmEwuYoUn+J8Pr83xP0QxHatbgCBrSDuir58+LHBUuU7rT7/MPpAnDxKmR+v7maAcPbZBrJkDuSF3R4gkRsE4GjNAFBLiwAADDxI7JaSctynX/vVvwxtCrj8iS/uFkXJV3Ohf0C5EqMojm+e0h+eVY3L//HUylxgXjpy7gDEzsnrBwrVM2dNxSv78tY3NLHURv893yCqJn+dG9rvbzNj6k1H77HVii2u+ttsqcQfguFptF6fxA4BTLhFYPJde/ar1DjT1pGUHS49OzAxrjCh/STJBRLXgipJXEdmH0k1Bg2n0ZqfzbvshNe2v8aJL5/Pv8oj/gS2NbgCUHvim6bcZGBqlM9dScjR7W7TEBLvjKPKNX19fZtkPLS/kMt9xyNuIPlOdHHbpL4w3J/iriVaH1ytxwL8dn8+bLyqrwX6crmDCWw70u8FWOs7/LDd7Whk/hYLAyFnwgAuSf6cJPGxcMkuJnA7i0uOFie3M/DA0IeL3f3ORQc9ecSFf1n/HLO2/Nxd1bz/9ko1vj4Ma/fIZREeO2Ny+KZJfZXKeqNjkQhyZHz25puUz10wx99zoBAmgCk7ATzCQdZVqvEHpy4o71fY4pM/5/T3LyZPLD95xLkLFx1xwcdEuJ/EyS0MfZAw00zSE/N2lRoP2hpgVfufI4CCVOtBVRfUNiw1k8Tzv7/DDWf2d6URE0Q+n38VxV0LYKtut2U9Ns7lLiSwX6crJriPuORnAAppjykU7CtIvB9jm6s2Zn19dhchLiHZ4HFa6wj49b4wbLSyb6yMEGc0KkDIVasrlcfb2IZRRZNdHyCPJVV37OLDLjhwydsv+uWid/7w8YWHXPTkosMvvGxQkjcidj93UXxr4KKDlhzxo2FTSWy66VmDkciHoygZNKY208IYmk/MmW6mGhM71B4JviK01Yu23DR5z4zJOSG8iqsN0HueAQSrXeTeMeMVn/kOOfwq7MVvP+/2ypryQa4SfzsRMYuSaCJMb1CqI9r/ZWH3l7lLNYHJ+bsMroqO73ZbxqswDBcYuMtIZh2xaau+fPB+EEd0q34CB/blw89lPKytKUVGM3kypiDxfkJyZgerDcXwO5MmIfVj3ywGcrm9CbyuQZEkEf6gHXVnMSUur60WKoctefv5v3xhpvp6nn37RWufnDTnhJjmwMeO+NHiRufadKvP3uuc/DoMaqNYkRNsnQ/sMTMmxavjBHsWcuUfvWIzvHIgH5ZEuP60L88jolg+MWObz/5xtDYvP/5ng4vffv6HIsf3PFmWruzbqNR41Lt5sNY3NCg9lseKTuBETtnj9tPOv2PPDCsLFQAEnuEPAMzrdkPWl8vl5ovIv3UiDVBj/Fg+n7+yVCr9b7dbkkZcDT8LYtdO10tg2ygKPwpU/q3V53aU9wEcsT8T4OZyufy3Vteb1f1HX1ZFbX7cyPY/J16WMggXup9EcXIUWAvXqgIePX2ytzJKih+bM91Os74tbzB5Pgx8lKvRbYtWz/hxlrYvOfL8X2Ypr9TGrvcCLEPQM7WVNU5qjxadCAjSN7U1Mk5qE0FTbl0DABInILHzysVuRwB3jViQyDH0AW+9gTcRSDX9Ckda78WVQRv+zjdAXG16CXw39OfDEwU4sNvt2JChfJBgMyMiRYjcJ8RCClcCgFBmULAlyB0B5DOeLzTiPg3gSPRObrMAw8yc7+uzO8Px/RnPVYXgd6D8SShPIGFEcqZA9iJ5CDKklKDwffl8/txSqbQkYxtGNDkMF0Tg4Y3ibAq+j95IGttSJhm4OXLrnrLW2zyOHRIRbGJ9+4W5szwQJhpmZaITAWn+e889T9cbTaXaqLcCLM8AiVsrktwB8FaXJPeD3hIIix7EgyTTJE52AngAiP3oe1bilIGPAAx9X8rxXhgpwPr85wVXn3KeK8ebiUtqPZMDSM6E4PhUubAMkUTx1RQ8MtwDWMYeASzBfTv0yoW4oUmTMC2J8OnRSw6rKMA/CPk7hHdCZKUzZq2IeMa4qQDn0HEvQHYHuTMyTPgeGBiY7qLqcRkX31VE5HvGyfnrqtWH8PILrumzdgfxvNNInI6XJkhtjDy4r8/uPDgY3Z2pRaP7rQhug8hTxpjVjkmFCSsAEgCeeOIb8XJOZBLpJgPcTGojjXOMMS+/gDrvY8gQQIrgXgO8b125/Ndhfv2zSZMmnRNXK2eT/FCa85GYAZFjAXw1bRtGExucQGDSSL8X4KFiufzrVtXXS2Zs8+E1yx/+4q2+7x0d11cf1pLWiBnu/jOwHirV5O6Z0veHzrZUqY1PzwRYtB4kTn6XJPGHnnrnjx5pUPQ3AL6yxRWn7uuYfJvW2zlT/ixix5F/R1kMfGPDf55zxSnb+MS7QXqjjZrREJK4c5e844e/Td+o3hVF4dEGnJ/xsCoEF9K57wxWq/ePUvYCAKavz+4giXcwIW8H+WrWclmMOEfQRdGbQc7O0Ka1Du7dpXL1mgZl3GAU3Yso+lA+H/yZMD9pdOHeQABnjgHQ0gDL0Hx7banYzGfpZa9dLpebK8ARaWNSAR51wMHFcnnRSGXqaSo+3JfLpUmRAAAg5F0AvonRHpWlMBmTp8Qov7dhIcGFAAbHWlfPIm8h8ZIVtCP1Up5vwCT5KRd8uCW7JSilRtYzARYMQSf3jhJcvWDhO86/ccE1px0SJ8n19MwrUq1SFIEAc7M2jZ7k4NIPlZAc+9L7S4/y8PxUs+82m76sr7wRwL777YenfnuFF/397sYN22KLl/3TjGqYpMxw7xvBCZlGiUSeFoMTi6XK7zIc5QYHo3uB6F4AX+vP5fZxlFMpXDXiEZS3ZssdJZ8ulRoGVy9RKlWvLhTCD0N4EdJWJHwrgH9HCyexi0izn6WXfSE8yuEAJ6c+PnEfLlerIwZX6xNjPgeXHJpqEQS5U6FgdywWo/QJgEcQheV3EBxxbqCIrITxfjbWenqZgbmnUomFBBvd/9EQpXJUMS6eEDd/SvW63gmwUNtQOUv5xw87b9Hcy0/5AkP+GGkGsQSgSNoRia6aF/RfgM1k9ydWvfz6Ns96ePg730Tp1scsnDOgEXgGDHwwMDC+rf1v4MN/fAlMYOEFHhj4QF/I5V75twA+Olob+vrstnB8Zdo2i2CNA48qF8u3ZPtrXyJZVy7fBOAmjPx5yAv46tQjMYJ7iuXsW6MUi5UfF/K54wnsn+oAYruBIHjF2trjx94jPDhtTCrAjcVqNfWFuFgsPl3I5S4DkGZ+lw/nvQkYc4BlSbyvcRFeUiwWl42xnp7m+1gYx65oPNMnDSIs6xlUo/i+u5ckvfn5VGqC6akAqxnSJ9e5YrKcHmeNthFzDdPPq+km4XbGml1kw51LfA/x0lUo/+/CWsZ6EjRSm1RvABgD8Qn6BsY3MNaDZz2YwAcCHy5nIYkb7bFdjTNvRJZ5SMCXyuUxBVcbGnYkaCAINncZVjSScgWa20BaKDgfTBlgATlnzK4Aeu4C1t/fP8PF0e6pt9SkXIysE/aNXAdJN4GekH0AfC3T+TfQF4b7gdyzQZEKPe+8sdQxHtBgtQCrDdnnGrxlnmeAiHfsv//wOa+UUq017pPGLTnowudIeYQj7sC1Ien6ov5UiEhih/V/ACB68lkM/vEBuHXrxQueAdf7MZ6BV/8xxoAeIYZIPIPEM2Bg0y0BB16dur0iS/0gODfbH9mchHwF0m9GnCTC3zdblyNvFmB16gNEdmq2rnaK43jrDHmvyjbBn7PWQfr/Jyn2PgQAIXfAGDaUrp0DZ6DR41vBHwYHB1u96KDnLFlbHiS5miOsXH4BAYj8syONUkqN/xEsAIDgubbuP9cD6BtES1ejeONDtT0c650pfQNYD1zvpzZq5cPY2mNBWg9J4MMFPhhamHQDEz6FO6Z+Xck/NLsvX1ZisEX6x4OyyvP8x5qtq1QqPd2Xyy1MmzdKTE9luX+BEdkBTJkxTGRl5LmBgSDYJksdrlq18L1nAUwZrSyBzSaH4ezVlcrCLHUM6euzO8LxoAZFRIx8r5lzjzc77oh4xaOojPbmxrGDGD7ZkUYppSZGgCVANfWjj3GoFlytQvGG4YMr43tg/cf4Hjy//ljQ+jC+gbM+nPUh1ocfeBjKQNHIwMDA5CSqbpr2dRVKKx8NNuYwO/3YK5cODg6OJfCLBfIYwZSJOTOtbOwYmvS5qkBuSvFuc97oRV92aPpHyoUKOQfAwuy1AJKYU8gG6SZE7iyWKtc3c+7xyAyTFX59JJAkDp7Ds51qk1IbuwkRYE1k9A2ip1ah+JcNgivPAEOBlfUAa8D6fCtvvdEssT4S60MCH17oA74HJCmeEFYq0+iZ1AsCjOOjTf+RGXnkjAyTg5Zj7Kv6Gm5Zsj4KpgHwgFTLLjqIczIU9pA92WpW9IDNmzmwr69vE0niYxuVEYNz0YI0EOPCffBdiPxo3wnnBDDd3aZJqY3JuJ+DNVGJwMB6Lz4WrMaAR4C15dYcevwXeEBQm8TuBx68wIMJ/RcntYcWkvNhchYM/VqAJqO/77HnTUGGeU7iJc+P6Q/OQJh+c2UCpbHWR2Jd2rJChOjFGxfB9G43YUOkNLfRtIuOJTlrxN+LLPGL4a+abdd4s3og1wfKJGm4yIcQgZOEGmAp1SG9dyFQAAB6ZnW8bNXawb88aKQSCTyvlmaCAKwHqT8arI1iGXi+B+PVHxd6BvANnPWQvPD40NS2FkocYTDqhq2eSCjpn7s6dHDERiBhhkeXY96cVoTr0u53SMCi9r3qqUSOQuR67SG6k6a2OcqJmFMbvh/ET9agM/MBe4GLOUDBJNcwCbKABOnJ+FhFrdQEoAFWj4pg3lu6e3kfAI+T+l/yuyAHIKwPLuVC5IZSUeZCIAQcgtpl3lqYEEDgQZyDOAC+hZ9w1BEZEQmQfhdl3zm/APTk1mad3pKo1+KYOgl6rWmkpE16+oJ8PjiIaLAbA7DWc7hoDM0ad2IXzyBNvlF8JQJY67EaR82NGiqlMtMAq0ctO+y8lQBWdqt+ktUMkQmNc/2jF2sNgqlHhyjsG3N9lIHUydxr83568DEMe24+kghtxkNoxJzR6K0QyDVrKpWmV42ORyJckAt9r1Jt/LHzPAMTGQ2wlOoQDbDUsJwxgxSXABtmOh1BozkxLSaCYtrBtSzztUauj5NSPyIUlNGLAZbIugwjklL/afeQV6Y5oPl8fg9AGiV9TYzw+2Ns07hDw+09b/S3igSkR1e5KjURaYClhuXF8aDzTITUAZbsDOCXbW3Ui57JUHYOaqkDmh7BIdKnOBBiJXpuBSFAYm3asiKyhoKjxPPatqRfRIxAlmc5xoi8D8SIo14C+etguXLb2Fs37uyeahMLAIT0ZJ42pSYiDbDUsEw+v8JVys+B6Zb3C/B61HNFt7dlAIwsy5CQf04+n59RKpWWNllbKMRWqfOtQnpy3zsRPpZ6FI6cRKA0WCz+X3tblV4ul5snkCMbLW5gbfQqxa7vE8eiRf+TZ7W8UxKP/me7RCDA1h1ollIKmqZBjWD16tWrhHgibXmCe/X12R3a2aYX6kqQeo4NgUnGuEaTohsqFArbEdgibXkRPthsXe1kyHT7T9ZQgOPa1pgmGOB4klNG+r0ADw+Wy9d2sEk9IYjKW4OcHyejB1iJcxCR+bLsq2Oel6iUGp0GWGokQuF9GcrnkHgfaVdj1peQjwlS56aiJDy06cqcOwxZNrw2rif3vhMTP4gMyzwF+JcwDLdsY5NSmw4MkDixYSHBhQAGO9OiHiLy2nzOWmmYoqHGOQHBTVZX447Nl1RqY6YBlmrkhkylieMLheBtLaw/HO4fy+XyUgpSZ44n5fDJwNQm6h8g8Z60hQVY7Zzpyc10Bwejh0XwQNryJKb6xNfRA7kdyrnc4WgwD04Ezwr5sw42qWcQ3C9FbAUAEBF4PgtR1cxva6OUUgA0wFKNeN4NIpIlVUQAxx/1heGbxlJtfxBs35fPXdCXy71/hCKRABn2PuS8OB9+Ims7+vLhp5BpzorcVS6Xl2Stp0OqoPwx0xHk2wu53P9DC+ZqhmG4oC8XfCyXy83NeKgnlDNGKXPJGObYjVsrHvjyAIV7x3G6NRUiQGB9gE7nYSnVARpgqRENDg4uJ3h1lmNIzoThtX358D8zXkz7CoXwoL58+BNnzN8InOxERt4LUSTjfBt+opDLpR6NKoThKQD/NVMNwK/Q+cSmqQnML5FxNSWJDxVyuSsKBZtys+sX9ff3z8zn80cW8uEvPeIO0PyPlySZkov253KvI7h3gyIVGHNe1rZNBGLi3TyP85IU86+G1BY6uG3Tlp996Ykz51xxyjZNNE+pjZ6uIlQNiTHfobh3Y4THdSPIA/yMgZxWyId/NsCNEN5H55bHnrcOgPhJMhB73lTS7UjhawXYh4JtgaF8PQDJEa8cxUrl5kI+9yCB7VK2KSBxUSEf7uqE3y6Xy08OV2hSGL4iJj9K4gxkuAGpPaYyV6Qt3w2lUun2vlzujyAOznIciUNFvP0LefMbCq+gc/8MqtWlzwFF1HJ+EYDt7++f5FxlLmB2h+BNEkf7GXLT2gaaAICo0Xs6HEc5g2Cj9+GPxWKxJx/LthuNHJALLYul9DGzc4CAqUaw5lxxyjY28C6WanwTgI82206lNlYaYKmGisXiXYVc7kISZ2Y9luQMAP8iwL+AgHimTEgVIs55JmcguaF0C01M9CkRPBeQb2Q4xif4cQM5sS+XuxWUByBcDjIC3CwId4sp+xDIvIULKRcVS+Wef0xF4KsCvAUZv/sE+gEeDeJo8Uy5kg+XF4RrCRkEYITsd3E0jfRmYCh32hhnbw0EwTYJeEijMkI3bhOLzvrJu/s2LxWqd5x+XuY9puSGs/2VwkPi5MXHg2lypCTOAZAFt99+mt1zz5Hr3eyKU9/qeTyPgb+5VJO25UNTaiLTR4RqVJ4t/7sArUg/kCMwqb7cPjfWk/lB6UeC9JPdh5CcBuIQgGeB+Bog3wT4GRBvI5g5uILIMgfz/zIf1wXryuUbRXDBGE+TAzifxE4gXw1yLwLbs5bNP11i2hScx5MIjJxSQOTOYrH6p1bV12lBf2GfFbPdr2Zd/r5Nsh773ObhAb71d4siB49EaAgPdAEbb4OeJA4GXDB/2ubDLhrY94az/blXnfwpz8OVNNhcyhEA2WL+De8d8/dVqY2NBlhqVGvX4lkjeB+AUrfbsr7Vq7FKMs6Tag+eNZ4mWRvfb1XA3DYDAwPTIY1XcJI4F2PI0N9tdPEsUwgPC/zkL/OvPDn16lt56twCDb9YsMYEgKyO4+iKZ1eXT3tiafXnK1aVDZAEZvgwyzlBmLN5l5iXLRzY/MoTdn5i9dJrjbX/DSCU2EFEIMCsaBVnNv+XKrVx0keEKpV15fKNfbncqSB+CIy8XUmnlUqlKwu53DdJfLgb9YvIN4vlys+7UXez1q1bt6JQKBwrLvkD2ZsXzjiuHm0a7SIg8pQJwstQSr3vd+8x3mSJEhjD7QXm2nlXnnIdyG9HhrcuO+y84nCHWABrys9+aY1g9xufWVW+fs0gbl1b8pZUoxAkb1ozKH9dW6p8YPbUeIdCzpIwkQBuvVwO1WqM0PpnVh7/8h35BZ/86YyrT54VgmcC/BB9b4qsv2m0AAQKjL2pABa3+RVRakLRAEulNlgu/7wQhiENvw2MfRPlVimWy58s5MM5BI/qbM3yk2K5clZn62yNYrF4V18YHiuQn7ODG3WnFBrhaQ2fdRE/XbNmzXMda1EbkC4EPEjsAMIw8A6T2B3mJ+7BuVec/Fca3A2HZY4SeULjgFmzfW/vkx9d+q6HK1W3IkrChKAlERozdFL+ae1g7tbBYnLgQF/1yBmTsH0u9Ac8z3gAaSixE5SdM/eUKt894LdnvO2+UnUfk/PnSpTgJcEVgPqsLs9YSZ9sVykFQAMslVGxUrmoLwyfgOF5ANq6cayIpP18VoqlyvF9+dxaACe1s01DRPCNYrnySWTIjt5rBiuVPxcKhbeKcz8j0ZFtjtIoFII3QbBbgyLrPIcLO9WednGCohkaWBJAqglAwPhmO3imtjpWBF69jDHEchEsKZZhAFgz/M7XIYlY4F29ep3369Xr3Bxrky1DP55p/dgQsiKK/cXVmE9V434XeMf4vgepbBhYDSEAJC4av49ileoWDbBUZoOVyg35fH5fSvIp0JzMNoxmCbCGZJYJ7OXBUvnkfD78XwrOIZl54nBKCyH4dLFc/mWbzt9RxWLxzr6+vv0lic4mzalo7+NfixR5wujMmY1GrwRyzZpKJfPihl5DmnUvezkEtRGtBps3p3mDiFqgJYBZGsdmcRTB1bd8MgAMCQ8Aq0njN6SWMmWdsZkSDiul0JFJ7pJn6CPND7Ls+bYegmGGOjKvhhFHQ+t5aeuQFq6k6lWlUmlpsVz9EGjeAMH5IrKiNWeWRYB81Uvcq4rl8k+yt6vyg0TwahF8p3VtAgBZDMgXYby9B8cWXBlku7Fp+2dpcHDwmWK5+n4KDoTIVQBaOrFJRFYK5FKC71xXrT7eqGyhYHcFcUCDIokR/qCV7esaYhmS9ualJWofoIBErv4TkPCRLosGjQGJJzfZ3G/hd0mpjUNbR7AezU9L5paL33OleOZLZlkOQwQU8MZm6hHI5a4UP4q4cW8liSOAhh38cPycWS6l5H9AR6BxnkSppVJ8KGsd41WxWLwDwGn5fP4c0B0EwQH1zNubIl1y0kERLARwM4y7zvdzt411bk2lUlkI4IP5fP7LhHs7hG8VyB4Z5xo5iCwD8DcRXGes/fW6detWjDX2EPGXE+5rkubmRkB4Xsc+S+vK5RsB3FgoFHanJO+A4M0gdwKQz3AaEZHnQTwE4d8Neasjby2VSk+lOZjOOw0c+XMjkFsHy5VbM7SnZ4njE5CkBJo80m4o2Gk+gVj+ckeDnFlKqeF1fSNXNfFMBwYqQbC587GlEW7hhJNIGUDt6UZVhKshsoLAIg94ck2lsgQtHjXZUH9//8w4jrcyItsZj/PEYY5Q+iH1EU2iTOFaAZ4C8KSQD1hbemzNGozridRj5A0EwSsSH1vTme0EmE+iX+pbGJEoQlgUyiCFT5HuiQTeYpJPFYvFZVkry+fzcyjubpLTRywkeNdguXzxGP6mnrHvDWf7jz+/5O/GertLg0eCXUMClEjEvXbx2y+6vdvNUWq80QBLKdUTCrncWSS+MtLvBXikr1TefQWwrpPtaqd5l5/y3yz4n5LySJPMu4c5CylWL1p05IUnd7stSo1HmmhUKdV1s4A+EI0v5IKLJlJwBQDi42eukpTruzD3DIY+pBLdGyTuU91ui1LjlQZYSqmuW5fLHUzUNvsejog8J+RPO9mmTlh8+AX3MXE/qi/A6QnM+ZA4uS92OPLRo3+ok9uVapIGWEqpbjNCvGzrlvURvDTtRPnxppp3/+4q8QMMmgyyDMHAq61i9k3TEz9oPdB6kEp8BSIeuPQdFzzc3JmUUoDOwVJKddlALvdaR9yEkVNSVIXJ3sVidGcn29VJW1x++q7Od9fSenNHTvr5cvQNXOzWQOSPJAYB7grDXekZSJSMfgLDWlAmgCTuLoh8bdHhF/wCHD1fmVKqMQ2wlFLdZAq58FKSR45YQvDbwXI59WbI49W8q07fAXQX0HqvQewgSeOVhQx8SBQ/AsGxi4644A4A2OHes4N1jy47EHBnwZh96bGWuHQoDQQJGgJeLahyUbwa4M0Q9zOJ1lyz5OjLempDd6XGMw2wlFLdFBQK4fEU6RuxhLHXDw4O3tPBNnXNrJ+8uy+cnH8/gNPpmQUggcRBnLwYJBmCgQ9XiR/wqskRC4++6OW50i49ypsbTDmYxJki8hqSkyACEVkN8EmCdwjlL0a8m5484tyFHf0jldpIaICllFI9ZsGlp01OQvc2AY4Qxz0BmUPPhAQgImtEcI1L5NNPHXnBktHOtcWvTpqfeGaeERdHdEuWTpm/DPuf03t5IZSaYDTAUkqpHrbtVScNlCBzQW82xYjQLVx0+AVPdLtdSimllFJKKaWUUkoppZRSSimllFJKKaWUUkoppZRSSimllFJKKaWUUkoppZRSSimllFJKKaXUhKeZ3JVSSqnOmhEEwX4Zyt9brVYfbFdjlFJKKaXGPd/332CtlbQ/vu//e7fbrLIz3W6AUkoptZFxGcvr5tzjkN/tBiillJpQckh/8y4AyvX/VWpC0QBLKaVUqxjf9y8BsEvK8qvjOD4AwMo2tkmprtAASymlVCvNI7lFyrJrAXhtbItSXaNzsJRSSrUMySzzhXRukZqwNMBSSimllGoxDbCUUkqpzsp67bVtaYVqK52DpZRSSnVQHMcPWmvfm7Y8yTvb2R7VHhpgKaWUUp31TBRFP+l2I1R76SNCpZRSSqkW0wBLKaWUUqrFevkRIQFMCYJgpnNutjFmpohMF5F+vDjhr0xylXNuhTFmaRRFS9CdhHW5XC43K47jzYwxc5xzmwCYQrIPQAAgIVlyzq00xiwWkSeiKFqIWg6YbvMATLPWbuKcm1V/nacB6EPt85EAKJF83jm33PO8p6rV6lIAq7vU3um+729FchuSW4rIbBGZghezR0cABkmuFJElxphHATxcrVYXAqh2qc0AMN1aO5/kFs65zUlOA1BA7XNeFpE1JJ8WkSfiOH4MwLJWVh6G4RZxHG9PcjuS80RkJoA8aq9ZleTzJBcDeAjAPdVq9VHU3vtOm2qtnUdyvnNuHslNAUwTkUkAQtQ+kxGAtSSfEZEnReShJEkeBrCkC+0dMtP3/e0A7DD0uQTQX29vDGANyaUAHgFwTxRFDwEY7FJbc2EYbhbH8ZbGmHkiMpvkwFBbRWQQwLPGmMUAHq1Wq08AqKQ8t0O2bWAEQClT68dmvPYf7eABmOP7/hYk54vIpiSnoHbNciSLzrnnjTFPicjjURQ9itZeswrW2q1R+85sJSKb1d+LELXPRbH+HX9CRO5PkuQ+AE+3sP62Y7cbMKRQKMyuVCrbkXwlgF1JbgdgLoBpqH34R5OgFlw9COBGEbkujuPb0Z4tGPp9398FwOsA7I3aB2QOgIGUx0ci8hSA20n+OoqiPwBY2oZ2bsjL5XKbR1G0Y/113gXANvW2T0W6lSoVEVlO8h4R+bMx5jfVavWhtrYa2MxaezCAQwHsAWA2sn12iyLyGMm/OOeuTJLkFtQ60naa7Hne7saY/QC8HsD2AGYiXVLFZwHcAeCnURRdjiYvQGEYbpUkyZEkDwWwM4BJKQ8tArhPRK7yPO/iSqXyRDP1pxT6vr87gANJDr1Os5D95m8VgHtF5HfGmCur1er9LW7ncKZZaw8F8E4Ae6HW7jSS+ufx9yLysziO/9G+JgIATBAE24rI60RkPwC7k5yL2k3UaMr1tl5njDm/Uqk8NvQLa+2uIvI6vLSPNQDOIjkvZduKIvIfANaM8HuS/GsURXelPN9werH/IGqBDDH6NYqoBXdZ9y98mVwuNy9JktcC2F9E9iK5JYApKQ5NRGQRgOsBnB/H8d+bbILxff/1JI8WkTeRXID0KyRXAPgbgF9EUXQtuneDklo3A6xpnuftYYzZH8A+AHYAMKOF548B3Ezy69Vq9bpWnND3/b1JHiciB5HcqhXnrHsGwJUAvh9F0T9beF4A2CwIgr1FZH/UgsFtkD4QTGOdiPwawNfqAW0rzbfWfgTAuwBs0sLz/h3A/4ui6DK0dpSmz/O8N5B8J4A3Zshm3cg3oyj6SJYDwjDc0jl3FoBjka7zbOQ5AOdFUfTV+n+3yqa+778bwLtI7oLWTlcoish1qH0m/7eF5x0y4Pv+GQDOaMF7HInIFcaYc6rV6gMtaNsLgiDYwTl3OMnDAOyGdDeqjTzl+/7epVJpCQD4vn8Wya+MtZ2jEZFPxXH85SYOnW+t/TCA49D6/uObURRdiub7j6nW2mtEJNU1z/O8j1Qqld83U1E+n988iqKDSb4DwKsw9j6h7Jx7a5Ikf8lyUBiGb3HOfRLAfhhj7CEid5P8ryiKLhnLedqt0wHWQBAEb3TOHQVgP5KbdaJSEflpHMcfRW1kILMwDLdMkuQbJA9Gex+rFgH8OIqiL2AMQ6GFQmHTKIreBuAI1IKq6S1qXyNFEflKHMf/iRZkZ7bWnioiXyA5uwVtG8nvSH5srBe2XC43N47j41ELFnZoUdsAACJyRRzHR6Ytb609WUS+2OrXTUTuAXBaHMd/G+OpPN/3zwTwryQ3b0HTGikB+E79+7SuFSf0ff91AL5VHwFupWcBnBVF0Q/HeB4bBMHbnHOnkHwjao+hWyUiufPQiLXv+x8l+fUWnn9YIvKJOI7/J8sx1tpT6v3Hpu1qF4Dfk/xok/3HDGvtQ6g9oUnjmKzBhO/7rwVwan0Eu6XXAJJHVavVX6UsPs33/S+TPAktnvctIj+qX9tXtfK8rdKpSe4F3/f/1ff920XkKpLHdSq4AgCS77HWXofa0HBmzrnXkTwc7Z+zVgBwhu/7N1hrd2/i+NnW2m9GUfR/AC4AcDA6E1wBQIHk533fvxC1oe9mBdba7wI4r83BFQAcJCLXB0HwtiaPn2Gt/c8kSW4n+cVWB1d1ae+QrbX2mwAuaMfrRnJnkr8JguCtYzhNn+/7PyX5rQ4EV0BtjtlZ1trfhmG45VhPZq09keRv2xBcAbXv6UW+73+22RN4nneYtfbGeh97CFobXAG1z2I7ply00lD/cX6bgysAeIuI3BAEwcFNHp/lMWPq1933/VdZa68ieSPJE9Cea0Cqx5VBEGxtrf09yVPQhniD5AnW2qvR2hHKlulIgBUEwVySXya5TSfqG8He1toformLf0cn+5LcTkSuCoJg2yzHWWvfAOBDaDKQbAWSx3ued06Th3u+7/8AwJmtbNMoZovIpUEQHJbloDAMt/R9/2YAn0H3v9ye7/vfR+29b6epInJx/c44K+P7/vdIHtvyVo3udUmS/CYMwwXNnsBaexqA81GbuN42JL/o+37m99Fa+xVjzNUAXtOGZo0X3eg/ZonIJVn7j3ax1h5P8gYAnRgQaCgMw62cc9cB2LPNVb3BWnsx0s0p7KhOpmkod7CukRzk+/5J3W5EGiTnisgPkCEgJNkTd5fGmI/7vr931uN83/8UyRPb0aZR9InIj6y1u6U9IEmSufWFGF1nrf08yZM7VN1kAD9CbcJ+akEQHEry+La0KAWS2znnLkb6if4vqI9wfhvpFiiMGcmv+L7/hoyH7deOtownvu9/crz0H230GrR+5LIZU51zv+zgoMobrbX/3aG6UtsY82B9HK2d5N1O+1lrU8+/6SEWwL9mOcD3/b1Ifq5N7UljKoAfoPZYKY0xr+hpBc/z3gbg052sk+TW1tovZDlERE5tW4PSe5W19vNZDsjn85uLyLkY22PvrEIA30K2O/KJlkIgk3r/8W9dbELW/iOrtPOl2706OhXf97+K2orNTjrT87wDOlxnQxtdgEVyqyAI9ut2OzI4HePwfSJ5YIZ5L4bkf2Dsq5zG6tW+73dqJKgVJpP8HzQ3svKciCwUkcVobrnzidbatB3oJNRWsfWCM7KMNERR9J8Ampkvtk5EFonIQgDPZz2Y5K7jZbS9BxiSX0Bv9B+ndLkNXed53kFNjiTGAJaJyBOoLfLKuljKM8Z8AZ29GWqolxONDimJyErUOqkYQI7kTGR8RLE+ETkIwLUtat+QNSLyDMlnUVsNaFAbOt6kPtmy2d3Q9wrDcItKpfJ4y1o6vLX113k1ahMq+0huguaX9PY7594AYNQcSr7v7wMg852HiDxA8vcA7nDOLSMZGWMmOee2JrkfgDci+5yZjwL4CUbOyzMWJQCDIlJGbcRhaG6fB8AnGaI2elHAi51EONLJfN8/NeNjSicil4jIj8IwvKdYLK4DYMIwnO6cezWA9wFI+2gqFJGPAnj3aAXz+fxAHMfNzI+IRWQ5gBUk16H2mlkRmVqfJD+liXPmROTjAN4zWsF6Wpasc8b+CuD7xphbK5XKswAkn88PVKvVHUm+t36+tDdMH0LtcWw7EhLHqK2sLNc/jzFq33ui9lkMUPvs5fBiQtyhZJw9pT4n8MCsx4nIgyR/h+H7j30BvAnN9x+tTsTcrhX/DrUbrKKIVFD7jg19DjwAQf2zMPQ5GLqZG+mmLjDGfB7ZPifLReR7JK+JomhRvQ2htXauiLwNwPvruRrTeE0QBG9uVWqmserJAEtElpC81jn3R8/z7o2iaDlqF6cEtUBlsu/725I8GsAJyP4l2B3pErw1UgXwfwD+5Jy72Vr7ULlcXoFacDWEAAastQtE5M0ATiKZaeI6gIKI7Aag1QGWiMj9JK92zt1Yb/9K1ObKCYAwn89Pr1arryT5nnpup6xf8lcB+HGKcicg2yjMWhH5XBzHF2Hk5fffsNbuLCL/XU+vkQrJBdbaQ6Io+kWG9owmAvBukndWq9XVqGXFjvHiY0ZT/7H5fD6fJMkk59xMkluRLI5wzknINpm3iFqahZ8DQLH44mkrlcpq1D5fl1trvwzgI2lOSPLQevC/sFE5ESGyfXZWofaI7Oo4jh9HLcBYf6FJkMvlZiVJ8joAZ6CWyDU1koflcrl55XJ50ShFP4xsN0Zfi6Loc9gg63mpVFqLWiLhP1prf4faZPlRR1vqo+0HVavVyzK0YVQkfyEiX/J9//lSqTSI2ufT4cULq0Ht+xiGYTjgnJtCcnPn3FZBEDxXrdaeRsZx/Evf9/+OlycavSBD4L/WOXcsyZFyrDGO44WjnOMEZOs/1onIZ9vUf2xprT24xf1Hu9wB4HTP81aWy+WhG5ihlaJD31kfQBCGYZ9zbrJzbtP6NezB4U7oed6BAF6dtgEicqcx5tj6zgbrWxdF0bMA7grD8NIkSS4juVuaczrnTgOgAdZIROS9cRxfDwBJ8rIFfBUAz8Rx/AyAm33f/zmAi7Mk/BORzVC7QDVzl7EUwMWoZZO9C/WL5DDtBGof1DX1cncBON/3/a/Ul6ym5pzLGpSl8VwcxweiviXLMO0v1RMKLgFwrbX2WNQuDFlGIl6RoswUkm/OcM6Sc+64JElGHYGMougeAO/wff9CkqOOtAwRkWMAtLKDTDzPu61cLi8erWCpVAKApwA8AOCmkcoFQfAWEUmdeqCeS+jnoxSrRlH0CWvtzqjdvY9mUpIkhwD4Ttp2pJCQPKlarV7ZoEy1/lpeDOBXnud9zhjz7xnqmBTH8dtQmzMzrDAMt3DOpb6wisgv4jg+a7RyURT9rL49SKr2OueOAdDSAEtEHoui6J4oGn26TqVSeab+n3cAQBy/5KnNsjiOX7alk7U2y4hbnCTJrWjiMWrdZJJvyVC+7Jx71zjrP4D2jGCtjKLojpSfgxX1//wngN+NVK6e6yoVEVnmed5R6+8OMELdj1pr3wvgFqSYP11/ejEfwJNp29IuPTfcCwD1xwGp1BMfnoAMqxRJTs7n81kmulvURgD+y1q7ZxRFn6jnmso60fn5OI5PF5GrsxxEMu0WHFkkyLAFSxRFF4tIphw99f3uGnYMnufthmxzXL6dpnNcTzWO4w+IyLB3XMMh+RqM4RH0cESkpfMC6sl607opjuPzUpZNnHNfRMrUJPV8S620zlp7a4byUZIkZ6NBsDSCgxr9MkmStyL9Yphn4zhOvdAgiqJv1rfKGhXJ16G1O1wA7b2xNsgeDDT93fA875UAsuRUbLb/SJ1MtN5/dDt1Sxotvf7n8/k5JPfPcMh/jxZcDYmi6G4Ao90gDhmw1mZpR9v0ZICFjO2K4/hGEcmyjYB1zqWeECkiD4rIgVEUfbZYLI51E15H8mxkCAhFpF3LbrO+zueLSKovRF0eozxiIZklncNqz/O+m6H8C8dlzDg9w/O8XZuop1OmkNwnQ/nvIUMutyRJ/ioiaffy2x2tDUbFOZd50n4URWcj2wbZr0SDAIpkwwBsA78CMNrjxvU9RzLtI4xNPM9rJunwRqHef6QN6FZ7ntfMaGsz/ccuTdTTSM/sGzyS+h6HU1MWX5piRP0lROTnSDmoISJvzHLudunVACszkr/JUlxEUv/tcRz/PY7jLHfVDdWHnu/LcEivfLmKAG7MUD7N3exuGc53S4p5M8Oqbw6aei+9tM/7u8H3/R0ApM1SvSKKouszVhGRHPHx5AZm+L6/fcbzt8MzAH6ZtjDJTa21W4zw6wFk+FwaYxo9zhyp/j9mKPuqrOffiGS5EfrrGPqP65Ct/2hHtv+eVt/4O23Z65Fxb9M4jv8pIktSFt8dPbCacMIEWM65dq+ySyNtIOQyjgT1RALRukdaeC7D2m7qqYjILWOo62nU5g+k1QtBw0h2QfrP2p2o7UKfVdrXmgB2auL8LeecuwbpvyuW5LBzBOuBV9pVSysrlcptKcu+wBjzD6R/RL9b1vNvJMxI7+FwROTmMdT1NGrzaNNqdf/RKzfZjaQOdrPcYKxnLcl7Up5/Xi6X69qOJkN6cpJ7MxqstmqHft/3dwWwJ2v7z22G2tCoRW0Isygiy0k+SvJuAP+sVquP4aWPaVK3t1cytNc1kzNpJENpLFIVFpF7x1jf3QBSPZsnOW+MdbVNltQMIjLLWvtFZOugRUS2TPu+kOyJYDRJkvuMMSuR8pGlc27+cP9OcoGIpO0baa39DDJup5UkSR7pg8EFqK2S6+iWXeNAIWP/keWpwXDuRi31y6h6uf9okz4RmZ/hvXiLtXYbZO+XNk9Zx0Acx/OQ7dF9y02YAKsTwjDc0jl3mogcSXLrRmWHPgQiAgBFa+19JH8tIlfUHxFmSaLWSwFWK/WTTLt1SWKMeWqE1ZqpiMjjGTqAGejRi1qWjozkrsj2GGXouCzFhw1UuuC5eoqXVAEWR9gM2Dk3L8PfPx3AJ9MWbgZrm3dPQvMr7SaqAZJpFyK4Dvcf09Ha/qOnR7Byudy0JElSbypN8l3N1JOlX+qFIFcDrHTo+/4HnHP/BmBmxosPUEvQtpeI7AXgk77vX5UhcRowQQOsMAwLzrkRE2luoGyMGVPyT5LPjF7qBQOoPcNPvdKyU0i2elXZWM3C2PPKtUICYHnawvWL4Mu0adXuWEwKw3BKpVLRAGs99f4j7WKlsjFmTMk/SWZ51N6z/Uc7JEkyGb2xB+ILRCTLNbYtNMAanW+t/RZqCQ1bId9EduhuX7jaQkRCpP8MxpVKZUydlXNunTGppx0G6M3vhyci/U0E+W0jIlNQe70qoxTthCwX0ZFyuk1uRUNaKO+cy7xJ9URXT32S9jsaVSqV1Cu3h5Ox/whRmzLSqgCrd77wwxCRAZI91V/2wo3ohJnk3i7W2v9A64KrZk3UACtLzhyHsW+wnGW4fii7eq/x0AOrYzZQQPf3gRuSJcgbNoWIiLRrw95mGREZLxvUd0wT/cdYH9dlmdYxlBF/o1C/We41Xb9R2mg+AM3wPO+NAEbNztwBEzLAIjm0PUcaQ9t3NM3zvCx3WK0I6Nqlp+5mSVo0v9dmq2Xp03rqdWxERHolgO0Z9cU/new/snzGBa3tP8bNZ7VX9MKNkgZYI/OMMf+GMX4pW6RXL/RjQrKK9HeFNgzDMV1kRCTLY5Ysbeskh9recb2kD73zODXLPJDqcP9Y/1z2ml4cIegqkhWk/y7YMAzHdMHNOIpYRe99T9uGZC/+rc1sMN9SvdIp9hxr7a4AUidOW89aEXkEtX2QniNZFRELYBrJzVBbcZU1P8eEHMGqVCqD1toK0l0Uc865KWOpT0RmZ5i7tAYjXIC7LM6ylVQ9Md/NaN8dMFF7rXpiMi/JLCuZRpqvtSpDlUUR+S3aezHlWFfATUTr9R9pLqS5JEmmjKW+LvcfPT2CRXItajekaWOKv4rIqHuzjqVJAP7axvOnogHWCETkgIyT9laLyFc8z7ukUqksxMjP+2f4vr8jyS8BSLtNzIQMsFALRteQTLO9gnHOzUN909lmkNwmQ9mV6MEUDQBQz7GWqizJ5VEUNbUkehzKicictK+Nc27YFYcisizLIgLf9z9eLpe7vrHsRmhdvf+YlqKsEZG5AG5vtjKS22YouwI92n+0g+/7z8VxPIiU855E5Jo4jr/S5mZ1nT4iHFmW/b9Kzrmj4zj+r/rmlY2+WCvreydmSZo5UQOsQZJPpy1sjNltDHUZ1PafS+uJMdTVViSz7AKwk7W2JzKtt1sYhpvVR4lTMcYMGxRl3GWhEMdxln0LVev0bP8hIgvHUNdwenoEq1QqPSsiqdNY1DeJ7+m/qRU0wBoByc3TlhWRa5Ik+UPGKrKMjk3UAEvqj1PT2rfZioIg2AYZtnRpQdbndsqy5U8I4IQ2taOnOOdeg/RzsEREHh7uF77vP4wMjzxJngh9GtANIiKPZii/L5q8qAdBsDWybQk11l0nxpsSyYcylN/b9/0Jv8emBljD80Qky2TZdj/rnagBFgD8X4ayrwqCYIdmKkmS5DgAaSe5CsbwKLLdSN6ObOkITmn2dRtPROS4DMWfjeN42ACrUqksynjhfrW19j0ZyqvWyfI9fZW1tlP9R5Z+LY2eH+0RkVszFLcAzsEEj0Em9B83BlmW/wLtX202kQOs25B+lWTeOfexrBWEYbiFMeb0DIc8Fcdxz96BVqvVR5HtDnmyiFyI2rYurRDm8/nUI7yd4HnegSQPyHDIXRh5E+wqyeszNuGrrbwjz+Vy89AbK5jbzcPYRv8y9R8ikrn/yOVy85voP1JtSjzB/AkZ5p2RfIu19t9bWP9MAFNaeL4x0wBreI5klk2Ns8ztGZIlaJqwAVYcx3dnmfNC8r3W2qMzVFFwzv0AKTcABgARuR7ZMoJ3WiwiV2Q8Zm9r7bVjmY8VhuGWvu9/xPf9W+M4/kyz5xmFWGszZdwOgmBbkj9Ahgu1iPxmlN//CtnSo0wnebXneYdlOOZl57DWHuP7/m+TJPkVNo4Aq9/3/ab3jIvj+J6M/cfxWfuPJEnOBbBJ2gPa1H/0/AhWHMd3icjdGQ8721r7NQD9TVbr+77/GmvtN33fv9PzvD2aPE9baIA1AhF5Km1ZkkcGQbB9xiqydJ4TNsACUCR5TYbyPoALrbWnYJTXMAzDV1hrfwXgLVkaJCI/y1K+GzzP+wVqS8GzeA2Am6y1X7LW7ozRP4M2CIKtrbWnWWuvdc7dSfIbJHdPcWyz+srl8qkA0mxz4QVBcKRz7vckF2SoY53neVc3KhDH8d8A/D3DOQFgtjHmCt/3L/Z9f1+kmA+Wz+fnBEHwDt/3L/J9/58ALiZ5UH2Kwnj83jtke3xtALwfwwcQDILgUM/zDm1wfJFkw/dyA0P9x6lI139chuz9x8+zlJ9AqgAuauK4j/u+f4u19iQAw27AvoEB3/df63neOdbav5G8BcCH6gtceipnpE7MHIEx5i4ROSZl8WnOuUuste+JoijNBOQpACb8BL8MfoxaJ5s2kWg/gPOtte8RkUsA/MP3/WfK5XISBEEhSZKtjDFvdc4dgwwjV3X/SJLkxozHdFylUllorf0xgA9mPHQqgE8C+LC19j4RuccY84Rz7nnUOsg8yZkisgDA9iKyNYYPFNp18Q9E5EvW2g+IyJ9J3iIijxhjVgCIRKTgnNuU5J4kDxaRvbPuyygi11YqlcdHKRaT/JqIXJ6x/R7JYwAcU58sfzfJR0TkGQBl1PrcaQDmkdwujuPtUBv92vA8PXWhyGhllsIkj7PWTgZwqXNuued5BefcziTfIiL7kPw0gGsbnOLHAD6AbP3Hedbad7ep//hLxmPS6PkRLACI4/hnvu9/jOSWWY4juStqge8KAHcDuL+ew28dan1Nfz2A2kZEtic5n720IesINMAagXPuxvpWLqlG+UjuDOAv1tofisjlQRA8XiwWi/XjgzAM+5Ik2QTAriRPBrBdhrYUm/kbxosoiu7xff9XJN+d8dA3kHwDAJckyaC1NhaRnDGm6YzNzrn/RG8mGH0Z3/e/EkXRUSSzJq4FahejPUjuISLYsK/qgb5rc5LvBfBekhCRCLWgwzPGjKXfqpD8WpqC1Wr1at/3/0Dyzc1UVM+7tk39v5s5xXg17OKBURwC4BBjDIb5PDZM4hpF0b2+719GMutCg3b0H/+FcdJ/tMkqkv+B5kaygFpA+yYAbxrpOzOevkv6iHAEcRz/n4jclfGwKQA+SvKWKIrutdY+YK2931p7r3PubpK31eeK7JXlpMaYLCuaxiXP884B8FyThxsAA6iNzjTdOYrIZUmSNLpT7imlUmkJyU92ux0dYlFLOTHWm8ILoihKu8IrIfkxAM+Psc6NCsksq8lawvO8L6A3+o8s0x2yGDdRRRRFPwGQ5bHthKUB1siqJL8xhuOnofY8eTZq80ma3RdpnTGm6yn/261SqTwK4FPdql9EHonj+CMYZ/Ne6p3Z97rdjvFARB6IoujsLMdEUXQfao9hx/Mju46qVqu3ABg2S3671PuPrt1siMij47H/aJMkiqIzRSRLXqwJSQOsBqIo+qWI/LrLzfhFpVLp2azirRRF0fkA/l8Xql5O8lgAS7tQ95hFUfSx+lwSNbJVAE4E8GzWA6Mo+rmI/GvLWzRxrQTw005XGkXRBQDGclPcrOUA2t1/jJsRrLqlJI8CsKjbDekmDbAai621p4lIlszZLSMid0dR9G/dqLtboij6BIBvdao+EXlcRA6LoqhnE4umUInj+AQROb/bDelRa0m+J47jrKsCXxDH8f+IyPtRm6iuRhFF0ddFpOMX1yiKzgLwzU7VV+8/Do/juOk9DieqKIruAXCwiGyMOcEAaIA1qlKptNT3/UMBZE08OFY3ep53OIBnOlxvtyVRFH1YRD6I2qhDO13ned6b4jj+R5vr6YRyHMen1YOAzKM0WYlI0O46WkFEnnTOHVGtVq8b67niOP6ec+6QDm2jlHZFXK9aJiKnAuj0Ap0kiqKPiMgH0P7+49ee5x0wlsA9g/E2ggWgtgAhDMMDRKRTI5o9lTuuUwEWAWTpkJv5MGU5JshSvlwuL46i6GAR+TSA1JuLNkNEHhWRj0ZR9NZKpbIw47FZ3s9mL5BZPsC2yToQx/F3ALxeRC5Fi1fliMj9AE6MoujtWV/j9bTt8zYWcRx/j+Q+9Q6tHaMtMYB/GGPaNZk3QYZs0A2IiFwax/F+SZL8uQXnAwAkSfLnOI5f75z7Ato0z6i+Tc8Pke11yPJd68hFKEmSP5B8F8Z+k5j5OhXH8XdR6z8uQXv6j5OiKDp8jNM3UvfBGfr2LItAmu6fsxgcHHwmjuPjnXNHAGjXzewqEbncWtvMCta26UiaBpJlEbk97V1vxizqQ8esS7vqj2TVGJP14lOO4/hL+Xz+p1EUHVt/vrwLxn6nGdeH0m8zxlwVRdEf0WQWYGPMc0mS3JWmLMnn0MSFjOTyDKsrn8QYJn1GUXQvgH/xfX8vku8WkbeS3ArNBSvPi8htJH8Rx/E1ANY22y6gI5+3plWr1YcAHG+t/bpz7niSh5DcegynXAHg3nqG6t/FcXwX2rc91Grn3PHGmLeKyKEks2b5Xisi14vId5Mk+WNbWgg8nyTJ2UEQnB9F0TEkjwawK5q/aVmLWmqDm51zv02S5DZk/HzWL/pp61+SsX1Nq1arVwdB8LCIfAHAYcj+GjmSmfJqDan3H8f0Yv+B2vfnThGZlqZwPQ/cqETkSdS2gRoVyQfTlGuVJEmuSpLkN0EQvM059x6S+6L57btiEVkM4B8kf2+MuaFSqSyM43bvWpdNJ4cdmaG+ZlfspI3ys+41OBwvCIKtRWQPALuJyNYkNxWRyQAKJH3U/t6knsOnVA8cnxORZSQXAngQwANRFD2GWkK1scryGjf7GnSijpH0+b6/M2ppLnYhuaWIzAQwQDLEi693keTzIrKE5AMk7zDG3FEulxe3sC1AZz9vY9Hv+/6uAPZGLQ/bliIyHbXkfT4AV/+MDpJcKyJPk3yyvgroviAIHi4Wi02P3OZyublJktwDYHKK4qvCMNx63bp1KwFM9Txvd5J7A9iZ5Lz6BamwXrvXkXxGRB4ieZsx5sZKpZJ665QW8a212wN4NYA9AGwtIpsAmETSAoCIxKj1AWtFZAVqQc7Dxpj7ST5QqVQWYWwjd938Xqbi+/6eJN8J4I0AtkItrc1wbS6KyJMkbxKRX8RxfCtaE9Cv33/sTHJBl/uPdrxnPf85GJLP5zdLkmRPEdlLRHYkOVdEJpPMAzAikqC2K8C6+vuxlORjAB4AcF8URY+jNdfNthmXz3V7XA61odehYXhBreOMUBuq1mW8reXjxfxIRC04r0InI48mRG00wcOLn9Eq2pAkMWuA5fv+jqVSaaQVWTnU2m1Qa3cFvfleD+XtGuoHHGp9QAXaBxgAs33fnyMimxhjBgAYktUkSZ71fX9JpVJZjGxb7jRL+4/eQdTykFm8+F7EqL0fvTU0lZJmcm+9MvTL2UkxxumXr8sq6MwFrNXGy/crwigZyDdiDsDSOI6XAkCSvHTgbsP/v820/+gdgs4vimgrXUWolFJKKdViGmAppZRSSrWYBlhKKaWUUi2mAZZSSimlVItpgKWUUkop1WIaYCmllFJKtZgGWEoppZRSLaYBllJKKaVUi2mApZRSSinVYhpgKaXajQAKKcsWoFt4KaUmAN0qRynVVuVyeXUQBF8UkRwa78NHkqVSqbS2U21TSimllFJKKaWUUkoppZRSSimllFJKKaWUUkoppZRSSimllFJKKaWUUkoppZRSSimllFJKKaWUUkoppZRSSimllFJKKaWUUkoppZRSSimllFJKKaV63/8HvWGrcvgm1TEAAAAASUVORK5CYII=;" vertex="1" parent="WIyWlLk6GJQsqaUBKTNV-1">
          <mxGeometry x="110" y="330" width="158.73" height="50" as="geometry" />
        </mxCell>
        <mxCell id="mh7DM1R_hKsIhI1hNfwh-3" value="" style="shape=image;verticalLabelPosition=bottom;labelBackgroundColor=default;verticalAlign=top;aspect=fixed;imageAspect=0;image=data:image/png,iVBORw0KGgoAAAANSUhEUgAAAHMAAACCCAYAAAB1jfdaAAAABHNCSVQICAgIfAhkiAAAAAlwSFlzAAAOxAAADsQBlSsOGwAAABl0RVh0U29mdHdhcmUAd3d3Lmlua3NjYXBlLm9yZ5vuPBoAAA08SURBVHic7Z1tUFNXGsf/AWISQowkloCCtiPoiAJWa0FZuwXTqU5bp0bbccDVYboOshT7gRm31Z2W1h2dtnZaHFut44526tuqa6qAdsf6UkbUUcSiLL5trNgCCSJaKIaAcPZDhDXh3HDvJW9ezm/mfEjuc57z3PO/9+a85VxAONEAigHUAXgIgAzBdAfAX0XUXVAxCUAjAl+ZwZL+NrjqDBxyAFcR+AoMptQD4E+DqdRAsQCBr7xgTA4AmYOoV68RIsA2zWdRPNkMA3AAwORABxImwFbr/sW33357Mjs7e4oX4wlaNm3aVJ2fn/9HjsNaAGUAZgBo8F9UrggRsx9qtRoymWyEt4IJZjQaDRnAZAyAfwP4A4DffB9Rf4Q8ZhkDMxnAHgzyJhELE9P7zAGwORAFMzF9w1sAVvu7UCam71gDYIk/C2Ri+g4ZgK0AjP4qkInpW+QA/gUg2R+FMTF9z3AAhwHE+rogJqZ/GA3gIIAIXxbCxPQfUwHshQ/7oExM/zIXPuyDMjH9z1sAVvnCMRMzMPwdPpgHZWIGBhmAfwCY7U2nTMzAIYdzHjTJWw6ZmIHFq31QJmbgiYWX+qBMzODAK31QJmbwMBfApsE4YGIGF38G8K7YzEzM4GMtRPZBmZjBR+88qOA+KBMzOBkG5zyooD4oEzN40QI4BMp6ZS6YmMHN03AOzPOCickTg8EQqLoaz9eQicmTzMzMeK1Waw9A0bw1CsjK6yeRsLCwUVar9daXX35pu3HjRrgvyjh37tyIixcvxonNz8QUgFKpfLqwsPBpX/k3m80nTSaTaDHZY1ZCMDElBBNTQjAxJQQTU0IwMSUEE1NCMDElBBNTQjAxJQQTU0LQxmbDAMyCcxuUxweUU9wNt23bpnY4HEd8FNuQY9euXSMpX6fAdQfNBwAuAzgF566iVGQA/gLAisDvR8fSwKkRwPJHurkgB7AvCAJkSXj6J9yesBuDICiWxKdiwHmLTgVQCcrtKgSNRoOxY8ciNjYWCoUCVqsV1dXV6OjoGIxbBj96AEwDgC0YxFWRkZFBjh07Rrq6uog7Z86cCfQVO5TSJgD4r1gHhYWFpKenp5+IvZw9ezbQJziU0vUwOLc1EcyLL76ITz/9FDLZoJ7OQUtkZCSMRvrmWvv27fNzNLyIA0ReCadOneK8I6VwZ06dOpV6Tj09PQGPjSuJWtAVFxeHmTNnUo+VlJTg6NGjiImJQXKyX3YZYzxClJjTp0+nPl6PHj2KefPm9X3WaDTiI2MIRtTYbFwcfTXgyZMnXT63tbWJcc8Qiag7k+uO++034VuTK5VKTJo0CQaDAREREVCr1bh79y5sNhuqqqrQ1dUlJkQAgEwmQ2xsLPR6Pdrb22Gz2dDa2iranzfQ6/WYOHEitFotwsPD8eDBA7S1tcFisaC+vn7Q/nn9uObl5ZHKykpSWVlJGhoaqI2Durq6PpvKykqyfft2qq8pU6aQdevWkerqamr/tJe2tjZSVlZG5s+fT2QyGa84ZTIZeeONN8ihQ4dIa2trP582m42YzWayePFiolKpXPLGxsb2xV5bW8sZ1+PnWFlZSRYsWOAxpvj4ePLJJ58Qi8XiscHY3NxMduzYQYxGo9hGED/DNWvWeAyEBq01+/HHHwv2QwghR44cIVqt1mOMsbGx5OzZs7x9NjY2kvT09L7848aNExXb8uXLqfHI5XLy4Ycferxgudi5cyeJiIgQJKbf5zOfeeYZUfnmzJmDsrIyhIaGUo/r9XpUVFQgNTWVt8/o6GgkJiaKimcgQkJCsGfPHrz//vsICxP+a5aVlYWdO3cKK1NwKQEkPT0dubm51GPr16/HmDFj/BwRN0VFRTCZTIPyMW/ePEyZwv8dQLwvGYvFgh9++AEAkJCQgLFjx/azqa2tRUPD/1+4c/XqVY8+u7u7cf78edTU1KC5uRlqtRrx8fEwGo2Qy+XUPEuWLMFXX33l8t2IESOwaNEiqv0333yDr7/+GlarFRqNBklJScjKysLcuXP7da/sdnvfOWo0Gs67vNeml19//dXls8FgQGFhIed519XV4cKFC7h37x5iYmKQlpYGnU5HtU1LS8NPP/3E6csdwT+0XL97OTk5A+bdu3cvuX79OsnPzyeRkZFUm7i4OHL8+HFqGQ6Ho19jaMaMGVRbi8XC2XB69tlnSWlpKVm2bBn1+GBGgIqKiqh5u7q6SG5uLgkNDXWxDw8PJ4cPH6bmee+997zfAPKWmLNnzybDhg0b0C46Opqz4eB+Ebz++utUu8bGRqJQKDyWw3V8MGKePn2amnf16tWced58801qnlWrVgVvA+jYsWPo7Ozs+6xQKDBq1CioVCoXO6vVimvXrlF9uDcofv/9d6pddHQ0ysvLkZGRwdlwcjgcQsIfELVajeeee45azhdffMGZ7+FDzuU8vAlIA2jWrFnYvn07rFYrOjo6UF9fjwcPHqClpQUVFRUoLCxEXFwc2tvbqfkJIS6fL126hJ6eHqrt888/j+PHj6OpqQm7d+9GdnY2IiMjvX5OvYwePZr6e3/hwgXO8/EWfhVTJpNhw4YN+PHHH7F06VIYDAaX45GRkZg5cybWr18Pi8WCyZPpr6R0F7OpqQmlpaUey9bpdFi0aBF27NiBhoYGbNy4EVot711ZeMN1oTzeMPQVfhVz5cqVKCgo4DUHKpfLER5O3zrAXUwAePvtt3lXmFKpRH5+Pk6fPu31u3TECPobKL39OKfhNzFVKhXefZd7j7+WlhbU1NTg0qVLaGlp8eiLJuYvv/yCGTNm4MSJE7xjSkxMxLp163jb88Fup29IwtX18CZ+E/OFF16gXrXt7e0wmUyIiopCUlISUlJSoNfrodPpcOXKFaovmpgAcPv2bWRmZmLatGn46KOPcO7cOXR3d3uMKysrC0qlUvgJcXD//n3q9wkJCV4rgwu/ick1OrNlyxaYzeZ+lX7v3j3OKTQuMXupqqrCBx98gNTUVOh0OuTl5eHmzZtUW41GwzmlJ4aff/6ZegHFx8f7bOiwF7+JyTU+2dzcLNiXu5hJSUl49dVXqbatra3YvHkzpk+fzrnsk9YQ4rpgZDIZhg8fzhlbW1sbampqqMc2bNggapyWL34T02q1Ur9funQpZ+VwNU7cK/qpp55CSUkJDh06hIyMDGoDSyaTISSEfrq02DxNrBcUFCA0NBQajQYmkwkvvfSSy/HvvvuOmm/27Nn4/vvvXfqhISEhSE9PR05ODmd5QvDLCFBUVBR5+PAhNd/169fJihUryMsvv0xee+01kpOTQ3bv3k217e7uJnK53MV3Zmami83Vq1dJcXExycvLI9nZ2aSwsJDU1NRQ/VksFmq8KpWKOBwOah5CCOns7OxbZuo+BRYTE0M6Ojo48xLinKutq6sjnZ2dHu2EjAD5bYeupqYmmM1mLFy4sN+xhIQEFBcX8/Jz8eLFAVcfTJgwARMmTODl77PPPqN+b7fbUV5ezrnckmsiAAAaGxuxatUqTt8AEBERgYgI7760z6/9zIKCAtTV1YnO39XVhZUrV3otni1btmDzZu73rK1Zs4ZzZGkgPv/8c2zdulVsaKLwq5hWqxVpaWkwm80Dtkjdqaio6Buac+fmzZsoKyvjvV6ovr4eubm5yM3N9ShWeXk5CgoKRI2bEkKwbNkyrFixAnfv3h3Q/s6dO4LLcEeGR1MnQkhOTqY+xs6fP49bt27x8hEfH49XXnkFqampSEhIgE6n61vg1NraipaWFty4cQO1tbUoLS3l7Fo8jl6vx/z585Geno7ExESMHDkSCoUC9+/fR3NzM6qqqlBRUYGSkhKXwf6BSElJwTvvvAOj0ejSjbHZbCgvL0dRURFqa2s582u1WphMJhiNRowfPx5RUVHo6emBzWbD5cuXcfDgQSgUCuzfv79f3tWrV2Pt2rW8YxXcABrKSaVSEYPBQJRKpVf9mkymJ6cBJBXsdjvnkF2geaLWADE8w8SUEExMCcHElBBMTAkhqp/J8D5yuZw6vGe323lv8sHElBDsMSshmJgSIgTsMSsVSAiAgYf0GU8CTSEALgU6CoZXuBwC5yvlGU8+e2VwvhK3FsC4AAfDEM8NAJNDAHQCWACA7fPyZNIGYCGcOvaRDOAagmACmCXe6Qoee8m4+wJTOYDFcCqdDED92LFwAIrHjVUqlV2lUvn+HzFDBLvdrrDb7Sq3rx1w7sveSzuAagD7AewEIGqjpH770h44cOCEx0WfDEEcOHDghHsdP6p3XrARIAnBxJQQTEwJwcSUEExMCcHElBBMTAnBxJQQTEwJwcSUEExMCcHElBBMTAnBxJQQTEwJwcSUEExMCcHElBBMTAnBxJQQTEwJwcSUEExMCTGoHbq2bdumdjgcR7wVzFBn165dI/1VVr9F0Cz5JflkEbTwdxAzvAH9dQwUhIh5RkQgjMFz2hdO5XD+6yjQj52hlP6DQbZrPJEIoCEITnIopHoAE/nJ4oT+HkJu7gDYAefVEg1AA9a98SbdAG4D2A7nXysFbWj/P2TyeulOU3FwAAAAAElFTkSuQmCC;" vertex="1" parent="WIyWlLk6GJQsqaUBKTNV-1">
          <mxGeometry x="40" y="131.3" width="50.77" height="57.39" as="geometry" />
        </mxCell>
        <mxCell id="mh7DM1R_hKsIhI1hNfwh-4" value="" style="endArrow=none;html=1;rounded=1;strokeWidth=2;" edge="1" parent="WIyWlLk6GJQsqaUBKTNV-1" source="mh7DM1R_hKsIhI1hNfwh-18">
          <mxGeometry width="50" height="50" relative="1" as="geometry">
            <mxPoint x="200" y="160" as="sourcePoint" />
            <mxPoint x="110" y="160" as="targetPoint" />
          </mxGeometry>
        </mxCell>
        <mxCell id="mh7DM1R_hKsIhI1hNfwh-7" value="" style="endArrow=none;html=1;rounded=1;strokeWidth=4;" edge="1" parent="WIyWlLk6GJQsqaUBKTNV-1">
          <mxGeometry width="50" height="50" relative="1" as="geometry">
            <mxPoint x="140" y="160" as="sourcePoint" />
            <mxPoint x="180" y="120" as="targetPoint" />
            <Array as="points">
              <mxPoint x="160" y="160" />
              <mxPoint x="180" y="140" />
            </Array>
          </mxGeometry>
        </mxCell>
        <mxCell id="mh7DM1R_hKsIhI1hNfwh-8" value="&lt;p style=&quot;line-height: 120%;&quot;&gt;&lt;font face=&quot;Maven Pro Bold&quot; data-font-src=&quot;https://fonts.googleapis.com/css?family=Maven+Pro+Bold&quot; size=&quot;1&quot;&gt;&lt;font style=&quot;font-size: 16px;&quot; data-font-src=&quot;https://fonts.googleapis.com/css?family=Maven+Pro&quot;&gt;FastQC&lt;/font&gt;&lt;/font&gt;&lt;/p&gt;" style="text;html=1;align=center;verticalAlign=middle;resizable=0;points=[];autosize=1;strokeColor=none;fillColor=none;fontFamily=Maven Pro Bold (700);fontSource=https%3A%2F%2Ffonts.googleapis.com%2Fcss%3Ffamily%3DMaven%2BPro%2BBold%2B(700);fontSize=14;" vertex="1" parent="WIyWlLk6GJQsqaUBKTNV-1">
          <mxGeometry x="135" y="73" width="70" height="60" as="geometry" />
        </mxCell>
        <mxCell id="mh7DM1R_hKsIhI1hNfwh-10" value="" style="endArrow=none;html=1;rounded=1;strokeWidth=4;" edge="1" parent="WIyWlLk6GJQsqaUBKTNV-1">
          <mxGeometry width="50" height="50" relative="1" as="geometry">
            <mxPoint x="190" y="160" as="sourcePoint" />
            <mxPoint x="150" y="200" as="targetPoint" />
            <Array as="points">
              <mxPoint x="170" y="160" />
              <mxPoint x="150" y="180" />
            </Array>
          </mxGeometry>
        </mxCell>
        <mxCell id="mh7DM1R_hKsIhI1hNfwh-14" value="" style="shape=image;verticalLabelPosition=bottom;labelBackgroundColor=default;verticalAlign=top;aspect=fixed;imageAspect=0;image=data:image/png,iVBORw0KGgoAAAANSUhEUgAAAHMAAACCCAYAAAB1jfdaAAAABHNCSVQICAgIfAhkiAAAAAlwSFlzAAAOxAAADsQBlSsOGwAAABl0RVh0U29mdHdhcmUAd3d3Lmlua3NjYXBlLm9yZ5vuPBoAAA08SURBVHic7Z1tUFNXGsf/AWISQowkloCCtiPoiAJWa0FZuwXTqU5bp0bbccDVYboOshT7gRm31Z2W1h2dtnZaHFut44526tuqa6qAdsf6UkbUUcSiLL5trNgCCSJaKIaAcPZDhDXh3HDvJW9ezm/mfEjuc57z3PO/9+a85VxAONEAigHUAXgIgAzBdAfAX0XUXVAxCUAjAl+ZwZL+NrjqDBxyAFcR+AoMptQD4E+DqdRAsQCBr7xgTA4AmYOoV68RIsA2zWdRPNkMA3AAwORABxImwFbr/sW33357Mjs7e4oX4wlaNm3aVJ2fn/9HjsNaAGUAZgBo8F9UrggRsx9qtRoymWyEt4IJZjQaDRnAZAyAfwP4A4DffB9Rf4Q8ZhkDMxnAHgzyJhELE9P7zAGwORAFMzF9w1sAVvu7UCam71gDYIk/C2Ri+g4ZgK0AjP4qkInpW+QA/gUg2R+FMTF9z3AAhwHE+rogJqZ/GA3gIIAIXxbCxPQfUwHshQ/7oExM/zIXPuyDMjH9z1sAVvnCMRMzMPwdPpgHZWIGBhmAfwCY7U2nTMzAIYdzHjTJWw6ZmIHFq31QJmbgiYWX+qBMzODAK31QJmbwMBfApsE4YGIGF38G8K7YzEzM4GMtRPZBmZjBR+88qOA+KBMzOBkG5zyooD4oEzN40QI4BMp6ZS6YmMHN03AOzPOCickTg8EQqLoaz9eQicmTzMzMeK1Waw9A0bw1CsjK6yeRsLCwUVar9daXX35pu3HjRrgvyjh37tyIixcvxonNz8QUgFKpfLqwsPBpX/k3m80nTSaTaDHZY1ZCMDElBBNTQjAxJQQTU0IwMSUEE1NCMDElBBNTQjAxJQQTU0LQxmbDAMyCcxuUxweUU9wNt23bpnY4HEd8FNuQY9euXSMpX6fAdQfNBwAuAzgF566iVGQA/gLAisDvR8fSwKkRwPJHurkgB7AvCAJkSXj6J9yesBuDICiWxKdiwHmLTgVQCcrtKgSNRoOxY8ciNjYWCoUCVqsV1dXV6OjoGIxbBj96AEwDgC0YxFWRkZFBjh07Rrq6uog7Z86cCfQVO5TSJgD4r1gHhYWFpKenp5+IvZw9ezbQJziU0vUwOLc1EcyLL76ITz/9FDLZoJ7OQUtkZCSMRvrmWvv27fNzNLyIA0ReCadOneK8I6VwZ06dOpV6Tj09PQGPjSuJWtAVFxeHmTNnUo+VlJTg6NGjiImJQXKyX3YZYzxClJjTp0+nPl6PHj2KefPm9X3WaDTiI2MIRtTYbFwcfTXgyZMnXT63tbWJcc8Qiag7k+uO++034VuTK5VKTJo0CQaDAREREVCr1bh79y5sNhuqqqrQ1dUlJkQAgEwmQ2xsLPR6Pdrb22Gz2dDa2iranzfQ6/WYOHEitFotwsPD8eDBA7S1tcFisaC+vn7Q/nn9uObl5ZHKykpSWVlJGhoaqI2Durq6PpvKykqyfft2qq8pU6aQdevWkerqamr/tJe2tjZSVlZG5s+fT2QyGa84ZTIZeeONN8ihQ4dIa2trP582m42YzWayePFiolKpXPLGxsb2xV5bW8sZ1+PnWFlZSRYsWOAxpvj4ePLJJ58Qi8XiscHY3NxMduzYQYxGo9hGED/DNWvWeAyEBq01+/HHHwv2QwghR44cIVqt1mOMsbGx5OzZs7x9NjY2kvT09L7848aNExXb8uXLqfHI5XLy4Ycferxgudi5cyeJiIgQJKbf5zOfeeYZUfnmzJmDsrIyhIaGUo/r9XpUVFQgNTWVt8/o6GgkJiaKimcgQkJCsGfPHrz//vsICxP+a5aVlYWdO3cKK1NwKQEkPT0dubm51GPr16/HmDFj/BwRN0VFRTCZTIPyMW/ePEyZwv8dQLwvGYvFgh9++AEAkJCQgLFjx/azqa2tRUPD/1+4c/XqVY8+u7u7cf78edTU1KC5uRlqtRrx8fEwGo2Qy+XUPEuWLMFXX33l8t2IESOwaNEiqv0333yDr7/+GlarFRqNBklJScjKysLcuXP7da/sdnvfOWo0Gs67vNeml19//dXls8FgQGFhIed519XV4cKFC7h37x5iYmKQlpYGnU5HtU1LS8NPP/3E6csdwT+0XL97OTk5A+bdu3cvuX79OsnPzyeRkZFUm7i4OHL8+HFqGQ6Ho19jaMaMGVRbi8XC2XB69tlnSWlpKVm2bBn1+GBGgIqKiqh5u7q6SG5uLgkNDXWxDw8PJ4cPH6bmee+997zfAPKWmLNnzybDhg0b0C46Opqz4eB+Ebz++utUu8bGRqJQKDyWw3V8MGKePn2amnf16tWced58801qnlWrVgVvA+jYsWPo7Ozs+6xQKDBq1CioVCoXO6vVimvXrlF9uDcofv/9d6pddHQ0ysvLkZGRwdlwcjgcQsIfELVajeeee45azhdffMGZ7+FDzuU8vAlIA2jWrFnYvn07rFYrOjo6UF9fjwcPHqClpQUVFRUoLCxEXFwc2tvbqfkJIS6fL126hJ6eHqrt888/j+PHj6OpqQm7d+9GdnY2IiMjvX5OvYwePZr6e3/hwgXO8/EWfhVTJpNhw4YN+PHHH7F06VIYDAaX45GRkZg5cybWr18Pi8WCyZPpr6R0F7OpqQmlpaUey9bpdFi0aBF27NiBhoYGbNy4EVot711ZeMN1oTzeMPQVfhVz5cqVKCgo4DUHKpfLER5O3zrAXUwAePvtt3lXmFKpRH5+Pk6fPu31u3TECPobKL39OKfhNzFVKhXefZd7j7+WlhbU1NTg0qVLaGlp8eiLJuYvv/yCGTNm4MSJE7xjSkxMxLp163jb88Fup29IwtX18CZ+E/OFF16gXrXt7e0wmUyIiopCUlISUlJSoNfrodPpcOXKFaovmpgAcPv2bWRmZmLatGn46KOPcO7cOXR3d3uMKysrC0qlUvgJcXD//n3q9wkJCV4rgwu/ick1OrNlyxaYzeZ+lX7v3j3OKTQuMXupqqrCBx98gNTUVOh0OuTl5eHmzZtUW41GwzmlJ4aff/6ZegHFx8f7bOiwF7+JyTU+2dzcLNiXu5hJSUl49dVXqbatra3YvHkzpk+fzrnsk9YQ4rpgZDIZhg8fzhlbW1sbampqqMc2bNggapyWL34T02q1Ur9funQpZ+VwNU7cK/qpp55CSUkJDh06hIyMDGoDSyaTISSEfrq02DxNrBcUFCA0NBQajQYmkwkvvfSSy/HvvvuOmm/27Nn4/vvvXfqhISEhSE9PR05ODmd5QvDLCFBUVBR5+PAhNd/169fJihUryMsvv0xee+01kpOTQ3bv3k217e7uJnK53MV3Zmami83Vq1dJcXExycvLI9nZ2aSwsJDU1NRQ/VksFmq8KpWKOBwOah5CCOns7OxbZuo+BRYTE0M6Ojo48xLinKutq6sjnZ2dHu2EjAD5bYeupqYmmM1mLFy4sN+xhIQEFBcX8/Jz8eLFAVcfTJgwARMmTODl77PPPqN+b7fbUV5ezrnckmsiAAAaGxuxatUqTt8AEBERgYgI7760z6/9zIKCAtTV1YnO39XVhZUrV3otni1btmDzZu73rK1Zs4ZzZGkgPv/8c2zdulVsaKLwq5hWqxVpaWkwm80Dtkjdqaio6Buac+fmzZsoKyvjvV6ovr4eubm5yM3N9ShWeXk5CgoKRI2bEkKwbNkyrFixAnfv3h3Q/s6dO4LLcEeGR1MnQkhOTqY+xs6fP49bt27x8hEfH49XXnkFqampSEhIgE6n61vg1NraipaWFty4cQO1tbUoLS3l7Fo8jl6vx/z585Geno7ExESMHDkSCoUC9+/fR3NzM6qqqlBRUYGSkhKXwf6BSElJwTvvvAOj0ejSjbHZbCgvL0dRURFqa2s582u1WphMJhiNRowfPx5RUVHo6emBzWbD5cuXcfDgQSgUCuzfv79f3tWrV2Pt2rW8YxXcABrKSaVSEYPBQJRKpVf9mkymJ6cBJBXsdjvnkF2geaLWADE8w8SUEExMCcHElBBMTAkhqp/J8D5yuZw6vGe323lv8sHElBDsMSshmJgSIgTsMSsVSAiAgYf0GU8CTSEALgU6CoZXuBwC5yvlGU8+e2VwvhK3FsC4AAfDEM8NAJNDAHQCWACA7fPyZNIGYCGcOvaRDOAagmACmCXe6Qoee8m4+wJTOYDFcCqdDED92LFwAIrHjVUqlV2lUvn+HzFDBLvdrrDb7Sq3rx1w7sveSzuAagD7AewEIGqjpH770h44cOCEx0WfDEEcOHDghHsdP6p3XrARIAnBxJQQTEwJwcSUEExMCcHElBBMTAnBxJQQTEwJwcSUEExMCcHElBBMTAnBxJQQTEwJwcSUEExMCcHElBBMTAnBxJQQTEwJwcSUEExMCTGoHbq2bdumdjgcR7wVzFBn165dI/1VVr9F0Cz5JflkEbTwdxAzvAH9dQwUhIh5RkQgjMFz2hdO5XD+6yjQj52hlP6DQbZrPJEIoCEITnIopHoAE/nJ4oT+HkJu7gDYAefVEg1AA9a98SbdAG4D2A7nXysFbWj/P2TyeulOU3FwAAAAAElFTkSuQmCC;" vertex="1" parent="WIyWlLk6GJQsqaUBKTNV-1">
          <mxGeometry x="217.96" y="131.3" width="50.77" height="57.39" as="geometry" />
        </mxCell>
        <mxCell id="mh7DM1R_hKsIhI1hNfwh-19" value="" style="endArrow=none;html=1;rounded=1;strokeWidth=6;" edge="1" parent="WIyWlLk6GJQsqaUBKTNV-1" target="mh7DM1R_hKsIhI1hNfwh-18">
          <mxGeometry width="50" height="50" relative="1" as="geometry">
            <mxPoint x="200" y="160" as="sourcePoint" />
            <mxPoint x="110" y="160" as="targetPoint" />
          </mxGeometry>
        </mxCell>
        <mxCell id="mh7DM1R_hKsIhI1hNfwh-18" value="" style="rounded=1;whiteSpace=wrap;html=1;strokeWidth=2;arcSize=50;fillColor=#000000;" vertex="1" parent="WIyWlLk6GJQsqaUBKTNV-1">
          <mxGeometry x="100" y="150.5" width="10" height="19" as="geometry" />
        </mxCell>
        <mxCell id="mh7DM1R_hKsIhI1hNfwh-21" value="" style="rounded=1;whiteSpace=wrap;html=1;strokeWidth=2;" vertex="1" parent="WIyWlLk6GJQsqaUBKTNV-1">
          <mxGeometry x="89.1" y="200.5" width="126.9" height="33.5" as="geometry" />
        </mxCell>
        <mxCell id="mh7DM1R_hKsIhI1hNfwh-16" value="" style="shape=image;verticalLabelPosition=bottom;labelBackgroundColor=default;verticalAlign=top;aspect=fixed;imageAspect=0;image=data:image/png,iVBORw0KGgoAAAANSUhEUgAAAhkAAACtCAYAAAAd3m3BAAAABmJLR0QA/wD/AP+gvaeTAAAACXBIWXMAAAsTAAALEwEAmpwYAAAAB3RJTUUH4QUZDDMgMiJJfgAAABl0RVh0Q29tbWVudABDcmVhdGVkIHdpdGggR0lNUFeBDhcAACAASURBVHja7Z15fJXVtfd/az/nZGImaAJWRVGGDrYaRhXFKloggQwcDQHBt62i1mvf9va1g7Ue7XC9rbWtvdam1wGBDGYCSQKKEyoIZNA6VAEBhxYnDKNkOufZ6/0DtBgSsvc5zzkJsL6fj38Qz3OefdZee+3fntYGBEEQBEEQBEEQBEEQBEEQBEEQBEEQBEEQBEEQBEEQBEEQBEEQBEEQBEEQBEEQBEEQBEEQBEEQBEEQBEEQBEEQBEEQBEEQBEEQBEEQBEEQBEEQBEEQBEEQBEEQBEEQBEEQBEEQBEEQBEEQBEEQBEEQBEEQBEEQBEEQBEEQBEEQBEEQBEEQBEEQBEEQBEEQBEEQBEEQBEEQBEEQBEEQBEEQBEEQBEEQBEEQTghITCAIwolEoOyepNBpw9IcH6cxI40U0ohVGhOnEeHg31z8qWJ8/jKxliBEh09MIAjCsc7U1YtTBg7AySHypTsKacROGqvDRANRGjPSQEhnoL/v0BiLDhtuffYvIkCHw/PFqoIQPTKTIQjCMUVeQ+mPQTSewGkMpBGQBqJ+Xn0/g1+rPC//HLG0IESPzGQIgnCMDY3oeiIM/8JMhJdo1IiRBcEblJhAEIRjhUBZQIFwSizfwRwWkSEIIjIEQTjhGD7jJAL8MZQYTbtqt24UQwuCN8hyiSAIxwxh5QxTjAOf/ZuICaAUzyQGY+WaYNAVSwuCiAxBEE4wlo29+mUAfQ//W0Zhoe/ML/sHhhJTBvkUvg6FWWDMimQzKGuWpRJB8BA5XSIIwnFH7otFp1Gi77mDG0SNJUa45YB7Uu3kuXvEgoLgDbInQxCE446q8+e+B9Z3WT3EeEEEhiCIyBAEQeieML9opzG4VowmCCIyBEEQukWTa7cczLIfQxBEZAiCIBhAyne6sb4AtlXWbNkiVhMEERmCIAjdiwyHvmb+aa5GMMhiNUHwFjnCKsSdaRuX9uvb3p5o8tmWPaEDNVkLW8RqQgRcaiwxXFeWSgSJqyIyhOOBPn7/k+z3TzD5bFISTwPwuFhNsCGzujCZGBcYHdJn3t+ys+kFsZogcdV7ZLlEiCtZG4pPBvN4w/FlM739/hqxmmBL0tABF4LIaFTHwBOrpt/cLlYTJK6KyBCOcfx+NQ1ERrv+menJ8it/2CpWE2zR4Bmmn2XIrauCxFURGcJxAQGZ5sFf8hYIERAMEill5mfMHArpVWI0QeKqiAzhGGfaynsTCLjC+IFweKVYTbAlL3PkSAJGmEVnqqueWPCxWE2QuCoiQzjG6TPk5AstLq16qWrCvB1iNcF+WEfmozqtZalEkLgqIkM4LnDMp/TAslQiRKgxoCz8TPZjCBJXRWQIxwUMMt+MJymehQiY8ULRQCaebOhjOyprN78iVhMkrsYOyZMhxIXsutKziTDSsCV8rLZXNYjVBFuSk5wrAHIMP14jWT4FiauxRWYyhLjgkMWRQqLa8ivLtVhNsHc0i6ljV/ZjCBJXRWQIxwdK2WzGk/0YgjVTgkGHGdONfAxo3bcn/IxYTZC4KiJDOMYJPFnYH4SLDIN/yNm970mxmmDLoMyRE4losFnE5aefvHx+s1hNkLgqIkM4xnEH9Z9KgN/ks8T8XPnUhfvEaoItZHN0VU6VCBJXRWQIx0nwV8p83VDL0VUh0mBmPnXstLaLnwkSV0VkCMc6gbKAguE6OQC4TBL8BXs/27h4OAhfNfz4q+UXzv+nWE2QuCoiQzjGCZ2RnUGENCO1zbx5+fj8t8Rqgi2uSjAe1UFLDhZB4qqIDOG4QJFF9kW5DVOIEFIWF0RJojdB4qqIDOF4Cf7m2eg05OiqYM/MtQ/2JeASI4EBfNJUu7lOrCZIXBWRIRzzwb9kKIEyDIP/Pt+2LWvFaoIt/qTkS0GUCDNHW7kmGHTFaoLE1fgQ17TimdWFyQlD+04gOOeCcC6BxoB4MDMNIuJ+DNoD5o8B7CTgJXb1M2rv/ud7y5HGQFlAhU/JSlWOL518Kh1AOhSla9bpBEoHIZ2Y0kCczu16YuXEgq0ncmNISCLjjUkEfrz8ymCot/+mnHWLT6IE/yVK0XkAMhg4lYBBTDSImFuZ6GMC72Tml5nxtNPS8lz55G9/ciLPMjiJyecp0HlQdB4BoxkYRIRBAAaAsYuB9wH6AMx1cLm6ctXml6zSfZNjMXXs1ohv9X6mBINO/8tGnez3YxgrDCPCMAaGEalhAA8l0DAGhsF1v1s5vsCoTgNlAcVn5k1m8GQimgTgbAZSAfQFsIOAd5joHdZc54Q+fbR80nd3S1z1YNYlHkHGl5SSRaRyAEwnQh+b5xnsEmO5Dod/VzVh3kbPCxgM0rRpZ/VNJF+6gptODqWD6XPRACAdROnMSAdxGhnci8CMNyszrvryia64ZzeWLgNRtlE9a72gcuycxb3xdwTW3NfH7ZdaoIArGfRNIvMZQGZoAGVuKPy75RPnvnQi1Htg/QOD2N83k4nyQLiCgCSrNs94n1k/4Oze9/vuBhiBsoDis/L+BdBQg28Oh/e1Dlk+5Zq94ls9O1BjvzPMUTSMoIYxYRjhkIj4TDwA6Sa2CLfwiOUX5G8/2mdyNy49hRzf94hwNYi+ZGZbbgfoMc160bKazat60x03x1pcjZnIyN249BT4nJsU6HoQDfTkS5mfZ1ffUDm+4I0oK+kugCaDOJ2BoQRK9vTHM/93RUb+T2Jl26mrF6f0H5LwkNGHNYXfadxzTePCheFo3plXV5xJPqe6NwUsZnyktlUMi1U+/hkvFA1MTvZ9D4p/AFCqB+Wt0q1t1y+7YP7O7joe3T/1wXjWrxfkNRSPAqkfgGiBrbDofICBT6D5N001m+7taokjb2NJBvlVg9n38TOV5+Vf2ht890TyrbyG0t+QwiUHxQMNNU0gZfCrm2lrZb+u2n+gblGaqxJ/qoiuN15O6/w9T2jXvaFq3Ny3PW8zJ0Bc9Xy5JHNNcWpiX3UnKVwHkLffT3QRfE7j7MZHf0LbKv4csRGIpgE4B6CYqCytwyti6QT9BvkvJdBVhjJyjScdkGOmnOOrkDk2F/4EgzQ7a/QCBn4PwmCvtDgRclVS4gW5jUXzqzLmru6ykaekXh73+o2CnPWlo1UC3UXgmSAi7+oXQ6DontSs0ZcGLigs6GxWg/zmWT6he8HppRPRt4jyAIz0PNYy/tFp+w8GKS9z1NVM9CflyQCXrlCO83peQ+nPjyZ4Ja52jmcbP6cEg05eY8mNif2ct0jRjZ4LjH8HniQQ/qhHzH44UBaIqPzM6B87Fcg7d9Vu3RhTJ7C4aZIR/U2TU4JBB6CZva0xwPW+08heV3rm7Kwxz4DoYeN7MOw6gzRFTm1ufUlW14EHs+JZvxHbas2iAXmNpXc7iXiNCLO8FBhftBnN4MED1wXWPzLsSAOYiwzF4R7dZX9C+lYwSCA+NSaxluj1I2xc98jgvJljVpBSj3g2g37Quimk6J4hWaMfPBgPvekzT4S46onIyH2x6LQhM8c8S6TuO7Shy8CB+TWAg9B8uW4Nn077PunbciA8KBwOfwOaZzH4j4c2gXbVoObrEbMLIxMaHDORAaKamO5eDwYJbHFG2oOcAKnTRk0iopN6Uztg5vb29gOeXviT11A8zZeERhCmxHis4CNFFTkNxZd1/D8ZhYU+BrLiWb8RzV40lEx3+iVvJqL/jNWAosPo4quckFR0eIDPeX5JOghjDe30Vvm4eVt6yl9PVN/Knn7GIM+Xoz/7pRpfEBl5dcVfdnxJdQRkxs68tCA1a/TDXgiNEyWuRh0cchtK8hTRAwCMVCODn3HD+tblK7ds7GIzzR4ArwBYESgL3qLPHJkHUvd1pvyJ8F09IncTUP57W63G4L0AEYFTvAySzDqmSyXZ3zr7XCIMMw2slWMLNkc/c0Kz0MsgwrMrLvzOp14Jt9mZY34G4l/GajTeyeg8QZFakl33yFeWj1+w67O/n5Ex4AIYjnKZeWtlzZa4dpxT1ixKTO2fdBeB/m8Ej7/Emp9gctdQiLa7re07D7Sr0MB+NNRNUCPAajoplUvAqV0IjSlDMsf8BEH8+uDY0j/d4t09M+NzgvsWsfpSrH6npvDnImN2Xek34WA5gH5xsO/VqVmjAQQXRLMh9LiPq1GLjGCQZmeNuQ2EOww7vD1gXFtZs6nStGIOHb0pzX2x6EVK9K0A4eudWOWX2etKl3W3w/hwKjPyTz78d8y87NQ+ifAPcpOcEaScWWAEiOiUCBRGm7N/V0yv0/X5ffHP9Eb0LTC3GZsB5DfdJX/o9JD1ui+DvRFzB9fI/wjCzZGsjzPz3wFUkYt1rPSOUGvLjsSWsMLAPulaqa8DKosIeQClHNlnUrrjJP0BwILPv08h27QUBFTHc9f7rPqSL/mVWgHgXBsDASgNa/cPy8fNre/iU9sO/bd62sp7b0lJO/l6ALd3uqSgODhzbclDKy6c84FNls9YLK2Jb3XPsglXv4rPfvxhsVb7fAPZRyMV0XQmmknAENvvdtoPiozcxqLLmeixrjYbM+NpYqzUOvS8g/A/dzZjz+Bk3xCCcwb5KJMJcwh0mq3QyMsa+URlEEUSV7v1JXsCZUG/HjHqfiL1HcOSv6J1OCea3bm5dUvHKp+/vovWWF2Rke/Z2tbMtQ/2TUjuW207tcnMtZUZ+ZmxjFuzG0vrQDTO6MNhvrRifP4z8Y6ts18qXQ/QREOjZVZk5PfIWnmgLKD0Wbn3E9R19h0AHtPt/JNlk/I3deu7G5eeQj7fb4mooNNGGAp9uXzCvDcRDFJe1uhtRHRGb6vfnI1LzlE+/0or8c14nbW+rnLcnPXW7b2+6AxSTg0RHXEUnLW+renTtt+l9ktuMjkSz8C+5g8/OmnV9Jvbxbd6n2/NeKFoYHIf3woAky1stLuy+s3U3Kyzpyo4Kzo7PcLAw7qNf9udHQNl9yTxiFNuYcLP7U6+cFNbu/5y9cSCjyWudo2ybzxBP48YXWYsMMAbWprDU6I9/uMQ9h1F4c3odFNYhKy48DufMusfWys2TTFdKjm4Bm0mMBjYR+9seiHuHXfdojQwJhiWsXVvU/uzPeX87pm599h2Agx+T7vhyyozrso26QQAoGrCvB2V1ZvmMfjWzv6/9vluAICcaSO+ZtoJMLDvwCcfxyWT3+y60m8qf8ILdrN7fB9te/O8SAQGAFSNm/t2a7N7ATMfudyn1HWpfRO+aZxzh/FEPAWG+JYdtZPn7nG1+1O7SQC8nj397HMITuURAuOguJ1Qed5V3zaxY/mVP2ytyLjqTq11NgOtFqVITfCruyWueigyAmUBpc8c87BpIhAArx4IhS+vnTx3T1QG3rh0DCvfQ0dxOKUTEgu8NEzTp22vMGCVKY3CrTGdknVS/Mb56nsq05t2ErMs1p6fevLy+c094fh5DSX/oZT6vuVjL4WaeWLVuLlPW78wGOTK8/J/w+A/duLAC6asWZTo+BKybeo3Hh3n7IbSi9lHtQSzE1kMdpn19yrOy78pWv+rnTx3j9bteQA3f/G341SQY74Pi+N7Akd8y57dn7Y3AGw8vc/Mux3HqSWivh3+vmRvU9uEyrFzrO+nWTZ2zkpi/o7NM0SYk/P8knSJq16IjGCQeETefaQw13Q6K9zCOasmzNsfaeGyNhSfnNdY8mft970Gogu6+binSXbWrHmnHQzzhsZcXz5pwfsxrS1C788JQMp4MxO56JEkNHl1xZkg9Uerh5ifbW/+9OIVF875IJp3t+3Y+zMwv9Wh0+w/sI//HJD58cJ41G/uxqUTmFBjnFiLmYkxvzJjzl+8KsOycfP/wYx7OgnuY0zLpNtCq8S3epdvdcTfrhybDfhENLPjzBprvqOyetOCaDrYiupNJQxeZhHwfKqv/9sSVz0QGXmZo24C0fXGDdvVc2w2Yx4R4BpK5iT61VYidZNJKm8Ap3lpmMwpIwdbpUBneiyWFRUouyeJQVMNBZ6mluZV8XamwJr7+gC4zDiW6VDc1wxzXyw6jRy1xCZ9M8CbWprdXC92XddkLWzRwO+OmKVSzmwA5xl35jGu37y64i8rn+/xjiPFo1coXV+RkV/sdVlct+0PzByR7RnY0F0WTPGt+PpWZ/TtlxBV/Gatf1w5Nj8Y9WbVYJDh8p1W/T/jukhzNh0vcTVqkZFbVzSZFN1j3rD51mXj5zwRucAo/bZSqhhEFseR6HQvDeNLwdlWTh52Y7ofIzx86MWmoofA63vi4iS33+Cp5qNevFw1Yd6OeJZvSjDoqCTfUpskPcy8i9t1VrRLfoezv6m9CMz7O1Taf1j4ekzrd8YLRQPJUcutkhlp/k3FuKv+FovyLB+/YBcIEQVOYqoV3+o9vtX1fACfE7HAYDxQOXbOb70qS+W4OX8H40XzwtPp+rScM0/UuBq1yAjULUojx1duPJXFvLKyevNdkRYoe82iAYrw+4hczUMcR11o8eZ3Kh/f8nosK8rxUZZFk+2RpRJim3Pf8U8ilZo56qew2MEOAOQi4PVtuk9ePr+ZgXVf7AesEhbFbDo0UBZQSX18S0B0tkXTe+qTmk2/iGXdscbqiMS5DteIb/UO3zqqLZzIlrsZ3Ki27fgP7wvEdv7mM0wKdxzG1ehERjBI2kn+CxHSDH9gcziEG6OZslL9krIjSwdLXqtv44BB4BUxzVcQDBLYfD+Gq9viHiimBIMOlHmK57B241rGnPrFXyFFt9vJVv0/MTzG92KkD4Y4FLNAokfk3WqTMZEZ77ut7QUxzXILQGu3MYJxx7+Wr3zrVfGt3uFbR4+hdJl99fIuFWqfXX7lD1u9Lo+r9Tq7H6BiIjJ6e1yNWmTkZY2cTYRc89EG37F8Yv670Q1ZOMJpJ37V04oFjGcytI7tUsmszLO+AjJbDmLGO8tqt78Rb0dKnTZqkmlCHWZ85H97eWPcChcMklIJ91lldmV+N9TS/NPYFUpvj7B9vPtYzdZ/xKJEefUl3yCC1YwEMd8Qjz0P1Ko/iuCxmpgnKxPfiprsdaVnAnSmZVlZu1xQPmH+O7Eoky/kWqZcoG+ccHE1WpERWP/AIEDdZ1znwDa1ffMfoi5QhJfaENNzXhll8IyzJpheYMTgvS07m2Kaj8JPfosEX7omnlkgP7e/RYrcmN2e2rVYLiCii+2CGK71Or1uh+/fFdljHJMsn9NW3ptASi2yS7HPZRVj81fEow53a3d3RCJDfKvHfas7nESeYV1Wxv3R7PvrjuawarIsUeqJFlejFhns7/szm8tbmPmXXuRlYMb79s9wO+mWIs8qlixSdzOtisOZ8izzQKF7ZLqMyeI2wTimeA6sua8PyDJhDnN1xdj8mKaH14wDET0XI9v1ST/5p52m7T+KuKZw683xqseTEskqiMcjIZH4llcBV2XamZB3ubrttpjacH+T7THYASdSXI1aZOS+WHSazY5kZt76bsNeTzp5jZD9Bi/GA+Xjr/nIM58n802Wsb4QLfDCQ0MAnmQo0A7s2h96Lt5OlLO+dDQRRpoKQq9v+TuqP/VLvYFAVslywq57W8wbnuFtxR3r1/fOB57X76z6ki8x6CdWbQT4g5dtrtt6VAlDLR+JeUIi8a3ombn2wb4AT7Es662HX/wWC/oO6W9lQyJ4frN3b46rUYsMSnDu6CwX/FF+4d2NCxeGvSjQsrFXv8zMT1o43Dtq917P1jcDGxcPB+GrhqM51wkdeDymMwTJKdOMM70Rr14z5Zq2uDuR3zzRTyxu+TvqSBO4xTLaliwfP/eVWJeNoeynV4lXx2KTm4/ol8ZH5A7aaE/LAfdP8R3tsp3I0LHN8im+5Q3+pORLiSjBakDbuPeBmBeMfYMtn/B8JqO3xtWoRcas+pIvQeFqi4bT1tqiH/W0UO1t1wC8vfvGhH+q9vbLyqcu3OfVu12VYLM++Fz5pO/ujnENWdw0yT1z/MxmSk/H73it7pd6g92SH3TYxe1xsRnY+tZJjkEmxpyNS84h+vdNnWadGO7xMreD0TsdZSUywoxa8a2e9S2zwjqZdr8Nv/ZqQHvU+oVjJ9QYnp+u6q1xNWqR4SO60TDD5kHbEpZ7HXDKJy14v735wNe11r/rLJ89g13WvKhtn3tu+aSrt3lasRadOnFsL0SbtvLeBAZ9y7gyuW1lvB0oULcozXQ5BwDIbYtLYwiUBf1E+KFlqK1ZPj7/rbh0mhFcbc3NIc/r1/H5f2FxJwLAvMfd33pv/AMVDTUvIv/9sXFz/iW+1bO+1S3BIAGYblGvb9O2TUXxKBo5NNjS5gc89bFeGlcj4Qs7yTOrC5NJwermQK15cSwKdmjq55asDcV3+3w4RzF9FYS+BHq3PayfiMX1ujPXPtiXgEvMf3s4piIjZciQy40vpmKuq4jjGvnn71VJmcadFOP1WB05O+JVw0dnwqJjAgDt8l/iZTdSyq4jYK5fdtHVH3pZhtz6ojMYlENWxeDfL59yzd64+xlhuGk5GVwrvtWzvmVCTuaIbxDB4vZsvjtelz4ycyrBomUQPF2q6K1xNWqRkTisXy5gvoubGR+917hvdSwLeEhMPHXov9gaIznlMtO9KAx+Ldrr67sfZjpzLVpFD50qwUzTpqgRx9swfVhoGVS2+t6pit/GKeahsJlAiEEmRnKcm8ni/iIGt7iftv25J/yMwJNgGPS1G+Osh+JbnqAsjuYz0NrarIvjZkKFkWT1AHk6k9Fr42ok9dzhn1daGQK6KB7rY/ELZDaZDjmmsxgz1z7YF8SzLCoj7o42dfXiFBCmWtgsLmXMrS86A6ArrOqe6f64njEnWCXv0R5nYpy2cWk/ML5rZyMs74lZjMw1xakAjTb0sZ17Vm6pF9/qOd8yLiaR+f43jcp47gNSROdaimDP7gvprXE1apGRvWbRAADfsjKsxpLjRWAEygIKFk5PjJiKDH9y8izjOweY/1VZu/mVeNus/2DfVPN7Ebhpd82WDfEJXipg/UyotTRedpu5tmSozdFHZt6xrGbb370sQ4pPzbS6YRWAy7y0J9pmQh8632KgsDKWKc7Ft7wha0PxyWAeb6wxyH0wboULBonZ8Nbafw/yPJvV7q1xNWqRofokZlkdJQJ/2BMdW6xwh886z7RxMvhDtb2qIbYlslgqiUf65M4DrvHuZ+bYBv8vlEtRjmWAeLF80oL342U3fwJnWD7ief0S1FVWJmLe6du+uUfO4StFF1jUZY34Vs/6llE5/cr4aD4zv+3btixuOTxmzRh1is3JIQBgYs9ERm+Nq1GLDHLUN+0aD23sCeeMnSUc4wRcpFEdy+nPnHWLTwLx5VaBIs5MCQYdtslEquMzpTdzbclQgCZadgSVcRVnjmM3SnK9XXMNrH9gEBN9y/Kx0nhtujsy1MBQZHCYdu9dLb7Vc75lLnLJJlXAw/FcbnKAc61/j6btXry7t8ZVT0QGmO2uKQY24DhCKfPUtqxjm+VTJfnnmx4jZnBL6/t7n4m3vQZljpxorvY5rA+0PRGPcvmSKdM6QLhtVXHtNGE+2mSgdd+esKf1qxNSphPgtyt0zyyVTFmzKJEY48yKSM95mTNHfCs2BMqCfhCuMPQ75jb3kbgKICLb2SCEGS8dz3E1apGR8/ySdCI6yypQcfi4ERm5G5eeApitwTG4pe2j/U/HqizTVt6bQKD/a9wgGE/VZC1sibvj2EzpAc/Ha8OgIlxk13fizXgf/yJYrPcyP+19emxnimXH9V5lzeb6nmibQ1KSLjDOPhzjLJ/iW94QHjHyQtOj+QCerjp/7nvxFRm4zK6eedfylZu2Hs9xNWqRoVKcCZaNR4dbWxtwvODzTTf/8bQ6lp16ctrJc0D0JXO112OZ3sxPvsQxmyCDJtlFFP1CPI2Wva70TKv6jcHRZALb3Rqq6YUeWxp1YLzR0mWqFd/qWd8y63TUDHOb8+PxLFvOusUnATjf8rE6D9tHr4yrUYsMUs5Iq7YDvNZb86RHaASLC9Fid3Q1UBZQCvT/rOK/DtXG2155DcWjiGiUsX05HJcyZm0oPpmAEVYdh4u4dgS+JPPL9wDv02PPXFsyFERnW47s1vVEu8woLPQxkGc48NkSy4ya4lueYr7spPF0PAumEvyZVhlwARBo/fEcVz0RGdBsFXSY9MbjRWBkVhcms+n0GDM7ujVmFauH50wH4SsWj7xUNWHejnjbjJRjs/t5S/m4eVviUa4EhfG2zzg6tDaetmNiC9t5nx47gtMHCLvhF3uibZ5x7oCLTNenOcYJicS3PBpIrV8ywrwj5Sb1dtWr8Y1tFveFfBa3XW9SsvfWuOqNyCBY7ccgrTYfLyLDP7T/JeZnkml9LK+3Jp9jdauj1j2U6Y0tkoQhjlOySp1t+UM+KF+1/d14FW/GC0UDCebr+hSLLJ+Ws5Zg3r9n5Vuv94ibOTBODsiI8S578S1vBlIJfvOlEsaz8TxVklldmAzC5XbNA+877zz2kjcO30vjqhcig2GTPx7QrP+F4wSHqFcsleQ0Fl8CYLJdi3Xj7mhZG4pPhsWaJbMbNyFEynI6m+mNeO41SEqmbwHks/A3z23HxFYig0Hre+IcfkZhoQ9EZkslwD7fti1rxbd61rdM+3JzIURxPfmSmNbvUoBS7BxD13ghhHpzXPVmJgOwyvxHwD+PC4Vx8BZAY6dXbmwuRMsoLPQpUn+yC/78oWcK2oIEh2YYJ9EB73W2vxW39Xxmu46AwG/F1XikLAQtPopJwjeC7Yi8riea5unn9b2YDG8TJfDjsc7hIb4VPTPXPtgXgPGmY9KhuO7HgOPMt56ZCcOTI8q9Oa56IzLITmQw9Ic4DsibMerrpruxGdhWvmrrpliUY/jY/tcR6GuWUa82rvchfO4xymJKD4/HOYHTaZYdR9zWNANlQT9ZXGtNiFH9st3toczY0RNtUznONeaRPi677MW3osSXnHKZaVZpZrxfXrs1bkItsP6RYURslc2Vwe/tXrnZm4s7e3dckUzM+QAAGtlJREFUjf9MRsj19sa5HoNsLkTTj8Vi+jO77pHBAP0ygqFV3JdKDl7cY5GJlHV8y0jUz24YouMWxNwzR80E0UDzB2LUcVoOKIj1x/H2s1n1JV8CkG/YDphamleJb/UC3+rW9SxOlRBeiudyk/YnXmez3HSwbdCDXiwl9vq46onIYGq1Mm64pRnHAxb7MRRTTJZKfL7EO4losJ2+4PZQa8vT8TZXv0H+S003yTJDt+1HxGfcs+uKJ854oWgg7AzTxyo4a47bnRKK6Hs29XuAw1YjpIzCQqMAScyWnSXFXWT4ib5vHvBpffnkb38SyXumrFmUaGo38a1oZ1sCiogs8hFx3A4XTFt5bwIpXGcXaqBDWj90QsRVL0QGga0a6b6n/hn3DJNeE6hblEZE4w0rdvfbjXs9XwPL2bjkHGa6IYJHn4kkT0mg7J6kqDSZsrhvgPjFmikFTRHVzfpHhjmOszIpxXk9r6F4msWjfe2839kfF1/buHQMiC6xsPSaVRPmGZctt77ojOHjBm7PayhZ2G2HYDmToZQbV5EReLKwPysyDvjRHF1N7Zf06+HjBryUU198kfiWB751NK16eu65gPlSHQNxExl9Tjo5x6Zsh+JbuVdHgI+BuBq9yGCClcjwn39mIo5xXJVkfq07cW3jwoVhL9+fWV2YrPz+pUSH3R9jrqOtp8tmN5RerM865Z95DSULpwSDToTFvtQ8qkQ4JRsMEicmPkSEQUR0CilnZV5D6cNG6ts2iU5rKC4dgfY5N9rFL7vjhUo5vybgVFLqr8PHDnx1dmPpjEObmjsRzNRm893NrfGdydCD+19rkXIaOhxZQqK8hpLxAP2AQF9zHOe5vMbSokPXC4hvRehbR32vT82we8KN2/FfOOYzQZ8R1uFfeViC3h1XvZnJsBMZfZOoP45xSFmsDzI8X/NNHDrgbuvNnp81v5Bd+uTACw8NYaJiAoaQUn8dkjVmQ3Z90Tib78h9seg0q/ttdGTrhrkzRt8I0BUdAvz8xETu9t22M3I+vS/mHcG0jUv7EWiBVcdhkckvt27pWBDN+bepMIZBD049/8yupl93WpVlf1PclkYPbmA0v7eHmXcsW7XtNes6WXlvApF66HCBT0QF5PctEN+KyreOEkLZSmQQqz3x8LnsuuKJsEwdwMwVj42d50numGMhrnozk6HJqgGpFGdAvEVBRmGhb3bDozdNW3lvQrTfFSi7JwlMxhttqL1tjZe/JbexJJsU3RjJswx+bfnEfHOVHwySTklZRHRYLhTCWJ/y/SVQFjCeRSG/utSiEb5duXLLm7a/LWd96Why8Lsjv0//uWr8vO6P3DHZTSN+vLM91n6b7PjmWm0aZPyjatzct03rVjm+33YyWv1VVxdfEdhKZPgGD4nb+q0+c5TdvT2gpyPZHJh88km3dsysy8w79n3S/kfxrch9q8t4a7E0fVhh43Lxl+M4d9gVi1mHQ7/06v3HRFz1ZCZD4RWrYEB2ybu84IyxA34LhT/3ST/5ucDaxadG813h4UMvJkIfw4rdXD5pgWebuAJrF59KUBFvGCKGVQrb2ZljfkD0xTU/Zm53dds1VsfYyLwxAKixDf6BsqBfJWJpxw1QzLyjxXVvM/waK7EcGn5Gv1j6bEZhoU8pfN8yuBpPh+ZkjprWcT2eGe8c+Pijv3Xdz8Bq+cPHanA82vfU1YtTiOjXloLbOllTzsYl5yhFP+ukof+sm85TfKsb3+ryrU6S9fq/CrnhWPtcbv3S88k+w+f9yyZc7V2q82MjrkYvMnQ49KzVQ6y+EU+BkVtfMg9EPzhUKxM5JeHl2fWl34pYvSoyvsqXgGe9+h2BsnuSODmhhAiDOniu8XE3Ddc4sObWLR3LCncd8ZuIfr5s3Px/2MyGkOJvmgd/+2x0PGL0bQTK6KQjucl4oxqx3f6BUGJMR+nDx/a/BqDRVg+5WG3ysSnBoOOQ+u2RhtS3r5p+c/tR/NkqkZ7jw/B4tPH+gxNusZvFANDmWrXNjMJCn/L7Hzri5ArjZbW9aqn4VnS+dRRhO8P2GVfRkJg6XDBIpHy/sfwdn7i67TZvy3AMxFUvRMaulVtfZpvpKcK58RMYS88nR/1vhwKksoNf2Uz3d/jVNnshPLlJMaOw0McjhpWA6IIOU1b3A2Q4/cjhcEur0WVV2WsWDVA+36ME+Dt414ufrHjzHpuy500fOcZ09zUzf7prf+g5m+/PriueyKBbO/my5VUZc5Ybf5Emq4v7KEmfHsuROaDusAxiob172jeYfDY1a9TCTqb832iq2Vx0VBNpftayrZwf6zaeva70TChY3dvDzFurzp/7nlXHnNH/h50FXBfuf3Y7qye+1a1vdca0lfcmEHCFdYh2fGmx9Lm8rJEFRHSxVZ1q/sny8Qt2eVaGYyWueiEy1gSDLhjmP4BwccQdvAUHpzZ9tQQkdWgwrQjr+RFnrWPzm051OLzNC8U6fNzAv4Eou4PjbOaw+2uAzzFzNNSbHF0NlAX9Tr/kMoDO7PANzWGXr7FNIMOkbI7IrV4z5RrjEwyB9Y8M8zmqvOMpG2b+lFrab7YpZzgcXmPl/EzjYuW7AwYn3EqWy4rEXGey3h2oXzqSiI5YY9XM/6+7um0/wE+D2WLKlSbHso1nFBb6fEm0xPySws9sZTfDmNOw5FyoIztmZl6yLKPgWfGt6H2rM/oMOflC60RmADTxpFjZ7+BlcspqoMWMVbS98mEvy3GsxFVPRMZBlWZ+YoFAp4XPyLkwpqObutKzlS9hdaeZ7LS+pXJ8wRuRVy5SLT4e3VnoYJBys0bdTcD/6TiycENugXJ8GcbH4xhrTN6nR4y6v7O1Rs24cfn4fOtMhIrwdXPj6tXGDWHNfX10YuKKzqbJCXRL+YXzrab29zz+1itgNt6VTkQxCWR5G0syWOHHEYjfboV+oCzoZ+Vb2vEiJ2ZesmzsnG7369RMKWhiwkvmbYUnR7sH6micMXbgz0D2syUa5r8hZ93ik5TyL+84WAHzx2379Q/Et7zxrU7ryeEZkTynQJfGxOGCQUpOcf4IopMtBMZH7SH3Gq9TsR8rcdUzkdH64Z4lzOY7z5Wi+bEqVF59yTcch14gQlonI48n1faq+6J8hfEJlf179e5IXxIoC6jcrFG/VKR+2Inn/mj5xLkvaWLzC4MMAmte5qhbidR3jnydfrAqI/+RiH4I0VfMY5k2SqIzJRh0uF/q0k7XCxmrK6rf/KttMdcEgy6T1Qh32sG07t4xdfXiFPKpRQRyvjDzZtZzdrvT2z1z1M9BXxwlM+Mj120zPvppc9aeQI5OSrghJu28rjiTgdsj80l3u+lMiZOU8CiBTuvEV28yTWwkvhUZBJUZYcwZl7eh+Gue+1zWqO+ALI/9unpB9cQC7/PFHCNx1TORUZO1sAWEP5obSM3PWV862usCzW4ovRiOeq4zgQHwdtXcXBCtoiTAeLq430D15YgExpOF/XlEXqUidWtnHX5l9aY/H1LsxvtbXISOunSTW18yj5Tq7HjVq23v7/uPiGd+YL75T4cdoyNyQzJH39Vx+ejgu3hvWOvvRHpvAWncb9HIE31O0tVe+W6gLKD6pyY8AsJXDx8tg9nopkaXj16/efUlk4jUzzsJQNfbrBXrtvb7AG62sNP1Oc8vSfeynWfXF40jn3q0k+ncWmZ81G2RQmQkMoaPG/C7TjNiMi+vrN5SIb7lrW994Ts3FJ9FhJER/2if82PPfQ70P5bRL7hs/JwnYtH5Hktx1RORAQCtB9y/gNloxykBfpWI+yLJ/tbVNNbshkdvYkVPdpbxj8F73TbMiPSegi/GF/MshsrxX2DduBqKR3HqgI1dVPba5o923vjvyqaTTL+3vUW93XWQKM4lp5Ojscz7yQ0FarIWRpwKnoiNd8qHd+7t1ra5DaXXQ9GPOq0bl2+KJl1vRc2mp5j578a+QPh54IWHhnjhv3pE3n8R0ezDe0yX9VwiMromvBXUZf0G1i4+Fc6RnTKYS2w3cS27YP5OaPzFvP4xSPVN+F+v2nruxqUTfI6zquO0PJj/1bZfLyBwSnff0bZzf7e3w85uKL26s+ReDH6PmpuvtQ244luWOGR+ASV4bUfhS8QFOQ3Fl3nhc9kbis5zlO8JEBlnq2aNoooVm+6MVed7LMVVz0RG7eS5e5iOPPLYtdCgb+ZmjYo6MUl23SODZ2eNLofCn484DXHQAV2t9exlk/K9uWqd+AOLz94WqFtktNP5YMKw0u9AOXWdHS9jxjvt7Trv8GNgDBiLjJTEUGJnASivofQHpFTFkbbjsOtyoHzcvKiunWaQ3/Szyel9Tu1GSN6qFN3fhfr7a1Wt/Q72Du9gZv6txazWEJ3S5y/RbGSeEgw6eVmj7iOiWzqMVH69bGzBUwwYdQTJLg3q7O856xafxCkJqwk4tUO7+JCamyPaxOU2h35vPNV+0E6Zs7PGRH18b3ZD6Uzy+54FKPUIX2WdXzOloIlB3eaw8Q0ecNRd+bmNpQtY4eFOfKyNw+G8iAYr4lt2YdbiTg5mLGbmRzr0wqTIWRrtnqC8+pJJjt/31BGpA7oRPU2ftsR05H9MxVWvRAYANK3Y9N9gNr6lT5G6Na+x9LZIGtKUYNDJbSy91udL3AKivC6qIswuFywbW/CUh7X7okVTSWUnufRoQmNKMOjMbii9evi4gZug6IFO715gfleF2y7puLZHxMabULVKzD5C1Mwc/WdSdE+nm0cZ13oy1cfmOQK08nU6RZzz/JL0vKzRZVD4VReN+hnatulmLxr1u437yhncaDFSD/CZeX+NxIcDaxefmpo1ZiWRuqFD0KxS2ypvP9jZmI1YVKKvoOPfZjUs/apKSjxStDK3cSicHenM3rKLrv6QNG616zVwR25jyX9FYqdpG5f2y2sovQ+KHuv0JInGt5eNLVh3qE10K36cRC7o7O+Z1YXJsxtL71JEX9i7cJif3RRNlkPxLfP6ZosjouEWrgHznzqxX5pOSVwXydJ8oCyg8hpKf0wOPW8jMMC8zt3XmmlzmuNEiKsRi81OK6duURr7kl62vJnuBQqFFpZPmNdt2tPM6sLkxPT++XAOXlB0lEpo05oDVePmVHv5o3Mbiy5X5LPsfLmJXf6VC73Of2DPG61Jg/r4HX0WKd+lAM072tojg99j153SWUrf2Y2luzs9QdPp92Afs17Q1qzXJCXTJCLnThDGdm46/kVlRr4n6W9nN5Y+Y3rTIwMhuPoWxW0lzW3+tqRkNZJAAVa4lkADuihrXWuze0Xt5Lme3VcQWL9kBCf4X7Y5PsfgZ1QofJOJDwfWPzBI+/teR4RbO3nHxtYdey75bIkq76XSPV399iOCO/P3VehAGVRSuvb5rgHRzUecigDA2p1TObagNMpZH8rLGl32hWl4MzbqcMios566enFK/1T/NSD1k46j5X//bP2jyow5v/985Nn46I7ujmgyczuAW1VL+6N7mtHUf7DvVIIzgxVupK5G98z3VmTkf198K/a+dXD51qk062u5rjIjf8LBui8tIqKCzmIfWN/Z/NHOP3ebECwYpNwZozKVUr/oKj4epTBP0f6m7PIp3zsQ6873WIyrnokMAMipL77IUWq1zRrWwfP39BxDl7Pr1oHxQUvTrp1JAwYO0IkqzSFfBgGXEmH6kdOlR0yfHdDsZns6g/G5wg369YjRb1hdTBO5XN2uXfeyru4MmP3So68AOMfTV2q+u6Jm0y1eqde8xpL/JFJ3x2bKkNeqpr0zyqcu3Od5I64vvQoOWQZLDjNTLYOXsW5vYOYP2j7Z+2nfIf0HhdlJUz7feLCaQopzjthTcLAJvNEe0l+YscprfPQNIozx0GrBivPy7/Dim6ZtXNqvj99XZ5098tCMIDNXALyOXXdHS9OunU7KkH6JKUiDg3NBzqVgnkVEg4/yHbdXZFx1Z4fg+ySILvPWz/Tf1NaqG7w6hii+1W0H+iCIvm0Wr/DzirFX/RoAsjeUnu7zY3OX/Q7zv5hQwa5bA2B7+4effujrl5jgJCWcBB/OPpSmO5OIRkXw25fS1vevLb/yh62IA8dqXPVMZABATkPxBUo5ywkYEudyvcravbJybMHmWL0gt77kSuWoR2MsMJ4Ih9sKjrY7O6+x9G4i+k8PveunFdVv/reX02OB9Y8M04lJ2zob9UQ3W8jF+5rar7W9cMmqITeUBknR7XHy25fowIErOk4zz24svR9E13tktJKK6k1zvazf3PqiM5TjrIxIaEQeBF24fG3luDkPHym8S28HKOjdu/Cw2lrxXa/zHIhvdTWICyh9Vt4OAhmdSOJ295zKiQWvHRYTbyOiOxE3Z+Q2aLq5ovbN/43nssKxHFdtOOo64bKxBetUW/tEZt4cv+Cj/9a6Y8/EWAoMAKiq3VzO4JiJDM36rk9WbJrR7fEvVz9kl4HxaEEbCysyrrrL64ZSPmnB+2C+18OgH2Lm71dWb5oX64ZQOTY/CBcLmaFjG6fwdHhfyzc7W8fmMBd55FT/+3bD3vle12/VuLlvtxxwJzHzk3Fq5R9orb/VmcAAgHALlnjRJj5rh00r3rzWa4EhvnWUkDZ81nmmAgPM71Y+vuUL16Y3VW/6jc2+wCiDUYPLoUkV4676W7z3LRzLcdUzkXHQEFdvc92288H8iFcNvwsLveJqd2rleXMWRnPc0phgkNXW96+BR3eTfGEWJqQnV2XM+alJGt7K8QVvgPFAlMp1KzSfXzHuqr/FzFG2vX87GA3RVzOvVaHQ1ysz8u+NV6OuGHfV3wg8kxm7PXdbhmbmXzRVv3nF8inXdHr/T+WEOWsBjmIDLodZ808qajYtbFy4MCa3U9ZOnrtHbds0A8x/YLAbs2auURQOt331aMugyy/I3w7g4ej8DPtYu9mm7VB8yzvfUj7fDIt6WtExDqwJBl23tb0AbHc7uKV/fKKZr/uk+s2Jy8Ze/XKPdcDHcFw1xerc+6yGpV/1ke/XRDTTw5b0rmbcuatm0yOxDAZdTlmV3ZPEI4b9Idopx0PZUn/1TsPev9g21szqwuSkYQOfsk2vzGAXjAdCLQd+ZHKnSbTMXFsy1J9MK4noG/b2wRbW+pfO21XFsRhVGtX1+gcGsb/vz5hwMxEleNGwORT+UdWEed1enhWoW5Smfcn1XW1+PIpfveFq95rl4+bWx8tOeQ3Fo0DqVxFsCD3aD3lWs3tn1di5a8x87cG+CSl91yGS/UrMy6k99KPySVdvE9+Kv2/Nbny03nTDpavdqV0JzsCThf314IGlRJjmnRviHTDfq3bvfbA37Fc4HuKqpyLjM7Lriif6fGoeM6YT0RkR1HQbgCqX9UO+7cue6Q3GyW0supzIuY1AF1r+luc18193fdpWFc2Rp8zqwuTEoQP+QoquMZkWA+MR1d5+VzwDKXBwo2CKz/c7gK49InlPJ1EMwNPM+sGmmi3lPSEiOw1eGxcPZ3/Cjxg00zYwH9q896Rm/T/Lajavshk15G5ceory+ctMxCQztjDzf7/buHdxrGYvui1v3dKxyvHdwITpxtPfHUaLYCxnHXq4aty8F63jzJpFA3z9kh7s+nj7ES9co3Xo1kjeJb7lDTnPL0l3+iZ8YOgf+5o//Oiko54WCQYpN3NUrlL0q8j3DHETM1YyuOrdhn01PdWejve46qnIONwBcq4YPcrx03Qm/gZAaQCfTIQ0Bg0h5lYAuwDaBfC7zNhAwAb6tKkhHkeEImokDUvOdSjhCgZ/E8AZBAwBoS+D9oCxi8A7ATQy9NpQC61dceGcD7x+vyLftwF1KYG/BCCBiT4G+GMwvQy4q1V781Plk767uyftFNi4dIx2fFcT0bcYfDoR+jNTEwEfAtwIxosUaltVPmnB+73W+4NBypsx6usgZB4aRaQzUTqY04iQxIx9BOxn4B0CXmHmxrZPudb0vosu35k5ciaUmgNgEjHSmKDB2AXCZmhsBHN1Ze3mDb1l2jNQFlD69Nxz4aPpAH2NCOnMSANxGoC+xNjPhH0E+oQZrwP6Va25/r2X9r/oRUDPrVs6FsqZR0QXE+FUAAOYsZtA7zP4XQI9rsOhFVUT5u0Q3+pZ38qrL/k/nWYe7ny25tHK8/LzjfuaaSO+5jgJWaz4a8Q0moF0AqcwIQUMF0T7CLwPTB8y6ddJq9eYdWNT7ea63t4RH1dx1VORIQiCIAifiYzGRyuJkGskMtidV5lRUCRWO75RYgJBEAQhWqatvDeBwFONBAbYdd3QKrGaiAxBEARB6Jbkk1Inm2ZBJaYXIr3dVRCRIQiCIJxgkOOY37rKvEIsJiJDEARBEMxEBsM4PwbCulosJiJDEARBELolu670bBCdbfJZZrxZObFgq1hNRIYgCIIgdIujYLxUQpClEhEZgiAIgmCsHMh4qUTrsIgMERmCIAiC0D2BJwv7g3CRyWeZeeeu2q0bxWoiMgRBEAShW9xB/acS4Df5LAErj5Xsm4KIDEEQBKGnOxGiLNPPMvSTYjERGYIgCILQLVOCQQdkvukz1ELPiNVEZAiCIAhCt6ROGzUJoFSTzzLjTa8vlBREZAiCIAjHKexgpulnCfycWExEhiAIgiB0TzBIRDTT/AF6VYwmIkMQBEEQuiU38+yLiWiU8QMubxaricgQBEEQhKMyJRh0FDl32DzDjk4Vy4nIEARBEISjCozUmaPvBtFFdk+qKxEMkljwxEIqXBAEQeiaYJCypwzvT33Ul5TyX0xQ14Hw9Yi+i3klQy9SLeEN5U9t/xeCQRYDi8gQBEEQTiBmN5bexaCZBE5lQiqBHK/fwcy7iLAHTM0gHABzGxibK8bmXyc1cPzgExMIgiAIXxAAwCVEGANQzEaiRDQYwODPX0AEBu8X6x9fyJ4MQRAEoYMAwKk98l7gn2J9ERmCIAjCcUqgLOgHI70n3s0kIuN4Q5ZLBEEQhM8Jp49IVcAWcPz3ZJKLN6UGBEEQBEEQBEEQBEEQBEEQBEEQBEEQBEEQBEEQBEEQBEEQBEEQBEEQBEEQBEEQBEEQBEEQBEEQBEEQBEEQBEEQBEEQBEEQBEEQBEEQBEEQBEEQBEEQBEEQBEEQBEEQBEEQBEEQBEEQBEEQBEEQBEEQBEEQBEEQBEEQBEEQBEEQBEEQBEEQBEEQBEEQBEEQBEEQBEEQBEEQBEEQBEEQBEEQBEEQhNjy/wHQTiI0JBvM6wAAAABJRU5ErkJggg==;" vertex="1" parent="WIyWlLk6GJQsqaUBKTNV-1">
          <mxGeometry x="98.19" y="203.5" width="83.81" height="27" as="geometry" />
        </mxCell>
        <mxCell id="mh7DM1R_hKsIhI1hNfwh-15" value="" style="shape=image;verticalLabelPosition=bottom;labelBackgroundColor=default;verticalAlign=top;aspect=fixed;imageAspect=0;image=data:image/png,iVBORw0KGgoAAAANSUhEUgAAAZAAAAGQCAYAAACAvzbMAAAgAElEQVR4AezBeZjddX0o/tc7s5zvTAg7hCSThGQmZBFRNkFIZo6Gxd3WVosbVqlWSrXVetve5z793f/uvU/bW++j1rpW3KhYLcqiUMGZM2GVJbJIBpJAEpJAAsGEJTlnts+988szT3CphTgzOTPzeb1ClmVZlh2EkGVZlmUHIWRZlmXZQQhZlmVZdhBClmVZlh2EkGVZlmUHIWRZlmXZQQhZlmVZdhBClmVZlh2EkGVZlmUHIWRZlmXZQQhZlmVZdhBClmVZlh2EkGVZlmUHIWRZlmXZQQhZlmVZdhBClmVZlh2EkGVZlmUHIWRZlmXZQQhZlmVZdhBClmVZlh2EkGVZlmUHIWRZlmXZQQhZlmVZdhBClmVZlh2EkGVZlmUHIWTZdDQPS9Co2aA5kjk4Fi1oRJPQiCY0SprQhCYhsA/PYg/24Bns0eDnBuy20T7bZNmUFrJsOiqjrFlhsaqTJSdjieQIoYRCaEGBQlKgBS3CDPwcO7Ad27Ed2zXbYp/HVGzT62lZNoWFLJtOZmu11CLLneREJ2mywIA5mItjUaARTWgSGiVNaPRCgeR5PIM9wh7JMxrtNuBpGzxho60GbNVomyaPGbLbBmyVZVNCyLLpI3R5mS6rFC5QsxJHCzOMteRpbJHci7sV7tavT489egzJsikgZNlUNg9LkCzFaTqcpt0rhBWq5hkR/mMJ4VclhAMSAgmBBjR6Do9LtmiyzaCtNtpmgy2GPSx51EYDtsuySSlk2VRWFspmK3mLqrfjZOEEh0YNG7FWk5vsc7OKbdbYK8smoZBlU9FxWIoVzrDIak06DTjdoNmGkBAOSJIQfltJEsIvSwg0qmqwVaON+j1so4dstF7SJ9liI7bLskkhZNlUtBKd5mh1sUHvx0IU6kUyYhAP4nZNbrTPrXrttMaALJsEQpZNJcdjqbDMGRZabYYL9Hu1pBAOSJIQxl9CICGMSvZrtFejTRps0O8hj+qz0UOq+tTssgW7ZFldClk2lawSOs3V6mID3o8FKKl3yYiqGdZKetRcb5fb3GnAWllWl0KWTQUnoB3LnG6RCzS4UM3ZkpJAQhiREA6VJAmBhDAq2a/JHg0eNmSt59zpcXfY7EF9hjwhy+pKyLKp4FysdISZLjHkj7FQKJmskp9jvcK31XxXt20qBmRZHQlZNhWstNAFzlHydnu9HoXwQgmh3iRJCCSEhLBf2KPkXsltNrnNOvfos91OQ7KsDoQsmwq6/K6y9yicrmahqSIZsVvJtar+TY+79doiy+pAyLLJbLZWy3Xo8C7z/IEmbQY1GpUkIUwWSRLCqGS/wibJPTa6wwZ34n7hKeuxTZYdEiHLJrOylyt7jZK3qnmtqS65FxWFa9T06tavIssOiZBlk9E8LNFqmd+30HuEV6o6TkIgSUKYrJIkBBJCQqDB8xpt1ORuA2632R36/Mw6g3bIsgkVsmwyKmtStkjJZao+jGZhOtmDDQpXqvqubltV9MuyCRSybDIqO8mFujR5h2edZ0QYkRCmmiQJYVRCeEbhPsltNrvNg+7RZ5udBmXZBAhZNhmVvVXZu5WcqeZE01Uy4hklP1D1b3rcqdcmWTYBQpZNJm3ocJQOH9TmQxotMKjJqCQJYepKCKOS/QpbJPfY4jZ9brfOz+ywS5aNo5Blk0nZLGVLlXxYzQcQsgMKa1X9WLerVfTKsnEUsmwyKXul11mtye941koJYURCmC6SJAQSQkKgsFfykM1+oM8PPOhndtojy8ZByLLJpOwdyv5QySvUzJX9eoWfqPqRbj9QcassGwchyyaDNnQotLtMm49q1GbIDAckhOkrISQECs9K1tnsGn2utc56Ozwvy8ZQyLLJoIyyNiUfV/VnmCFk/5lCj6prdPuxip/KsjEUsmwyWG221V6hySWe8w4jwoiEkI1KCAmBwi7J/Ta72oOu02eznWqybAyELJsMOp2h7HyFN+i3UvZSJM1+qOo7etyi18OybAyELJsMzvVWq71HizPVLDQqSULIfllCSAiUPCG52xZX63O9dbbZYUiW/RZClk0GZZcq+zMli9Q0yw7GkMJVqv5Ft7tUbJFlv4WQZfVsLhZrcZJPWOATGh1uEAkh+48lhCQJISFQeExymy2usc6PrLPDDll2UEKW1bOV6DRHq08Y9HHZWKgpXKnq67rdp2KnLDsIIcvq2Wu1eK0OzT5irw9KCCMSQvafSQgkhIRAYYPkZptcY50f67PbTln2koQsq2dlxys7Rcn71bxLNjaSEc9p9g1Vl6vo02uPLHsJQpbVsy6LlZ2lcJGat8gOVkIgIST7FR40rNtm1+lT0WevnbLsRQlZVs86naLsNQpv1e81srGVjHhas8tV/bOKR/TaJ8tehJBl9azLObq8QYsL1Jwp++0kSQijkv0Kdxp2vS2u9ZCfWI9tsuw3CllWz8ouUPb7SlaqWS4bH0k/Nin8o5ov6FZVkWW/Uciyetblbcreq3C6mvmysZEkIYxKRuwzy5UGfNX17lexS5b9BiHL6lmXi5X9scJyNUfJxlfJXapu1ONaFbfIst8gZFk9O9dlzvMxLRaqapSNrSQJYVSDPQb02eZyG13hIc94XJb9WiHL6lnZXyn7r0qOUJONt2TEoMKX1XxOt/Uqnpdlv0bIsno0F+1mWuKvLfBXGjUZRELIxl5CSPZr9RPDrnO/69ztbtvxrCz7BSHL6tEqdJqn1V8Y8DHZxJrhWUPW2+2fbPcV9xnykCz7BSHL6tFrtVptiSaX2euDEsKIhJCNrSQJ4YWS3fim3S63xkPu8awse4GQZfWo7FhlJyu5RM17ZIdGoVfVdbrdqOIeWfYCIcvqUdlxyk5WuETVuyWEbLwlSQgJgSZPGnKfx3zNet+2XtU2Wfb/C1lWj8qOVnaykj9S817ZobRP4XOqPqvbJhWDsuz/CVlWj7ocqctyLf5YzftkEy0hJAQOUzHgKte7UcXPZNn/E7KsHnWapcsyLT6s3wdkh1bhSVUP6PZlFVcgyaa9kGX1qNNMnZZo9Sf6fVA20RLCqAYM2WGrr9ngK9Z51A5V2bQWsqwedSp0adfiT/X7sKw+FK5X9V3dblbRJ5vWQpbVo1WadDlRiz8z4DLZoZIQEgKFrZI7bfYNff7NemyTTVMhy+rRKjN0WajFxwz4iKw+JCN2K3xSzf/R7RkV2TQVsqwedaJLmxZ/od+fyw61hJDsN8tX9fu8G6xTsVs2LYUsq0dllJ2g5L+o+bisvjTrVnWNHj/W617ZtBSyrB69BmVHK/y1ff6LhJAdKkkSwqgGmw240zZft9HVNmCrbJoJWVaPyig7XMl/VfPXsnozhC0Kn1T1j7oNq8immZBl9WglVmkx038z6L8ZlSQhZIdGQiAh7DXT5wz4RzfZ4iaDsmklZFk9OhVnanKMv1HyNwJJVm+afVfVN/W4S6/HZNNKyLJ6dAwWCCv8dx3+uyYMGpEQskMlIYwqucc+P3Kja9zqFtm0ErKsnnX5G2X/n0KjmqzelOxU9YAeX1ZxhWxaCVlWz1b6hNX+WotjVGX1pgGDttrqH2z0KRsM2SqbJkKW1bOyS5X9mZJFappl9WhI4W9V/a1uu1Vk00TIsnpW9h5llyicrOpYCSE71JIkhITATF8y4NNussFN9sqmhZBl9azszcreqeRVatpl9anZ91RdocdP9NosmxZCltWzsi5lb1byWjWnyupFQhhVcrN9fqDiRyrukk0LIcvqWdmpylYreZOaLll9Kjyk6lbdvq3ietm0ELKsnpW1KztLyUVq3iyrLwmBws9VrfMjn3eLr8mmhZBl9azsOGUvV/IBNe+W1acCVY/r9ncqPimbFkKW1bPzNDnPIo3+3HMulRBGJISsPjRgSNVW/8MG/9MGg7bKpriQZfWsjLIjlfy1mr+S1bfC/1T1P3R7TkU2xYUsq2fz0KHREn+pzV9pdLhBJITs0EsICYGZPqnf3/qxJ9wkm+JClk0GZR9R9jElC9Q0yOpTk8/a51MqHrHGgGxKC1k2GZzrYuf5Yy2WqzpKVp+afdlen9PrIb2elU1pIcsmgy6/o+zdCmeoOVFWn5p9Q9U/63G/Xk/JprSQZZNBl9fq8lYtympOkdWnku+o+oYed6vYKpvSQpZNBp3OUHa+whv0WymrT4Xvq/qWbneoeFQ2pYUsmwy6nKTLOVq8Q83rjUqSELL6UHKVqm/qcZeKzbIpLWTZZNDpBGWvUPhD/S6S1admV6r6qh4/1etx2ZQWsvrWhg40YlBJUkhKQrPQIBmWDAlDwrBkSDIsDEkGDKnaiy3YZfLq0qTLiQofVfMnmCFk9abZ1+zzRRUP6vW0bEoLWX0ra1LWojBL1RGGHY5ZQovQbNggBoQBYdCwAcmg0C+p6veUn3vanQasNXmdhXO0mOUTwl8Kh8nqT7Mv2OezKtbrtVc2pYXs0JiHdoVGRxp0pHCUcCSOxOEGtGpU0qHQoaRJYUCBQlISmtCAJBkUhjGEYcmQMCzpN+R5z9vjMc/Yao9BezTaI+w2bJchT9irZgt2qV+zcSKW+pBFLtOow5BW2aGVJCEkBFp8Rs0/6LZZt2HZlBayQyF0OkqXOQptahYIbcJ8tGGu5GjMQklocrCSYfRLdgrbsR3bhS2GbdLvAU/b4E4D1qp/Xd6i7J0Kr1KzWFZfGv295/2tXk+6RTbFhWx8zMFilMwybA5OkBxv0DGaHKndkdodqdFRBh0pHIkjhSMlhwstEgYxhIRwcAINkgZ78Az2YLdklyFb7bXJFo/aZhM24WnrsU39OdeZVrtAizeoOccBCSE7NBowqN8W/8t6/8tG+zwum+JCNj7O1WCVw83UbsjJkhVYjsXCPMxEo0OvhqdwN25RuE3V/brtUZHUm07zlZ2h8B793iarDyVU7dTjb1X8A5JsygvZb6cNHWg0y6C5Bpyg0QkWm22xE5ScYMhsnIDZwjGSwhAGkRAOSAi/KklCeLGSJIQXI9BgmwYbNdliwCM2WWud+/TZaqd+9WK1Zqst0uQjnnepZIZAQsgOlcIu+/zMjb7oFt+QTQsh++2UzVB2uEKHqlMkL8MKnCTMR5PJ51nNrld1lR536PWIelFGWaHkE2r+ErNkh17hXlU9un1PRY9sWgjZSzMXixHmmKFDh8U6LNakzYA5whzJbIOOM6RRQvhVCWFEQph4CeGXJQRKtkru8ahbPex2z7rf8562Hc86dNrQgXZ/pM2fatRhyEzZxEqSEBICM/3AgG+5yW1uskE2LYTspVmpUadjtDrdgC6cI7wCs0xFM6w1pNtu19hujfsMecih1+VNyt6pcJaadtmh1eyL9vknFQ/r9bxsWgjZbzYX7QjzzbDEYost1q5ZuyGLDVpkyNESwq9KkhBICPUrISRJCAmBJs+ZYb197rDHLZ50h+3W68MTDp1zneE852vxRlXnGpUkIWQTowGDfu4xn7LBp2zwtO2yaSJkv9kqJZ2O1+pVBnThbJyMFtNJsgM/U/iWmqt0e0rFodOpTdnpCu/V7/dkh0bJPlUb9fi0ii/IppWQ/aI2dGjEAiyxWLt27Zq1G7TIkBMNOlxCOCBJQiAhTHZJEkJC2G+GnUruNmyNTW62zk/1edZOE2+VJl0WafER/S5Fg5CNv4QwquQR+9zhRle41bWyaSVkv6isVdlcJWerKeNVWIYmGckAHtfs26q+pWK9Xs+YaGfibCVH+IQGfykcLpt4zXpVXavHjXqtlU0rYbqbh3YFFgpLdGjXoV2TdgMWG7LAoFYJgYQwIiGQEKaqJAlhVDJiSMkDkttscbN1fqLPFjvVTJTjsRDLXGKxyzRZYtBhsvGWEBICM/2LAV92k/vc5EnZtBKmu06zdFmgcI5+ZZwmLEGD7D+WjKgquUHVVXrcqtd6E63LG5VdpHC2mg7ZRBpS+D+q/kG37SqyaSZMN3PRjtAhvFyHDu0Wa9Jh0CKD2gwpSQgvlBBICNNNkoQwKtmv8LhkrS1u0KfbOo/Y4XkTZaXTnec8hTepWmlUkoSQjY8GQ4Y85jGfstFnrVezTTbNhOlmlUadZmtxvgFvxqnCiQjZwSvcpOp7uvWoeMBE6TRP2WkK79Xv7bKJUXhc1X26fUXFlbJpKUwXs82w3BxLnWqBszU7zaAVBrUZ0iAhHJAkIZAQsv2SJAQSQkKgsEtyj82+rc/3rfOkHcbfuRqtstBMf2rQh4VCNvaSJIRRhbWqfuRHrnaLW2TTUpguyuYrO1XJ29S8CcfIxk4yYlDhCjVf0e0BFU8Zb6fiTE2O9hElHzPDPEnIxlfh+6q+pdsdKh6VTUthqjoOJ6LRcZq93BJnaHemcJqqxRLCAUkSAgkhe7ESQrJfi4ckPTa5yoNu0mfQk8bPMViAFd6mw8WanG5Qm1FJEkJ2cJIkhFHJiKfN8s8GfcmNNrlRzVQzB4vRZIZhMzETrUKrMBOtaJW0oNl+CUlIkoRkv2H0C/vwDHZrsFu/PTaq2W7SClPVmThbyRG6NHiz0IlTZOMrGfGUJl+wzxf0eswaw8Zb2anKVit5k5ou2fhI9uAhhc+ruVy3YRVTz7marNSq1VEGHYejhaOFo4VjcDSOlhyBwySEYQwLSTKMJEnCEJ4XdmM7tmrymH22q3jCGruRTEJhqjkeS5V0ONk8r9LqLOE0Q9oNapUQRiQEEkJ2cJIkhFHJfiVrDLvWFjd42L3WY5vx8xpHudByjT7kWRcjhOy3lxCS/Qq34xqbXW+de2zANpNPGzrQiEFHSY7FsQYdq8mxFjnWIkdpNsuwVrSiVZiJVqFV0ooWNCMwjGS/hGS/YfRjr/CMZLdGe/TbbaM9Ntpj0B5Ndkt2S3ZpsNmAHTbicXUrTDWrtOqyUIvf0+/tWCTMkk2s5DlsUPiimst126ti/JRRdriSj6n6OA4XsrGSjBhU+JKaf9Jtg4q9JqsyyhoVZqtaJFmMJegQ2iXzcTxmCOMnGcRePCE8JnlM8ohGd9hnrTWedrMhdSpMFbMVljrRMqdZ6CwznKXmZMw0IiGQJCFkYytJQhiVjHjWLNcZ8B3Xu13FNuOlDe3o8D5tPqjRCkOOckBCyF6shJAQaPSMQX22+or1vqnPs3aYPOah3bHCfGG+DrO1O1aTYw04FsfiWOFYybGGHG7AfuFXJYSXLiGQEGhAI0K/ZDd2S57S4DEDHrHRIx7xiGSD5DEbJdvVjTBVdFmuy0qFN6tZjVYhO9RKHlH1Ez2uUHGN8VbWqewtSl6r5lTZ2Cjcpeom3a5VcbPJptNcZUsVTtfvDCzHQhyGBvVpn+RnuF2Tin3u1GuHNarqRJis5mGJEQtwqnZnaneGcIqqOUaEA5IkhGx8JUkIoxoMGLTFVt+1wbet85CdnjNeytq8zumaXOxZb5MQSJIQsoOxT+Hb9vmqG93nFrvUqzlYhGaHG7bAkPkaLdBhoXYLNFtgQJshsw1qlRB+k4SQJCGMlSQJ4T+SEGj0jAabNXhUv402etQjHsF6YYv1qrY5ZMJkVUbZkUpep+ZtOAOLZPWp2RpV1+nxI73uMV7KKGtT8udqPoom2W9jAFskn/GMz7vVPneoX+dgpVlmWm7ImThbOA3zhCNMVsmIQcl64W6FHjW36faYimcdImGyOR7LtFruVCdaqdnZ+r3SkHkGNUkIIxJCkoSQTawkCSEhUPK05AGbfVufq/R5wg7Dxlob2jXr8CFtLtVosSGF7MVKCAmBFg9KbrTev3lAxaPYqX60ocOIuZKTLHKixRZqtsCwBcIizDOoMISEQEJ4oYRw6CWEJAlhVLJfo6pGWzXZZMBDNrndOnfqs9lOVRMsTDadZuqyWIt36fdOzEWTrL4lI4aVXKnqq3rcq9cTxkuXNyq7SOFsNR2yg1O4QtVXdLtPxU71piyUHaXk1arOw9nCy3AYwtQ2oNm/q7pKj1v06jPBwmQxG8vNtNS5FrjQDF1qXilpEF4oIWT1IiEk+xX6JD+23nc8oNsmPGnsdVrmQp2avd3zzpMQRiSE7JclhFGNagZtttU/W++r+jxhh0NvHpYgmSlZbIllOqzQZIUBJxmyyKAjJIRflSQhTBZJEgIJYVRCoGSHZK2N1tjgFjwg7LIJm4y7MFmUzVTWruQPVb0XxwrZ5DMkecyQT9njs25Xc6ex16lVlyVaXKbfB2UvTWG9qtt1u1LFdepFGWWNmp2sahXOF87FkcIM01WyFt0K16jp1W1YxbgL9W42ljvMcuda4ELhtfZ5hRHhhRJCVl+SJIQXSmpKvmavL7lJn9s8Y6zNQ7sjLXGp+f5Eo3kGhYSQjUqSEEYlBGb5vgFX+KHbVWxxqM3GcidY5iQLnazJCv2WGbLcoLlGhAMSwoiEMHUkhCQJISHQYK9GD2n17/a63vV+puJJ4yzUu7LDlHUoeZ+a9+IY2eTXrFfVtXrcqNda46XsImUfUHKKmtmyF2OXwqdV/aNuT6k49MrmKXu5kterOR/zcZjsFxXWqvqxbler6DXOQr2ajeUOs8xKC71OeI2qUySEA5IkhKy+JUkIoxrtMOintrrcBt+2wbCtxl6XM13oDZq9wXNeJSGMSAjTV0IgIST7FdZLemz2XX3+3QbJNhNvLto1C+3CyZZYod1y4WWqOiSF8KuSJITpIklCGNVor0HrbHW5Db6pz889YdyEelV2mLIOJX+o6r04Wsimlj0Kn1L1Kd2eUjH2Oh2v7BUK79fvnbJfLxnRr+Rbqr6mx/167XSorNKqy3wtztPvDXi5MF/2YgwpXK7qC7r1qXjGOAn15nichBU6LfIm4Xz7vNKI8EIJIZtckiSEhMBhvmPA113vLhXbjbV5aDfPEn9ivg9rdLRBGQkhIVDYJrnDJt+3zvX6PGmnZKLMwxIkJ2CZdsu0W6HZyQYtNegEQ2ZICC+UELKEkBBocY9hP/SQa93rdluwy5gL9WYlVjlOqw8Z9GHMFWbIpqaS+1VV9LhKxY+Nl7L3K7tUyVI1h8teKClcrepbut2h4lETrYyyI5W8WtUFWCWcgibZSxf2Sjaq+axdvuxOA9Yac6FeHI45ONUSJytr8DZV56NBOCBJQsgmq4QwqsFzBqy31Zesd7mN9tpu7JW9yuu8SaM3eM7pEsKIhDB9JISEQGEX7rXJ96xzrT6P2WHQRDkeyxxjuVc60VmanGLAUoPaDZklIRyQJCFkvywh/KJnNfiy533eGo+6Rc0YC/ViKU7RYK6LHOX9Zni5YcfLprZkxKBmn7PPZ1Q8ao1+Y63sSGUrlHxIzftk+xW6VV2tW7eKe020TsfpskKLt+v3NhyPBtnYaPZ9Vf+ixx16bTLGQr04zVFWOdmRLhLeJpwgOSBJQsimioSQ7HeYH+v3HTfo1qvPWJuHDsdY4hJtPqjRAoOajUqSEKaqJAkhIVB4Dg/b5HvWudo66+2010SZbZalllruDAu9WniVmmUSwgFJEgIJIfvPJIRRhTvtc70b/cAtbjfGQr0oO1fZG5Wcp+ZM2fRSslXVPXp8TcV3jZeyNyt7p5JXqWk3XRXuUXWTbteoWGNihU6nKztf4XX6nYsG2dgr2azqbj2+oeIqYywcavOwxGxL/IH53qPBMgNmSQgjEkI2tSRJCKMaDBm01VZftNGXbLDDVmOv02IXOlezizznDUaEEQlh6kkICYFG/YZsttW1HvY9fe63w8+NtzloR1hshjN0OFu7M4UVao6WEEgIIxJC9ttpUDXoUVt92kafs0Gy1ZgJh1rZscpOVnKJmncjZNNX4RuqvqzbAyqeMtZWCZ3atPiIAZehVZg+Sjaoul2PK1Vch2QirMQqx2j1ZoPejlcI82QTYZ/C36n6O92eUzFmwqHW5Wyv81ZNXuc5r5QQRiSEbGpLkhASAodZa8ANrne1ituMtblo16TDuyzwfo1ONuQYBySEyS8hHDCMHRr90HO+r9ud7vC48TYbyx3hJK803zlKzjHkNENOMGiGhECShEBCyH47SRJCQuAwnzfgM26y0Y32GSPh0ApdLlF2qcISNbNk01vJs6rW6/FZFV82Xjqdpex1Cq/T72xTXXhccp+ar9nlX91pwFrjr+woZUuVvEPV72GO0CSbWIXvqvqGbnereMwYCYfK8Zots9ASH9LmEo2OMuSFEkI2vTRg0M9t9VkbfcYGT9hq7J3jKOc5WYv3q3k3mk0NCWFUQtijxY2Sq/VZ416P2oJdxs9srZZbYrkzLPBq4Sz7LEeDcECShJCNtYQwqnCDqu/odrOKPmMkHCqd2pWdrfAH+r1Zlr1Q4euqvqTbAyqeNtbOwjlaHO4y4aNoQ5h69uBhhX9W9Q3dnlMx/speoew1St6opgtNskOnUFF1rW43qVhrjISJNg9LsNTrLXSRcK6adgmBJAkhm16SJISEwGF6DLjK9bpV3G+sHY9FONnrLHGRsNI+7RLCiIQweSSEUcmw8LjCbbjJJhXrrNOHHcbeCWhHWKjBaZY4S7tXCSerOk5COCBJQsgmRuEOVf+u2w9V3GaMhIlWRlmzksvU/BnmY4Yse6GS9apu0+NKFT8wXsoWKTtLyTvVvMXUsRX3KvyLqu/r9pyK8XMuVjrCTG8w5PdxmnCirD4U7lXVo9v3VPQYI2GirdZotRM1uczzPiwpBBJClu3X4HkDNtjmszb6og2SrcbeCRottdASf6TNJRodZ9ABSRJC/UkISRJCQqDR8xpt0OQWAyo2+Yl1NlmHncbebCzHEqear0vJKsNON2SeQY0SwoiEQELIJkZCoPCQqlt1+1cVPzRGwkTrNFfZqQoX6/cOWfbrJCP2Kvy9mv+t2zMqxk/Zxco+pGS5mqNNXveiR+FqVT26DasYP2WhbI6S96h6H04UWmX1pbBZ1V26fUPF94yRMNG6vEKX12rxVjVdDkgI2XSXEJL9DvNlAz7nJg+5ybPGS5dTXej1mrzZc842IoxICPUiSUIgISQESnZK7rXRGhuswXUZKTEAACAASURBVP3YZQO2GXvHYZlGK5zhRKuF8+xzFlqEA5IkhOzQKnlC1X16fEXFt4yRMNG6XKDs9xRWqlkhy36TZjeo+q4ea/TqM146HabLUoUP6/cBzBAmiyHNblT1fT169fqZ8bZKoy7ztbhYv4vRJjTL6lPJ06oe1OMLKr5ujISJdq73OM+HtHiZqqNl2QslSQijSh60zxo3+o5b3Wi8zEO7Iy3xh+b7I43aDSokhBEJ4VBJkhBGJfsVNkrusFmPdW7VZ6OdqsbLcVimsNxZFlpthtWqzkSTcECShJDVh5Jd9nlQxRdVfN0YCRMrlH1M2SeUzFGTZb9ZYbeqh3T7nIrLjbeyC5T9vpKVaparV8mIZ5T8m6pv6XGvXk8Yb6sUuizS4mID3os5mCGrbyU7VT2gx5dVXGGMhInShg5H6/AX2nxco8IgEkKW/aKEQCMG7bTVp2zwaRs8Y6vxs8pc5ztDyTvt8zuSQjggSUKYKEkSwqhkxKCSeyVrbNFjnTv0ecJO42c2lptlqVdb4HwzvEbNqZIZwgFJEkJWX0oeV3WvHperuNIYCROlrEnZIiUfVXOZLHspCp9T9WndNqqoGS/nYKVZDvMhwy7FAjSpF8kAtml2haorVDyq117jrWyWsiVKLlb1bhwrZJNFYauqtbp9TcV3jJEwUVZrtdoSTS7zvA9KCCMSQpb9ooSQEDjMtQZ80w3u0ONR4+UELMYKKy32FuFCVacYEUYkhPGTEJIkhFHJiJ8r3Ikem1Sss1affXYaP7Ox3NGWOddCF6BL1cuNCC+UELL6VLJZ1V16fEPF94yRMFE6zdJlmRYf1u8DsuylKFmrqluPq1VUjLdOR+iyTOGD+r0PjcKhk/wcDyl8U823ddupYvyVHa1shZL3qroIhwvZZFPyiKqf6HGFimuMkTBROh2lywotPqTfxbLspWj0lAE/s8EXPOgKW7DL+JmNpY7S4e3avEeTlxlytFFJEsJYSZIQRiUEGjyv0XpN7jbgdpvdap0H9WGH8XO8sNxsy62y0AVYpWqpEeGAJAkhq28lG1TdpseVKq4zRsJE6XSsspcrXKLfu2XZSxFInlTz93b5pDsNWGv8dTpT2QUKr9fvXBMrSX6KisJ1am7Wrapi/HU5QZdXKLxLze+jVcgmq0Kfqlt0+1cVNxgjYaJ0maPslQrvU/MHsuzFSAijBjT4nOd9xhqPusWA8dblcBdaptl7POsiHCe8UEI4WEkSwqiEMKSkT3KPje6xwU/xMzxpA7YZP8drtMxcy3VZ6ELh1aoWGxEOSJIQsvqWECj8VFW3bt9XUTFGwkQpm6PsVCXvU/MOWXYwmn1X1Tf1uEuvx4y3MspmKHm3qj/CCuFY4yWp4XHNvq/qKhUP6vWkidJloS5nKPyBmreiWcgmu8Ktqn6o2w0q7jRGwkQ5zyznWabRpZ7zfgmBJAkhy369hJAQKNyi6jo9fqTHXcbbPCzBSZZbYLUZfle/10oIJEkIL1aShDAqIdCoqsGjZrhP1V0ec6eHPaDPLjuNv+M1Wmau5VZb6I3CWarajAgjEkKShJBNLoUbVH1Xt5tVrDNGwkQpo6xNyV+o+XNZdjAKD6u6TbcrVfzQRFkldGrT6lIDPoyjjK0HJbea4RrP63azZ91q4nSar+wMhXfp97tokE0dhe+o+rpud6vYZoyEidKGdjN1+Lg2H9foSEOy7MVJCBR2qXrAj3zRLb5pohyHZRot90YneocZzlF1ooRAkoTwy5IkBBLCqIRA4WH81Ab3WO+nhtxn2OMewRPG32wsd5RlLrTA7wjnqJkvIYxICEkSQjY5JEkICYHDfMWgz7lRnxs9Y4yEidblUmUfVVikpiTLXorCoKrNun1SxT+aaJ0WKnuVwrv0+x0HKxnEToXr1HxPt3tVbDPRyo7yf9mD9zi768Jg0M935pw5ZyAhIQkEyOQ6E8gABrmJQJL5IUFQEbS2llZtbV+ltda+fa3d3W73ff96931ra+3abu1FbVfrrV6pBWsVmDkTLlUEuYXcJiH3ZBIhQJKZ35k5Z767s/nkAwVMgcx9vs+TaVfya6reg2bJ1FP253J/ptNOFUNGSDDWrvZua/2aZq+XO0uSvBoF1Dxnpz+x2Sdsk9tr7MxXcJ4Wy73HQu9VsERNWUQwLCIgIjguOqbgsIKtGmxQ9ZhdHrTZYzbar1c0VuajXUm7ayzydsE1cu0iAqIoCIgIksmpETU1u31cj4/rcdgeIyYYa5k3ybxDSYeqlZLktSj4pD6f0G2fe4y9DjfI/IKyq1St8B+JhtXwCNZp9H1H3WedZ91n7GWaZJYo+YCqX8dcydRTQu45Xf6Hio8bYcFYu9Z5rnW1ol901JtFBERRECTJy4sIIgJO8fcG/JW7bXS3w8baKmdb63JlvyR3s6hZQERAREABBQc12mTAo7Z63FYb1G0wpNc27Dd25qMdK7zRYm8R3CD3BhHBC0UEyeRWVtNvhzt90r0+bYQFY22NmTqs0Ow3Dfh1SfJalN0m9xWdfqRiu7F2Ja52qpk+KPotLEaTl9qPDZrcod/3VOzQ7YjxkiFzppJfl/sgFgqKkqmp7Kdy63X6jIovGWHBWFuAVvO0+aCFblXQoq7guCgKgiR5OREBZRW523W5S5efGGvzsQwXuFKbm/BWuZUigiEl20SP2+oJPdbjMdEWW+X2GHvzsBwXusAy1wpu1K8DTYIXigiSySmKguC4sg1y9+j0DRXfN8KC8dLh52Tep+wSVYskyatR9qhcRafbVNxtvGRmypyn5DdU/SqK2KXJXXLf1eXHuj1pvF2Jq51qpveK/hPOxSzJ1FbWKfcdnTpVPGKEBeOlw/lucI2idznsGsOCYRFBkpxI2W79HnKnL7jXN42X+VhhlnZvt8R1muX6bfGkJ2yw3kZ7HFAzXk7D2bjIYudbpehmg64TzRY8L4qCIJnsIoLomJm+rOaz7vSYO/3UCAvGS6Ys06bkw3K3okGQJK9MyRG5Hl3+UsVnjbdMm8wis+z3rO069auIxtt5WKnROd5ltvdpdLEhCyRTWzRsSNmfqfqkTntVjLhgvLSg1UzL/boWtypYpqYsIhgWESTJy2nEoAP2+IStPqlH3W7jZ4FTtDlVs+f0q+rBHuPvEmdY7RKzvVPwNsHZokYRwbCIIJlaGlGz226f0uMv9KjaY8QF4y1zvcwvKLla1QpJ8kpEw4aUfVzVH+n0nIrkxTLXybxLyWpV50umh7Kfyq3X6TMqvmSUBONtlQXe7DIlv6TfzaKy4HlRFARJckxEEB0z01+p+XN32uZOA5Jj5pup3XnO9U4tbtZomUHNIgKiKAiSqSGKguC4ssfluv3At9zrLqMkGG9XYZWZZrjVkA9hEYqS5JUo+6rc53V6WMV+yTGZy2TerOStqq6WTC9l35f7tk7dKp4wSoLxdhaW4QKrtLoJ1+u30rBgWESQJMOiKAiOK/m+3Dd1Wadig+nuTEXtFmj3Dov9vOACudkigmERQTLVRATRMaf6ggF/425PuNszRkkwUWROk1mh5INy70dBkCQnVvKA3A90uUPFfaa7NRbLvEHZLxvwDsn0Eg2rKfhTff7UOgfdY9QEE8V8rDBbu5+z2C8LLpabIyIYFhEkyQuV9Oj3b+70Vfe5w3R1Js7TpN3bLPFuwdWqFooIhkUEydTWqK5ml50+ZbO/tM2gfUZNMNFkLpK5RslNqq6RJCdS8pTcel0+o+KLpqvVGnVYpNmHDPgNnCZIppuS/XKP6vL3Kr5qlAUTzXwzrNDqfG+x2FtxodzpIoJhEUGSDGs0ZNBOe3zSVn+hB7tNH3OxCCu9zrnerMHNcqsNC4ZFBMnUFEVBcFzJw/rd7U7fcZ+KURZMVJlLZa5T8jZVqyTJy4mG5cr+p6o/0mlAxfRxMS5XNNevKPmg4DzRbMn01OS7ct/Q5V7dNhtlwUR1phnanafd9Za4Aa+Tmy0iGBYRRFEQJNNTNCya4VMGfdJddrnL9HGFOa6x0gy/rOZdmOOFoigIkqkqIoiOmeHvDPq0u2x2l8NGWTDRZS6VuU7J21StkiQvp8nn9fuMiid0O2S66LBa5kZl16q6VDI9RcMGlP2Jqk/o9IyKURdMdGeaqd25ztdhsTfhYv3OMSx4oYggmZqiKAiICF6syV36fVnFPbptNtXNR7uzLHeLFu/R6Dw1M0UEwyKCZHpoNGjQDnt8ylaf1mPIbqMumCwyy2WuVPIOuetxiiBJjmmyTu4OXX6g20Omusx8mYuUvF/VLQiS6atkt9xDunxBxTeNkWCymK9khYVWuNQiV2lwparXoezfiwiiKAiSySYiICJ4seiYgrqCg4KnsEvRA/rc727rddppqjobrYLzvdlS7xJ0yJ0rIiCKgiCZ2qIoCCICZvihQXf4nu+peMAYCSabNU7RYalmv2DAu7EYp0imh2hYTbRbsBlPCNYreMxRPbo96141U9UqrDHfKX5TzYcwX5KUfU3u8zr9RMU+YySYbM7ECmXLrbTIG5VdbMiFatrUzDYseKGIIIqCIJkYoigIiAiOiwiICCioKTiAXuxXsN+gXj3269GrZp+CXg0OGPSsHep2mbpWW+56mSbv0uc6UYPghSKCZKqKCI5rRM1+u31Wj8/osdseQ8ZIMFldiaudaoY3itZiNS7CDEEyNQxiJzbjCTyh7DG5rTo9q6Juegk6/KLMrylbqeosyfRWclBuvS6fVfElYyyYrOZjGRqcoeBcbdq0aVO0XE2rQcvUzDEseKGIIIqCIBldURQEP0tEQMGgggPoxX7BfgN6bbPfNvvV7FfQq2ifQc/pwR7Tx3wztDtPm/dY4BYFZ6kLnhcRJFNdRBARcKr7DfiOf/U93R42xoKpItMgM0fZZXKZaBUuwgxBMlFFwwawU7AJT+AJjR531FbrPOdeddNd5hKZtUrepmqNJCFq8jn9/lrFJt2OGGPBVNGCVsPOQps2rdq0KVquptWgZWrmGBa8nIggeXWiKAh+loiARhQQHMFTogOiXg16Ddhvm/2e1Ktuv0a9Guwz4LBt2Gf6OgdtztTunZa4RfA6ubkiAqIoCJKpLiKICCioqtlhl7+1xef0eMZeYy6YqjINMnOUXSaXiVbhIswQJGMtyvEc9gi2iTaJNmr0uD7brHPYfYYk/94as3RYodkHDPhVFCVJWY/cD3X6qorbjZNgqmpBq2FnoU2bVm3aFJ2rZhkW4ww11BARvFREMCwimD4iAiKCiOClIgIaUTCIZ/A0DgkOKTik5pAtDulxSM0zCp7GQVGvBvsNOOJJ7JO82PUu9GYdGtziWatEBERRECTTQxQFQUTAqf7FgK/4V/fqts04CaaLTIPMHCWXq+rA5bgAp6NJcnKiZ3FQtEuwAzsEO5Vtl9utU6+KZyWvTofVMjcqu1bVpZKEqqL/W5+/0G2ndaJxEkwXLWhF0dkGtapZqOBsbeZpNUfBXDVzBfMwV908dU2iE4sIhkUEE1UUBcGrFRFQQMERHBIdwiHRIUWH1D1ti0N6PGPQIUWHcAiHFD1t0DN6DNojebUWaNFmpRWus8SbBG1yp4gIiKIgSKaqiCAioOAZNRvt9Dlb/IOtqvYaN8H0Fqxxug4LlC1R1YZlgmVoFbSgGQ2mtzp+ir2indgh2oFdyp40YLcuz+iSS0ZD0OEamZuVZapWSqankgfl7tLldhXrjLNguluAVs0K5qiZp26ugrlazLXIXKeYq9FcwVzMxTzMFcxGUEMNEQERwciJCE5eREAjCobl6EMfjqJP1Ic+9An6BH0Kjqo5bItn9Dik5pCCQ6JDOKToaTWHbcVuyWg501ztVmq31mJvErTLzRIRDIsIiAiSqSEiICIY0uyrqv4f3/eIexwwzoLk5V2MyxWd7ixNlmiwFK1oxVIsFJyJJgSTRdSH50RPC57GUzgkegqHRE8JDgmeFhxSdkDuaZ36VdQl46vDG2Xeoux6VVdIppOnNPiUo/7cOs+6z7gLkpc3F4twChrNEczFXMzDHDWzFcy0TNkyRU1KojKaUBKVRCWUUBKUBCVRCSWU0IQmNCIK6qIhDGFIMIQhDImGMIQhDGFIMCQawhCGUMegaAB96MNR9CnqU9dviz49jhrUp6gPfehDn6gPfTgq6EefoiMGRT3YIxlvZzpNu/O1u9YS12Kl3FwRAVEUBEQEyeQURUFwXMFeNQ/a4Qs2+YYnsc+4C5KTc7Umq53qVDPUzcQMzDBkBmaKZghmCGYIZopmYKZohmCGqFlQQl1QE9VQR01QxyDqohrqokFBHTVBXVRDHTXURP04iqfxtOgpHNLspwY8q0u/LnXJ5Ja5SOYaJTepyhAkU1eTu+W+o0unbo+aIILk5JyNZWjCkJKgJCqhJCqhCSVBCSWUUEIJJRRRQEQdQxjCEIYwhDqGEFHHEIYwhCEMYQhDGBRV0Y+j6EOfoj41bMVuyWQ33ylWWK7dNRa5TnCJqrNEBMMiAiKCZPKK+hR83lGf1WmzHzpiggiSJJm81jhX5mpl7zLgBjRKpo5g0JAdqv7c0/7aAwb9xIQRJEkyeZ2pZIXFztdhibV4g9wSEcELRQTJRBcRRASUbTKk0yZf96i77cRTJowgSZLJL9Mic4mSd6u6CTMlk1+Tb8h9UZcHddttggmSJJn85mu0wtnaXW6JNVglt1LUJHihiCCZaCKC4wr61Wyzyxdt8WWb7NGrboIJkiSZOjKnyCxRcouqW7AQZcnkUrZe7h6dvqniByaoIEmSqeNMtCtrd5ElVmGN3GWiswQNjouiIEjGVxQFwXERwREzfdugr/gXD6noNUEFSZJMPRkys5XcrOoXsRILJBNdH7Yq+2u5v9MpVzFhBUmSTD1noh3tllnicgWrDHqjmvPUzRQRDIsIoigIkrEWEUTHlP3QkDvs9F0bPagHe0xYQZIkU1eGTIOSq+XeirWCyyQTSzSsT5PP6Pc3KrZZp2qCC5IkmboWoM2w03G+5a7U5mpcot8iw4IXigiS0RYRRASU7BX9yHZftcF3bNTvoAkvSJJk+sgslblcyc/JvQWnCZLx1uQOua/rcp9uW0wSQZIk08d8RSsscJ7XW+QNSi5Vd76as9U0igieF0VBkIyMKAqCiICy57DRdt/0hNtstMMBVZNEkCTJ9LNawRrzneIGg27GRVgkGVtlP5L7gU7fVXGfSSZIkmT6ORttCNoEr7fcSsusFKyUW2pYQEQwLCJIXpsoCoKIgKJc3Xa7/LPNbrPRer2eNckESZIkHZbpcLmyt6u6DvMEDZLRUbJR7j5dvq7ieyapIElGUwva0IiqY6rYgQOSiWK+gvO0OM+FFrlYycWGXKhmkZqSiOB5URQEyX8kInjekGiv6LuedZt1HvSQAyapIElGT5BpkikpKjgiYMARA/7NoAcMSSaWVVhtrlO9Sc3bcQXOlYyMBrvVPewZ/2Cvb3pU3SaTVpAkw87GMpSUDJktOk00Q1BCEUVBAUUUREUUUUARRUFBVERRTVFRQZuiVgWNGgwIqKuq2a5up7qauoIa6oI66qihjhrqqKOGuqiOOgYxiH7RUfSjT9An6FeQq6l7Ejskr9TZaEWwUIOVllupzUq8Xr9z0SB4oYggioIgOS4iOC4iOKDZXYbc7jH3etAOe3HYpBUkybCrFa02w6nOUrdQdLboTJwqaEZZ0IwyyqIymkVlQRllQbOojGaUBSU0IHixaAhDogHBAAYEgxjAAKoYRBWDqGJQNIBB5OgTHcIh0SHBIcHTgkPKDsod0ilXMSR5bTLnyKxUcrPcW3GWoEnyah3AemVfkPuaTn0qJr0gmdpa0IaCBjWzRLNEswSzBLMMmqVglmVmWWaWklnqTsMs0QxBCQUUURQUREUUUEQRBRRRRMGwgIga6ogIjgloRKOXCuqiOmqoo4a6oC6qoY46ahhAv6gPfegXDOJZzR7X7yF36nGX/ZLXZj5WOEu7Cyx2iaLXq7nQoFY1pxoWvFBEQEQw/UQEEQEFAwp2KbrXoLtsd58NemzCfpNekExtmSDTrOxMuRZDzsECnKPBAtECnIMzBLNMFWV3y/2TTp0qHpOcnAyZGcpWy71FtBor0SBIfrat+JGyr8l9V6cBFVNGkEwNLWhzmoJzDFpg0FxFs7SZpc0sRbMMmoVZolmCWThNMFt0mpqiOiKCny0ieOUigmERQRQFwc8SEbxURPDKld0v9w2d7lLxiOTkLECbYWfhfG3atVmhqFXNEjWL1JwqIng5EcFUE0VBQEQQEVB2BJv16LbF3XgQe/VgjykjSKaGzBkyS5VcJPd60VLBApwtmING00nZnXLf1qmiYr1kZGVOlVmg5A2q1uBytKMkoewhubt0ul3FOkRTUJBMLi1oQ8EcAxaqaVG0QJsWbRYoWmjQ2ZiLWWpOUUdE8B+LoiCY7Ep+oN+3VHSreEIyslrQqoiFaLPcUm2WKlpm0FKDlqqbKyJ4qSgKgskrIjguOqbsgOgRO1Vs0G2jx/U6ZIoKksklU5CZrUm73GW4TLASLYLZkmOafF/uW7p067ZBMroyRZm5Si5VtRpXYSVmosFUFw3Lldwtd7su3bqtN8UFycTUgjYUBDXzDVqgYKE2C7RpUdBiUItgIc5R06yOiOCloigIiAimuib/qt83VNyj20ZjZYlZlpivoFXNWXgGOxXsU3PQFoP2mHpa0GrY2Wi13FJtlipYZsBSda1qFhgWvFQUBQERwUQTRUFARBARUEDBUxo9YcCDdnjARo/Y6EkH9JnigmRiypBpUNYid77oYlwiulCwDE2C5Gdp8j25b+hyj26bjJXMuTKXKXmTqpXYhQeUPS63Wad9Kg6b6jJkTtPkdXJXYZXgMswTNJk6DmKjom/rd7uKXdbJTRNBMjEswHLDZmKZNku0WqqoxaAWQYtogZqz1ZQMC14qioJguiv5F7mv63Kvis3GSofMDW7WbLV+ywXPibYr2m9Qrx4HbNVrUK+iXgX71By0xVF7TB0taDXsdNESyy3VZpmCZQYtFSzBAjUz1RERvFREMCwiGDsRQUTwvOiYsv2ix231qB4Pi34i2mSrQXtNG0EyMWTINCh5vao1WIPLcAbKklen7LtyX9fpPhWbjZUO75X5oLILVM31UoewF5uwXtnjcpt12qniaVNVhkyTJivkLscVgkuxWDAHwWQQDTuipCL3L7p06/Y4omkoSMbXfLQrWeE8i12i6GKDXqdmuboFoiB4ORFBFAVBckxEQNkdcv+oy/269Bht56DVaZb7sIU+ouBsdc+LCGhEQb/goGifol6Dem3Vq8cBg3oV9Ir244CiQ+rowW6TVwtaUXCKQQvVLFa0UJszLDdXo7kGzRPMwzzBGZithhoighOJCF69iOC4iOB5EQGN9mj0pEY7Ddhmp8dtst4m2/TqM00FyfjKnCKzSMlNqt6BczFXcnLKbpf7R53uV7HVaFutpMMyzT5i0Ie8ekdwULQZ6w1Zj02abTOgV5chXaaeTJPMbE0Wy52LVkErlguWYDaajZ8qfir6ieg+Bffr95h1nnGPumkuSMbWTJyDU810muWWW2mZiwWXyp0vOl3wciKC5JUp+Wf9vqri31RsM9rWWOp6V2jyHkfdKCIgioKAiODFIgIKaFQXHBTtE/WiV9EBNb169OrRi72CXj1+arfJrwWtKDjNoDMwVzBPzVwF8yw3V5t5CuaqmYd5mIu5aFJDHdHLiwheKiIgIqCAgogjOCQ6INqraIe67bbYboudoidFT9mKfaa9IBlb52GlRue42OnepMH16q5CWZCMlCbfkfuqLj/UbZvR1iGTuVlZpur1RkqU4xnRFsF6ZY+pekKnzSr2muoyp8ssULJU1XK0ohVLsQDNaHDyjuAQerHLkA14XNnDBmzRpaZL8iJBMjbOwgpl51jhDJeY7WJlKw0534B5hgUvFBEkr02Tf9Lvyyp+pNt2o6UFbWj1Pi1uVXC+ujleuYggInip6JiCpxXsU7TfoH222qXHDgN2KNipaKe6I3qw29TRglZlRXMNOgPzMFfdXI1mWajJQo3KGjVoFBQEjYKCBgU0ohEFNKKARsfUNDhiwLO2edZWz6l5TsEz6BXtV7RHTdVW7Ja8SJCMjcypMouV3CT3TrQJ5khGR5Pb5L6sy49022G0ZMiUlXxU7vcwRzAWnsVuQ36M+5U9YMBGXfp0mT4uFlyuYJaiRiUNioKSBk0aldCEJjShCSUUHTOgYL8++3R71j1yyasSJKNrvlnatVlhpcUu0eBSVecbMsuwiGBYRBBFQZCcnJJvy31JlwdU7DRa1mq2VquC33LYB1EQnLwoCoIXiwgooFE/doueVLRDzU49dthqhyFPivbYasheU9c8LEQZDQgICAqCRkFB1IhGFFBAgyCIahodNuCobdgreZWCZHRlLpNZq+R6VVeiJBl9Zd+S+5JOP1ax02jJtMpcqeQXVd1ovERDeA6PC36o6D79fqJiv3X6JckoCJLRMd/p2l2g3bUWWSu4QO50EcHzoigIkpFV8k25L+ryoIpdRsvVMmu9U7NMbqXjoigIRl5EEBE8Lzqm4GkFOxTsNGCHrXbYage2i3ba6qA9kmREBMnoyKySuVHJWlWXSsZWk2/IfVGXB3XbbbR0eJ/MrcrOVzXHRBENG8J2PK7k3+R+pMsG3fZKkhEQJCPrTKdaYbnz3WSxmwTnyc0QEQyLCIgIktHR5Ov6/YOKh3TbY6S1oM1pWv22Fh9RcJa6sRdFQfBi0TEFNQX7Fe00YLutduixQ80OjXYJdsgdsR29kuRVCZKRtcbrZa5V9nYDOiTjo8nX5L6gy09022ukZUoyrUo+ouo3TRbRs9iDB0X344cO2+A+/X4oSV6VIBkZ8zVpd44VbrLIOwUrVc0REQyLCJKx0eQf5T6vy8O67TPSMstc7wpN3uOwt4kIiKIgGC9RFAREBMdFBDSiIBfsMWQbAjh6yQAAHmpJREFUnpTbaqeNttvssB2O6LcXhyXJCQXJyMgslrlcyS+regeCZPw0+Yrc3+vyiG4HjLTMNTI3K8lUXWSyigZxUKN1htzpkPvttdGj6jZJkhMKkpOzAMuxwg0Wu0WwRm6piIAoCoJkbDX5vH5/q+IJ3Z4xUlrQhjbv0+I3NDpf3ekmuigKgheLCCjaocEGuc2esdFBG+y1xSb77DMkSV5GkJycDJkZSj4s9zs4R5CMtyZ/o99fqujRrd9IyZApK/moqo/hdFNJdBi7lN2t6gc6PaxipyR5GUFycjJnuMFKBe932C0oCF4oIkhGVxQFQURAs0/JfVKXXTpFI+Vaza7VqujDjvqgqFEw+URREBwXERzTIFeyzZAnbLVJj014Aj22eNYeSfL/C5KTk1klc6OStaoulUwMjT7uqI9b55B7jZw12mSuVPZuA2409R3AJmXfl7tTpy0qnpIk/58geW1a0OYUrd6rxa8paFc3y3FRFATJ2GpETc1O/8Nm/6dtBuwzcq5yjbXeqVmm6nWeFxFMVlEUBMdFBDSi4ClFPQZt0GOjrTZhA7bZYtAeyTQVJK9NpiCzRMlvy30ITYJkvJWQ69Plv6v4n0Za5ldkblXSrmqO6WcbfqLs+3JdOu1W0SeZloLktcksc70rFL3HYW8zLBgWESTjo4x+ve70x+71SSOlBW1O0eZ3tPjPCs5SQ0QwFUUEx0UEFNQ02qNoi0Eb9Nhkq03qNoj22Ip9kmkiSF6bzFqZn1OyWtWFkomhbFBuu07/l4pPGykZMouUfFTVfzbdRcNqWC+4T8G/Ouoe3Z52ryiZFoLk1TkTi9HuVy3zIQUr1MxyXBQFQTI+Sg7Lbdblr1R8zki51umudYGi33DUe0UEwyKCqS8iOC46puCogic12qjqETs9YItHbbBfryiZ0oLk1bkcb1Qy2+9p9DHB6aJkoig5KLdel8+q+JKRssZymauUvduAt0r+vaiOg8puV/VtnR5RsUcypQXJq7NaSYdlmv22Qb+BRsnEUbJbvwdV/IOKbxopHa7Q4QbNblD1RtNVFAUBEcFx0THNtoh+YquHbPETNY8ast829EqmmCB5ddZYKvMGZb9kwM2SiaWkR+7fdPmqijuMlMxbZd6t5EpV50r+I+tF9wr+2RGd7nXU/ZIpJkhenautstbbNLtO7lLPiwiS8VXyuFy3Lt9WcaeRcrX3WutWzS6QmyM5JoqC4LiIgIJ+jZ4UPKLqx3b5kR6P2+AZvZIpIkhenQ6/KPN+ZRepOlsysZT9WO4unW5XcY+R0uF3ZH5P2UJVQfJK5dij7Da5b+m0UcXTkikhSF6Z+VgiOM9HLPG7ihapa5RMDBEBZffK3aHLD3T5sZPVgjYztPqYFh9TcKq65GeJoiCICIgIBpVtFD2ox4N6PIwnBE/bgj2SSSpIXpkrcJVmM/2B4A8EBcnEU3aX3G06dal43MnKNMosVvK7qj4ieW2iYUOiHwvuVvY9VffrNKAimaSC5JXp0CCzSNnvyf22YcGwiCCZGErukPuaLver2OJkXWuea12o6AOOeo+IgCgKguRniQiOi44peE7BZkUPG/Sg7R6wwRM26ndAMskEySuTmSNzoZIPqHqfZGJq8k25L+nyY912OVlrnCezStnPG3CDZKQ8hyc1+ZZ+31bxpG5HJJNKkLwymVaZK5TdIvd2EQFRFATJxNDky/r9nYpHdTvoZHW4Soe3aPZmVW+QvDpRFAREBMdFBEeVPCH6kR3utcEDNtrlgKpkUgiSVyZzqcx1St6mapVkYmryd/r9tYqNuh12sjI3ytyi5ApVbZLRUNXkX+S+pcv9uvVIJoUgeWUya2XeqWSNqgslE0VEEBHQ7C9V/ZlO23WqO1lX+xVr/aZm7XKzJScrIogIiAgo2Sd60E5326hig816HZFMaEHyymR+XuZXlFysqkUyMRX8iaM+rttT7nXyOvwXmY8pO0dVMrqisnVyd+h0p4qHJBNakLwymQ/IfFjZcrlTRQTJeIsIKKDmsB3+2BZ/YquqfV67FrSZpdXHtPg9Bc3qkpETEURREEQElD0tetwOXTbqssEjej0tmZCC5JXJfFTmf1EyX1Uy0ZQNye3S6U9V/IWTlSnKLFXyO6o+LBlbZY/Iden0Tyq6ECUTTpC8Mlf73631h5qdIpdMNGXP6LfBnf7GvT7vZK0137UuUvRrjrhFREAUBUEyUiICIoKIgLKjoh5bVfS4Gw9gry3YI5kgguSVCDr8N5n/pqxBVTLRlGyX+7EuX1Jxm5OVaZdZreTnVF0vGS/b8ICyf5S7Q6cBFckEESQn1oI2Ja3+qxZ/qIC6YRFBMjGUPKJfly7/pFunk5W5XObNSt6i6mrJWIkIIgIaDSrYpegeg+6yw3026rEBvZJxFiQnliEzW8n/pup/lUxMTdbJ3aHLD3R7yMnKrJG5ScmbVF0sGW8HsF7ZF+W+odNzKpJxFiQndi3e5CxNft9RHxUREEVBkIyXiOC4ktvl/lGX+1VsdbIy18u8S8kqVe2SsRYRHBcRHFR2n+gu21Ws96hNOCgZJ0FyYqs16LBYs/9i0EckE1PZl+T+TqfHVBx0sjI3yfyykjeoWiqZKA5jm4J/0OfLuu13jygZF0FyYquVdFim2UcM+pBkYoiiIIgIaPZpAz7lbk/qNOhkZd4t834lF6k6RzJeIoLjIoIjmvzIkLvs9AObPWADeiVjLEhObI1TdThXs98y4AOSiShq8HFH/ZF1nnWfk5f5FZlblbSrmiOZWKJB7FL2t6o+p9NPVSRjLEhOrMNsHdo1u1XV+yUTSwGDDtnhj232CU+q2efkZW6V+W0lrapOkYy3iOC4aNigZneKbrNDl40224I9kjESJCeWOUPmdUp+XdV7JBNLyYDcdl0+peLTRkrmd2Q+qmShqgbJRHUQjyv7e7mv6FRTkYyRIDmxDmfLXKzsV1W9WzKxlPxUv8fd5bPu9SUj5Wq/7zp/oOx0uWSiiKIgOC4iOGCG2wz6mu95WMVTkjERJCe2xiKZy5W9x4B3SiaWkq1yP9TlKypuNzKCzP8h81+VFFUlE13ZI3JdOt2moksyJoLkxDq06vBGzW5RdaNkYil5SO4uXf5ZxTonqwVtTtHmD7X4A42CumTiiQiOKziqpscuX9PjGzbY7oAByagKkhPLrJBZpeRdqm6QTCxlnXLf0alTxSNOVobMWUp+X9VHJZNLkzvkvq7LfbptkYyqIDmxzIUymbJ3yF0rIkjGSxQFwXFlt8l9WacHVGx3stYqWmuJgt91xG+JCIZFBMlEExFEBJTsFT1gh6/b4HYbPeuAZJQEyYllLpa5VsmNqjokE0vZF+Q+o9N6FYecrMxMmfOU/Kaq/ySZXKJhuSafl/ucik26PScZFUFyYh3eIPNmZW9RdZVkvEUE0TEz/YXa/9sevADZXdeHAv/8ds/u+W+SBRRDAgkEyCYEihTFqBCy5/AqKFZtbanjo60XX/VRW2zrndrpaHvvnXudjo8Wtego94JYxcqopVQweHKS8KiioCIJZMmLBCQPQMnjnN2z+7uzw+xgq6abze5md/l+Pj5qlW1WGXK4Kl6g4oW6XKnpjcJ0kZFkzyj8SLbKFt/wgNUewk5hnCXh4CrOU3W5wiWalgtTQzasX+F/a/o/avarO3y9Fqo6R+HN+r1OmK4yHlVyjf0+Y43HrRPGWRIOrqKi6tUKF2o6W5ga2rUM2GqHT+hztT7ZDoev1xIV5+pyhX6XC9NDliXJiIxkUOHbWr7ux2q+7wGP4WfCOEnCwVVdqOq1yiqazhKmhrLHNPzAatequ9F46XWmqorCa/W7WJje2jxhyHpP+qxHfcEPDXpQGCdJOLiKlSp+U5eLNL1YOFIykhGFHzigZpWvu8Nq46XXWaouUHiNfhcI001GkpGQkO0x5FpP+Zw7bPY9TWFcJOHger1U1aUKl+l3njA1FG7VcJOaterWGy+9zlJ1gcJr9LtAmBk63azhRqvdZY0+YVwk4eAqzlJVVXitpguEIyPLkiQjYY7rtVxjlQes8qTx0usMVb0Kv63fJcJ0lZFkJHTq02+dB/yTH7jNY/iZcJiScHBVS1Wdp+x3Nb1SmAqywkc1/J2an6gbP72WqDpP4Qr9XinMDG0GDNrqKZ/wqE/7oUEPCocpCQdXcaKqlyi8SdNvC0dWO1oes93H9Pl7fZp2GD+9TlG1XOEN+r1GmDmyfficp/yjtTb7voZwWJJwcL3mqjpL4b/p9wbhyCp7UsN6q12j7jrjrddCVecovFm/1wkzS+EWDV9Rc6e6h4TDkoSD69WtYqkuf6TflcKRVfagA+60yo3u9E3jrdd8FWfp8hb9Xi9Mb1mWJBkJHR426E6P+KKNvmkjdghjlISDW6mk4hRd3mfAu4Ujq9MaDTdbbZU17jXeeh2r4kxd3qrfm4SZJWthm8InNH1KTUtdGKMkHFwvKubq8gH93m9EliVJmGgZSUbCbF8x4Fq3u8/tHjPeeh2t4jRd3qnfW4SZJRu2X7fPG3CNWz1stQPCmCTh4F6G83Q5ygclHxSOrMLVGj6hZou6lvHWa5aKJbq8W7+3CTNT4ZsavqpmnboNwpgk4eDm4WRtlvlLJ/tLHbq0hMmSkVBCy5O2+5g+H7PRXjuMv5U69DrFLO8z4F3CzJBlSTKiZLOWu210gwf8q23YIxyiJIxOxZ+p+oDCCzSFyVY4oGGTmn9Qd42JslLS6ySzXGXAHwszUzIke0TTx+3xSd814F7hECVhdFZ4j4v9qS4naSgJk6uwzQH3WOV6d/iaidKLinm6/Ll+7/esjCTMJA0ln7fPNdbqs85+4ZAkYXSq3qrqXcqWaJojTK6y72i4zWq3qLvLRKmi6hhl/13TB4SZrfBvGv5ZzR3qHhQOSRJGp+KNqt6qcKamFwgTLSPJSJjtZv2+6NvudrvNJsrFuFih5K/s9UEZybCMJEx3GUlGQpcfaPi2b/m6derCIUnC6FS8TtXvK7xY00JhcnX6nAM+re5Ba+w1UaqoalP215r+GkmYuQqPafihmmvVfVk4JEkYnYrLVVyhy7malggTKyOhhJY9HnG1ja7WZ7dHTZwF6MESH7TQXykptJCRhJmmXcugrbb7hD5X65NtF0YpCaNTcaGq31KoaHqhMDkKT2t4SM2n1H3eZKl6v6oPKJurKcxsTYWPaPiImr3qwiglYXQqVqh6pcIlmpYLEyPLkmRE2f0OqFnlJndabbKscKWL/ZEuSzV0CzNNRpKRMMc1Blztdn1WaQijkoTRqXqxqouVXa6pV5gcnb6m4YtW+441tposFa9R9QaF5ZpOEWa2wk0ablBzj7ptwqgkYXSqelSdq/B7Gi6XkQzLSML4yobtM8c1Bnza7ba63YDJUrFCxSt1uUTTcmGmyUhGFFZr+Bc131Z3nzAqSRidXi9Q9UKFK/V7ozCxsgFsVfiEpk+pGVI3eXotVbVC4Xf1e4UwsxXu01BT83V1dWFUkjA6K7RZ6USz/YlB70HJsIwkHK4sS5KMhJKHtdxtuxv0+TcbscPkucgxLnKGDu+0z5tlJGRZkoSZpbBRw11qvqzuFmFUkjA6L8JyHY7158r+QnK0LEyUwq0ablKzVt16k62KqhOU/ZmmPxVmtsJ2DfequU7dPwujkoTRORYn4Qxv1eM9OvRomS2Mr2xYv7LPO+AfrdLnLvtMtoXoUVjsKgtdpeRYg8JMVXhCw3o1n1F3nTAqSTg0Fa9R9QaF5ZpOEcZf9hODPuqn/t7dmr7ryKl4m6r3KPRomiXMTIWGhs1q/l7dPwqjkoRDs8K5LvJKXX5D00uNyLIkCYcmy5JkRMmj+n3fZv/XBl+1BbscOSv8lou9WZdzNJwkzEwFGh5X8xF1HxVGJQmHplePqnMVrtDvVcL46rRWw79a7VvW+L4jrep8Va9SdrGmc4SZqUBDU83fqvufwqgk4dBcoNuFTtPpXfZ7i2HJsIwkjE02LJvleg2ftcoD1nrCkXaB01Sdr+x3NFwmIxmWkYSZoUDDkJoPq/sbYVSScGjOx0rHmuUvtPwZ2iRhPGQ/0+6j9vm4tX7qTkde1QtUnansSk1vEmamAg3UfEjdh4VRScKhOR6LlSzxPie5SskJBoVDlWVJMqLdEwY8YJvPesj1Nssec+SdL1npRLNdpeW9aBNmkoykQAM1H1L3YWFUkjA2Vb+v6u3KTtf0fOHwlH1Pw+1Wu1ndWlPFi7Bch2P9hbIPSLplYaYp0EDNh9R9WBiVJIzNCpe5xO8pnKdhqYwkjF5Gkj2j240G/D/fdK+6x0wVx+IknOFKS7xbh6UGzDYiy5IkTFcZSYEGaj6k7sPCqCRhbKrOUXWJsss1nS+MTTbsCYWrNX1SzU51U0/Vpap+V9kKTcuEmaVAAzUfUvdhYVSSMDYXW+hi5yj5fXv9toyELEuS8KtkJBkJha2yu2z1Zev9iz6Ddph6Kha5xEt1eqN9XmNYMiwjCdNbgYZBNX+j7m+EUUnC2FQVqnqUvUfTO4SxKfyLhi+puVvdJlPV+eg1zyzvNeC9OEoSZooCDQfU/A91/0sYlSSMzUIs9jw9rrLQnyiZY1D41TKSjISSlpZHbHe9ja6zwTaPGzBVnYBTtVvqCov8gXZna5knIyHLkiRMLxkJBRoeVfN36j4mjEoSDk/Fe1VdpXCipnZhdApbNdyj5gvqvma6qHqRqouUvUpTRZgZCvs1PKzmanWfEUYlCYdnhde72FsVztI017MykvAfZSRDZrlFvy+71TprbTFdvFy3C5xmtrcY8EbJ0X5eliVJmF7Kdmm432qfU3eDMCpJODwVF6h6rUJV01nCaOxS8kn7fMoau9xh+ngRluvwfH+o7O3aLJUdJUxvZVs03GO1G9R9TRiVJByei5zsQi/T4Y32+00ZybCMJGQkGQmFTVhnkxv92C02yR4zfRyLk3CmX7PUhdq9SlMvCsmzsixJwvRQ9oCGdVb7qrrbhFFJwuFZqV3Fybr8sQHvRrvwqxVu0nCDmnvUbTNdnY+V5prlLVquxCJJWZieCt/R8C01t6i7UxiVJByeE7DYLEu8zUneqeRkLYWMZFhG8lyTZUkyoqRfy1bbXWej622w3eMGTVdzcRqWWe5kv6HNKzSdizbJz8tIwlSTkWQkzHGrlq9YZZ1VHhRGJQnjo+pVql6v7GWaeoT/qNCn4d/VfEndzWaKldr1WqjLlQZcieMlSZheCl/Q8Dk196vbLYxKEsZHxWkutVKnK+x1iYyELEuS54osS5IR2bBBs31D0z+5zd3WesRMMRfLtDvD+U72CskFGl4sK0melWVJEqaGjIQSWp72iE/p8w/67LBDGKUkjI9ehYrFurxHv3cgCWTDHtXuk/b7tLWedIeZp6pL1SnK3qDpDViATmFqKwxo2KLm4+o+JRySJIyPBVisW493ONG7lJxoUMmILEuSmSrLkoSMJHtGYYPs2za5yXq3exg/MfPMwzJdTnO2E61Udr5B52iZb1CbjGRYRpJlSRImW0YyomybA75jlevd6RvCIUnC+Kr4LVVvUjhH0yLPVdmwhrIvabjOavdbY5eZbgVWep5ZXm3QFfh1yQJhauq0RsPNVltljXuFQ5KE8VWx1GV6dbjC0y4xLBmWkcw8GcmI7Bld+mR32OIW6622wS47ZTPd8TgVbU7RZrklztXjZTjdAccYljwry5IkTLSMZERG0m+2Gwy41u1+7HZPCIckCeOrql3VImXv1vBOzJI8d2TD9it8WdMX1PxI3S7PTUnVS1VdquxSDS9HmyQceS08ovBpDZ9V85S6cIiSML4WYrFCj9+xwJt1ONug4zwrI5n+MpIRGQllDxqyzjb/ZoM1Ntjlcc9d8xxtmdOc7sUWeYkOZxnQo+V5BpGRPCvLkiSMl4yEjCQjoXAvbrXFLTZYZ6Nsh3CIkjAxev26qgsVXq1f1XPD0zp9yQHXq3vAGnuEZ1Q9X1WPsks1XIYlkrnCkXBA4VoNn1WzUd0+YUySMDEqZrvUUp3+0F5vkj1f8qwsS5LpJsuSZERGQuEBrLHZN6231gZP2CmMWIAeR6EHZ+pxusVOl5yh4VS0S35RliVJOFQZSZYlSUZC4THcbYsbrfev1nvaTmGMkjAxqqhqU/YHmt6B03CMmemnCl/UcJ2aDeqeEg6uYrGKlyhcqukCzJcUwkTKCjdruFHNXeoeFg5LEibGAizBMmc72WV4tQPONSwZlpGQkUx9GcmI7BmFH8nqtrrVButs8JTHhf/KcUqWWeh0pznZGTqcpmUJTpUt0NJhEBnJs7IsSchIwn+UZUkyIiOhsMmQe2xzm/Xq1ttup4ZwWJIwsaoKVacqe7uGKzFHMv1lw57Q6QsarlP3kDWeFg5NFVWFwpkazpOdh3MwXzJHGA97dPqGhq9a7T5r7BDGRRIm1jwsM9vpLnGS10pWajpVRjIsI5mqsixJRmQklP3AkJqtbrXBHTZ42k7hUC1ADzocZcAiLYuULNJjkcUW6XSKASdqOc6gNhkJGcnPy0ieezKS/ywb9qSy+2R32epOG9xrg8ftNCiMiyRMjl7zVf26wpv1uwIdpq/HdfqCA65X12eNfcJ4SipOUnGmwss0vQynSxYiCf+1bA8e1OFGB9xkjUetNSiMqyRMjuMky8xzhlc42WuxXMPxMpJhGUmWJcmRkmVJMiIjoV1LyXbt7tfvu7aqe9A9NthnpzDeFmiz2HzJiTjFYossdqJOCwyaj+MxV8ssLWQkvygjGZaRTFdZliRkJCMyEkoo2YtteEjJQwY8YLPvWe/HNsh2CeMsCZOrqkfVecqu0HS56SLbjO8p+Zr9brPWbutkYXKs1K3iBF1ON+Bs/BpOwwI8X3gCW3En1ih8X8MmNUPqwgRJwuSap9Myi5zhFRZ5Nc52wLGGJT8vI5loWZYk/1n2jMIW2Q887D597jPkPkO22ITHhMlyAhbr1GmelhO0zFcyzxLH6TFPyTwt8zBfNlfLMQYlGckvykh+mYwky5JksmRZkpCRjMhInpU9o6SlZKcO27RsttFmfTZpeVjJFh12GDCgDzuECZKEI6Pqhaoqyl6t4QKUJFNHlrFH2W0avmG171pjkzC1VM1RNV9hqYYzZadjKRZK5qKMNjNFNqwh2yF5UOFuTf+u5gF124VJlYQjY545ljnZMsudZIU2L9V0uqwkISMZlpGQkYxVliUJGckvk2Tttit5WMlmA/ps8UPr3W+D7XZqCVPLQixW0mGuAcdrmadkrh7HWKJbSbeWObJuWbdkjqQb3ehGt2yOlg4tz0gmT0byrOwZJXQYwB7sku2W7dJht5Zd+uzW53FsxVZ9HrdDmGRJOLJ6PU/FUl1+R7/X4QSUTbasiV24R7JW4U4N96vZqy5MN1VUtSkcrWGuIXMxH8dpMw/zME82D8fJjpUcjTbJkZMNG8LPJLuwGRsN2Yg+hY36bbfafquFIywJR9ZxWOZoS53lJC9XOMeQs7Qs0jJLRjIaGcmIjOQXZSS0aynZJXnckB0GbbHPJo/YZLstks2yn+rDDmG6WYjF6MCADsyRdUu6MUfSLevW0q2kW485esxR0m1AN7rRLenGbHSiHUmSZcOyn5eQZSMSsuwXZfRLGtiHvdiHfUr2GbBXn336PK1lj5Ld2CXbrcMuLQMexnbhCEvC1LAC5zvabFVDLsdLsRRdxlM2rB/b8ZDkx4b8SL/vecKDvmvAvcJzTVWbqkKnYx0wH8dJ5mOeZK5slqTTsCTLsmEZybAsIcuekSVk2bCMhIxkCPskP8Nu7MYu7FHYqeEpNU11WZjSkjA1zMepaLdQmzMscbIeJyo5UctC2ULMxxy0G9HCIDISSigZwn7sl+3HPjwp263NTk07bbbTZo9r+Yl2jxm03X4HbMMe4blmIRajhAHd6Ea35CjMRifaPSP75bJnZb/aEAZwAPuxF/uwV4cDBtCHHcIUl4SpqapN1VEKp2s4R/Zi/JrsBZI5slmSAu2SJBs2hKclT+EJPCF7ErtlW/Gwdhvss8U6e90pCyGEMUrC1LQAPehwjAELsRDHYzY6tXQq6XCqTqco6ZDt07LVftvsM2i/dvtxAHvxpGy3Njv1O2ATfiKEEMYsCdPb+QorlHUZtMeAuw34riEhhDDBkjC9HY9T0Il92IqdQghhwiUhhBDCGCQhhBDCGCQhhBDCGCQhhBDCGCQhhBDCGCQhhBDCGCQhhBDCGCQhhBDCGCQhhBDCGCQhhBDCGCQhhBDCGCQhhBDCGCQhhBDCGCQhhBDCGCQhhBDCGCQhhBDCGCQhhBDCGCQhhBDCGCQhhBDCGCQhhBDCGCQhhBDCGCQhhBDCGCQhhBDCGCQhhBDCGCQhhBDCGCQhhBDCGCQhhBDCGCQhhBDCGCQhhBDCGPx/4F8FcdDFG9IAAAAASUVORK5CYII=;" vertex="1" parent="WIyWlLk6GJQsqaUBKTNV-1">
          <mxGeometry x="186" y="206" width="22" height="22" as="geometry" />
        </mxCell>
      </root>
    </mxGraphModel>
  </diagram>
</mxfile>
